<svg xmlns="http://www.w3.org/2000/svg" xmlns:svg="http://www.w3.org/2000/svg" id="svg275" width="767.207" height="770.085" enable-background="new" version="1.1" viewBox="0 0 202.99 203.752"><defs id="defs5"><filter id="filter4886" width="2.222" height="1.917" x="-.75" y="-.471" color-interpolation-filters="sRGB"><feBlend id="feBlend2" in2="BackgroundImage" mode="normal"/></filter></defs><metadata id="metadata7"/><g id="g273" transform="translate(23.840602,-56.02237)"><g id="g3687"><g id="g3415" transform="translate(-0.26158136)"><path id="path1468" d="m 179.00913,177.55387 c -0.53793,0.25444 -1.07735,0.50969 -1.65158,0.77256 -0.75872,0.34732 -1.546,0.69993 -2.35541,1.05213 -0.8094,0.3522 -1.64048,0.70366 -2.48615,1.04955 -0.84567,0.34589 -1.70598,0.68602 -2.57349,1.01441 -0.8675,0.32839 -1.74249,0.64545 -2.61741,0.94516 -0.87491,0.29972 -1.75003,0.58196 -2.61793,0.84181 -0.43394,0.12992 -0.86603,0.25421 -1.29552,0.37207 -0.42949,0.11786 -0.85628,0.22943 -1.27951,0.33383 -0.42323,0.1044 -0.84264,0.20192 -1.25781,0.29145 -0.41516,0.0895 -0.82615,0.17116 -1.23145,0.24443 -0.40529,0.0733 -0.80527,0.13817 -1.19889,0.19379 -0.39362,0.0556 -0.78102,0.10193 -1.16117,0.13849 -0.38015,0.0366 -0.75289,0.0635 -1.11776,0.0796 -0.36487,0.0161 -0.7214,0.0212 -1.06919,0.0155 -0.71347,-0.0118 -1.41897,-0.0351 -2.11615,-0.0703 -0.69717,-0.0352 -1.38599,-0.0817 -2.06757,-0.13953 -0.68158,-0.0578 -1.35592,-0.127 -2.02261,-0.2067 -0.6667,-0.0797 -1.32618,-0.16994 -1.9787,-0.27079 -0.65251,-0.10085 -1.29779,-0.21207 -1.93683,-0.33331 -0.63904,-0.12124 -1.27179,-0.25288 -1.89807,-0.39378 -0.62628,-0.14089 -1.24613,-0.29134 -1.86036,-0.45113 -0.61422,-0.15979 -1.22284,-0.32849 -1.82572,-0.50643 -0.60289,-0.17794 -1.19989,-0.36483 -1.79214,-0.56017 -0.59225,-0.19534 -1.17985,-0.39934 -1.76217,-0.61133 -0.58232,-0.212 -1.1596,-0.43202 -1.73271,-0.65991 -0.5731,-0.2279 -1.14176,-0.46389 -1.70636,-0.70694 -0.56459,-0.24304 -1.12527,-0.4934 -1.68206,-0.75085 -0.5568,-0.25746 -1.10963,-0.52161 -1.65933,-0.79272 -0.54971,-0.27111 -1.09638,-0.54901 -1.6397,-0.83302 -0.54332,-0.28402 -1.08344,-0.57458 -1.62108,-0.87075 -0.53765,-0.29617 -1.0724,-0.5978 -1.60508,-0.90537 -0.53267,-0.30758 -1.06321,-0.62073 -1.59163,-0.93896 -1.05684,-0.63647 -2.10613,-1.29375 -3.15019,-1.96836 -1.04407,-0.67461 -2.08276,-1.36651 -3.11971,-2.07326 -1.03695,-0.70675 -2.07179,-1.42821 -3.1073,-2.16111 -1.03552,-0.7329 -2.0717,-1.4773 -3.11144,-2.23035 -1.03975,-0.75306 -2.08299,-1.51481 -3.13263,-2.28203 -2.09928,-1.53444 -4.22414,-3.0911 -6.39702,-4.64623 -1.086445,-0.77756 -2.185165,-1.55479 -3.29851,-2.32854 -1.113346,-0.77375 -2.241471,-1.54394 -3.387392,-2.30787 -1.145918,-0.76393 -2.309677,-1.5215 -3.493841,-2.26963 -0.592082,-0.37407 -1.188918,-0.74567 -1.791623,-1.11466 -0.602705,-0.36899 -1.211173,-0.73548 -1.825213,-1.09864 -0.614037,-0.36317 -1.233754,-0.72345 -1.859833,-1.08004 -0.626078,-0.35659 -1.258212,-0.70958 -1.897041,-1.05885 -0.638828,-0.34927 -1.284547,-0.6944 -1.936835,-1.03559 -0.652285,-0.3412 -1.311203,-0.67842 -1.977657,-1.01079 -0.666453,-0.33238 -1.340252,-0.66008 -2.02158,-0.98289 -0.681329,-0.32281 -1.370145,-0.64094 -2.067058,-0.95343 -0.696912,-0.31249 -1.40191,-0.61946 -2.115116,-0.92087 -0.713205,-0.30142 -1.435036,-0.59717 -2.165244,-0.88677 -0.730205,-0.2896 -1.469001,-0.57304 -2.216917,-0.85008 -0.747919,-0.27703 -1.504844,-0.5476 -2.271181,-0.81132 -0.766334,-0.26372 -1.542042,-0.52032 -2.327505,-0.76998 -0.785463,-0.24965 -1.580602,-0.49225 -2.385901,-0.72709 -0.8053,-0.23483 -1.620518,-0.46233 -2.446362,-0.68161 -0.825844,-0.21927 -1.662311,-0.43059 -2.509409,-0.63355 -0.847095,-0.20296 -1.704943,-0.39753 -2.574001,-0.58343 -0.869061,-0.1859 -1.749454,-0.36314 -2.641182,-0.53123 -0.891731,-0.16809 -1.794804,-0.32693 -2.709913,-0.47646 -0.915109,-0.14953 -1.842029,-0.28939 -2.781226,-0.41961 -0.939196,-0.13022 -1.890614,-0.25054 -2.854605,-0.3607 -0.963994,-0.11016 -1.940557,-0.21037 -2.930054,-0.29973 -0.989499,-0.0893 -1.991858,-0.16785 -3.007569,-0.23564 -1.015712,-0.0678 -2.045033,-0.12504 -3.087666,-0.17053 -1.042633,-0.0455 -2.098535,-0.0794 -3.1688,-0.10181 -1.070264,-0.0224 -2.154944,-0.0334 -3.253548,-0.032 -1.098604,0.001 -2.177886,0.0206 -3.239079,0.0563 -1.061193,0.0357 -2.104066,0.0881 -3.128491,0.1571 -1.024424,0.069 -2.030638,0.15416 -3.018937,0.25528 -0.988299,0.10113 -1.958634,0.21817 -2.91145,0.35037 -0.952816,0.13219 -1.888054,0.27966 -2.80603,0.44183 -0.917976,0.16217 -1.818899,0.33914 -2.7026777,0.5302 -0.8837785,0.19106 -1.7506509,0.39609 -2.6008747,0.61495 -0.8502238,0.21886 -1.6838276,0.45155 -2.5011393,0.69711 -0.8173118,0.24557 -1.6179118,0.50397 -2.4029541,0.77515 -0.7850423,0.27118 -1.55445378,0.55489 -2.30786937,0.85059 -0.75341585,0.29571 -1.49086993,0.60329 -2.21330173,0.92243 -0.7224318,0.31914 -1.4297435,0.65019 -2.1218342,0.99167 -0.6920905,0.34148 -1.3690084,0.69354 -2.0314004,1.05627 -0.6623921,0.36273 -1.3102143,0.7359 -1.9435506,1.11879 -0.6333363,0.38289 -1.2523279,0.77575 -1.8572509,1.17771 -0.604923,0.40196 -1.195866,0.81306 -1.773019,1.233 -0.577152,0.41994 -1.14031,0.84836 -1.690336,1.28519 -0.550025,0.43683 -1.086697,0.88218 -1.610237,1.3348 -0.52354,0.45263 -1.033992,0.91295 -1.53169,1.38028 -0.497697,0.46733 -0.98271,0.94171 -1.455208,1.42265 -0.472498,0.48095 -0.932853,0.96846 -1.380794,1.46193 -0.447942,0.49347 -0.883386,0.99268 -1.307415,1.49758 -0.418722,0.49859 -0.825603,1.00286 -1.221629,1.51154 3.536121,17.1858 13.2753422,33.3922 23.4321604,47.37178 14.3353246,19.73077 60.6177936,-12.33024 72.6415606,8.74262 12.023762,21.07286 80.329759,94.68957 102.360159,2.25464 2.94877,-12.37243 3.7415,-24.72421 2.7559,-36.73987 z" style="fill:#4fadf9;fill-opacity:1;stroke:none;stroke-width:.264583px;stroke-linecap:butt;stroke-linejoin:miter;stroke-opacity:1"/><path id="path3410" d="M 66.303352,56.033117 C 52.894589,56.25079 39.442035,59.782115 26.668047,67.30943 c -45.041908,26.541796 -54.288469,55.29839 -48.848697,81.73606 0.396026,-0.50868 0.802907,-1.01295 1.221629,-1.51154 0.424029,-0.5049 0.859473,-1.00411 1.307415,-1.49758 0.447941,-0.49347 0.908296,-0.98098 1.380794,-1.46193 0.472498,-0.48094 0.957511,-0.95532 1.455208,-1.42265 0.497698,-0.46733 1.00815,-0.92765 1.53169,-1.38028 0.52354,-0.45262 1.060212,-0.89797 1.610237,-1.3348 0.550026,-0.43683 1.113184,-0.86525 1.690336,-1.28519 0.577153,-0.41994 1.168096,-0.83104 1.773019,-1.233 0.604923,-0.40196 1.2239146,-0.79482 1.8572509,-1.17771 0.6333363,-0.38289 1.2811585,-0.75606 1.9435506,-1.11879 0.662392,-0.36273 1.3393099,-0.71479 2.0314004,-1.05627 0.6920907,-0.34148 1.3994024,-0.67253 2.1218342,-0.99167 0.7224318,-0.31914 1.45988588,-0.62672 2.21330173,-0.92243 0.75341559,-0.2957 1.52282707,-0.57941 2.30786937,-0.85059 0.7850423,-0.27118 1.5856423,-0.52958 2.4029541,-0.77515 0.8173117,-0.24556 1.6509155,-0.47825 2.5011393,-0.69711 0.8502238,-0.21886 1.7170962,-0.42389 2.6008747,-0.61495 0.8837787,-0.19106 1.7847017,-0.36803 2.7026777,-0.5302 0.917976,-0.16217 1.853214,-0.30964 2.80603,-0.44183 0.952816,-0.1322 1.923151,-0.24924 2.91145,-0.35037 0.988299,-0.10112 1.994513,-0.18632 3.018937,-0.25528 1.024425,-0.069 2.067298,-0.12138 3.128491,-0.1571 1.061193,-0.0357 2.140475,-0.055 3.239079,-0.0563 1.098604,-0.001 2.183284,0.01 3.253548,0.032 1.070265,0.0224 2.126167,0.0563 3.1688,0.10181 1.042633,0.0455 2.071954,0.10273 3.087666,0.17053 1.015711,0.0678 2.01807,0.14629 3.007569,0.23564 0.989497,0.0894 1.96606,0.18957 2.930054,0.29973 0.963991,0.11016 1.915409,0.23048 2.854605,0.3607 0.939197,0.13022 1.866117,0.27008 2.781226,0.41961 0.915109,0.14953 1.818182,0.30837 2.709913,0.47646 0.891728,0.16809 1.772121,0.34533 2.641182,0.53123 0.869058,0.1859 1.726906,0.38047 2.574001,0.58343 0.847098,0.20296 1.683565,0.41428 2.509409,0.63355 0.825844,0.21928 1.641062,0.44678 2.446362,0.68161 0.805299,0.23484 1.600438,0.47744 2.385901,0.72709 0.785463,0.24966 1.561171,0.50626 2.327505,0.76998 0.766337,0.26372 1.523262,0.53429 2.271181,0.81132 0.747916,0.27704 1.486712,0.56048 2.216917,0.85008 0.730208,0.2896 1.452039,0.58535 2.165244,0.88677 0.713206,0.30141 1.418204,0.60838 2.115116,0.92087 0.696913,0.31249 1.385729,0.63062 2.067058,0.95343 0.681328,0.32281 1.355127,0.65051 2.02158,0.98289 0.666454,0.33237 1.325372,0.66959 1.977657,1.01079 0.652288,0.34119 1.298007,0.68632 1.936835,1.03559 0.638829,0.34927 1.270963,0.70226 1.897041,1.05885 0.626079,0.35659 1.245796,0.71687 1.859833,1.08004 0.61404,0.36316 1.222508,0.72965 1.825213,1.09864 0.602705,0.36899 1.199541,0.74059 1.791623,1.11466 1.184164,0.74813 2.347923,1.5057 3.493841,2.26963 1.145921,0.76393 2.274046,1.53412 3.387392,2.30787 1.113345,0.77375 2.212065,1.55098 3.29851,2.32854 2.17288,1.55513 4.29774,3.11179 6.39702,4.64623 1.04964,0.76722 2.09288,1.52897 3.13263,2.28203 1.03974,0.75305 2.07592,1.49745 3.11144,2.23035 1.03551,0.7329 2.07035,1.45436 3.1073,2.16111 1.03695,0.70675 2.07564,1.39865 3.11971,2.07326 1.04406,0.67461 2.09335,1.33189 3.15019,1.96836 0.52842,0.31823 1.05896,0.63138 1.59163,0.93896 0.53268,0.30757 1.06743,0.6092 1.60508,0.90537 0.53764,0.29617 1.07776,0.58673 1.62108,0.87075 0.54332,0.28401 1.08999,0.56191 1.6397,0.83302 0.5497,0.27111 1.10253,0.53526 1.65933,0.79272 0.55679,0.25745 1.11747,0.50781 1.68206,0.75085 0.5646,0.24305 1.13326,0.47904 1.70636,0.70694 0.57311,0.22789 1.15039,0.44791 1.73271,0.65991 0.58232,0.21199 1.16992,0.41599 1.76217,0.61133 0.59225,0.19534 1.18925,0.38223 1.79214,0.56017 0.60288,0.17794 1.2115,0.34664 1.82572,0.50643 0.61423,0.15979 1.23408,0.31024 1.86036,0.45113 0.62628,0.1409 1.25903,0.27254 1.89807,0.39378 0.63904,0.12124 1.28432,0.23246 1.93683,0.33331 0.65252,0.10085 1.312,0.19109 1.9787,0.27079 0.66669,0.0797 1.34103,0.1489 2.02261,0.2067 0.68158,0.0578 1.3704,0.10437 2.06757,0.13953 0.69718,0.0352 1.40268,0.0585 2.11615,0.0703 0.34779,0.006 0.70432,6.1e-4 1.06919,-0.0155 0.36487,-0.0161 0.73761,-0.043 1.11776,-0.0796 0.38015,-0.0366 0.76755,-0.0829 1.16117,-0.13849 0.39362,-0.0556 0.7936,-0.12051 1.19889,-0.19379 0.4053,-0.0733 0.81629,-0.15489 1.23145,-0.24443 0.41517,-0.0895 0.83458,-0.18705 1.25781,-0.29145 0.42323,-0.1044 0.85002,-0.21597 1.27951,-0.33383 0.42949,-0.11786 0.86158,-0.24215 1.29552,-0.37207 0.8679,-0.25985 1.74302,-0.54209 2.61793,-0.84181 0.87492,-0.29971 1.74991,-0.61677 2.61741,-0.94516 0.86751,-0.32839 1.72782,-0.66852 2.57349,-1.01441 0.84567,-0.34589 1.67675,-0.69735 2.48615,-1.04955 0.80941,-0.3522 1.59669,-0.70481 2.35541,-1.05213 0.57423,-0.26287 1.11365,-0.51812 1.65158,-0.77256 C 173.89689,108.34998 120.46694,55.153842 66.303352,56.033117 Z" style="fill:#4fadf9;fill-opacity:1;stroke:none;stroke-width:.264583px;stroke-linecap:butt;stroke-linejoin:miter;stroke-opacity:1"/></g><g id="g3549" transform="translate(-21.984721,10.983756)"><g id="g135" fill="#d4aa00" stroke="#d4aa00" stroke-width="7.9"><g id="g35" stroke-width="7.9"><path id="path9" d="m 101.43,190.23 -3.0736,7.2163 19.377,-0.13364 6.4145,1.8709 6.0136,2.0045 7.7508,-14.433 -20.713,-1.0691 -14.433,2.2718 z"/><path id="path11" d="m 90.336,183.51 8.41,-3.0238 10.654,8.0482 -7.1609,3.5639 -1.6036,6.1528 -7.276,6.7091 -3.997,-0.25071 -2.3341,-2.2061 0.56696,-15.97 z"/><path id="path13" d="m 99.692,185.35 c 0,0 3.1404,2.205 3.675,1.8041 0.53454,-0.4009 1.4032,-0.13363 2.0713,0.60136 0.66817,0.73499 2.6059,2.5391 3.2072,2.7395 0.60136,0.20045 2.0713,0.26727 2.0713,0.26727 0,0 2.4722,-0.60136 2.5391,-1.1359 0.0668,-0.53454 2.3386,-0.8018 2.3386,-1.0691 0,-0.2673 4.009,-1.2695 3.9422,-1.8041 -0.0668,-0.53453 0.33409,-2.539 -0.26727,-2.6059 -0.3029,-0.0336 -4.7897,-0.12229 -9.8252,-0.75615 -5.4264,-0.68306 -10.547,0.36975 -9.7523,1.9589 z"/><path id="path15" d="m 92.342,134.23 4.6772,-1.47 19.912,7.6172 -0.53454,5.0781 -6.2808,9.4881 -7.8844,3.8754 -12.094,-5.4122 0.20045,-0.60135 z"/><path id="path17" d="m 77.642,146.13 15.101,1.47 -2.6727,6.6817 -9.3544,4.8108 5.2488,3.6433 -0.43797,9.5866 -8.8199,-8.2854 -0.47487,-9.3513 z"/><path id="path19" d="m 114.43,164.14 2.9293,10.3 1.7954,9.3549 v 1.2284 l 1.7009,2.3624 9.0714,0.94494 5.1027,-6.9926 4.2522,-10.961 1.4174,-6.8036 -0.28349,-7.276 -4.6302,-0.18899 z"/><path id="path21" d="m 104.57,163.63 -2.4722,12.695 v 5.2118 l 13.23,-0.80181 1.8709,-8.5526 -3.4745,-7.8844 z"/><path id="path23" d="m 85.927,166.97 -1.7373,1.3364 0.26727,4.41 16.437,9.0872 3.6081,-8.0181 c 0,0 0.13363,3.6081 0,-0.93545 -0.13364,-4.5436 -0.26728,-11.493 -0.26728,-11.493 l 0.66818,-4.5436 -10.023,2.6727 z"/><path id="path25" d="m 115.06,160.96 -1.6036,3.2072 0.40091,6.949 0.66817,3.3409 1.47,4.9445 4.1427,2.1382 3.0736,-2.2718 -2.2718,-5.6127 -5.479,-6.6817 z"/><path id="path27" d="m 98.957,181.74 2.4722,-4.6772 3.1189,-3.0878 c 0,0 -0.93909,2.7869 -0.87952,4.2237 0.0308,0.74273 0.63376,2.1382 0.63376,2.1382 l -0.26727,1.8041 z"/><path id="path29" d="m 101.5,157.75 3.1404,7.8844 11.76,-0.26727 12.161,-6.949 12.161,-1.8709 -2.0045,-6.8154 -11.633,-2.444 -17.766,8.1903 z"/><path id="path31" d="m 128.35,161.73 c 0.42299,0.18612 1.2152,0.3459 1.7395,0.59566 0.93979,0.44767 1.5441,1.1052 1.5441,1.1052 0,0 1.0867,1.1339 -0.51972,1.1339 -1.6064,0 -3.6026,0.81501 -3.6026,0.81501 0,0 0.64965,-2.1734 0.31893,-2.5041 -0.33073,-0.33072 -0.4961,-1.1221 -0.5906,-1.3111 z"/><path id="path33" d="m 118.09,164.99 c -1.0394,0.99219 1.8662,0.11812 1.8662,0.11812 l 2.6695,0.28349 c 0,0 -0.4016,-3.5199 0.63783,-3.9924 1.0394,-0.47248 -5.2917,1.5355 -4.8664,2.7167 z"/></g><circle style="paint-order:stroke markers fill" id="circle37" cx="125.11" cy="163.67" r="2.929" stroke-width="7.9"/><g id="g89"><g id="g47" stroke-width="7.9"><path id="path39" d="m 117.88,165.42 c 0,0 0.85045,-1.9844 1.8899,-2.4096 1.0394,-0.42522 2.8821,-1.6064 3.7325,-1.6064 0.8504,0 4.2995,0.0472 4.9609,0.51972 0.66146,0.47247 1.5119,0.23623 2.4096,0.94494 0.89769,0.7087 1.9844,1.7009 2.1734,1.7009 0.189,0 1.3229,-0.75595 1.0867,-1.2284 -0.23624,-0.47247 -3.26,-2.1261 -4.0632,-2.2679 -0.80319,-0.14174 -2.5986,-1.0867 -4.3467,-0.99219 -1.7481,0.0945 -3.449,-0.0472 -4.772,0.56697 -1.3229,0.61421 -2.3151,1.4174 -2.3624,1.7481 -0.0473,0.33072 -0.47247,0.23623 -0.99219,1.1339 -0.51972,0.89769 0.28348,2.1261 0.28348,2.1261 z"/><path id="path41" d="m 123.95,168.11 -4.0759,-1.637 1.4366,0.23386 3.0068,1.0023 c 0,0 6.0804,0.20045 6.8822,-0.23386 0.8018,-0.43431 0.0334,0.13364 0.0334,0.13364 0,0 -4.8777,1.0691 -5.9468,0.83521 -1.0691,-0.23389 -1.3364,-0.33408 -1.3364,-0.33408 z"/><path id="path43" d="m 117.88,165.42 c 0,0 2.0836,-0.6355 3.0858,-0.26795 0.47548,0.17434 1.0758,-0.006 1.5651,0.11018 0.54216,0.12926 1.8147,0.17588 2.1308,0.33391 0.60135,0.30068 2.5785,-0.0725 2.8792,-0.37322 0.30068,-0.30068 2.1145,-0.30641 2.4486,-0.50687 0.33408,-0.20045 1.8554,-0.56289 1.8888,-0.83017 0.0334,-0.26727 1.1507,0.64118 1.1507,0.64118 0,0 -1.1996,0.87911 -1.801,0.67866 -0.60136,-0.20045 -4.0775,1.2109 -4.9445,1.2361 -1.6836,0.0489 -4.5102,0.40091 -5.0113,0 -0.50113,-0.4009 -0.75045,-0.515 -2.0713,-0.7684 l -1.3209,-0.25339 z"/><path id="path45" d="m 115.99,158.05 c 0.47247,-0.7087 3.9688,-3.0711 6.0949,-3.4018 2.1261,-0.33073 8.599,-2.6458 10.678,-1.3229 l 2.0789,1.3229 c 0,0 2.8821,1.4174 3.26,1.8426 0.3779,0.4252 1.5592,1.5119 1.3702,1.5592 -0.18899,0.0472 -1.0394,-0.42522 -2.3151,-0.47247 -1.2757,-0.0472 -0.70871,0.33073 -1.2757,-0.0472 -0.56697,-0.37797 -6.0004,-0.0472 -7.654,-0.47247 -1.6536,-0.42522 -5.0082,-0.23623 -5.8586,0.18899 -0.85044,0.42522 -4.4412,0.8977 -4.4885,1.0867 -0.0472,0.18899 -1.8899,-0.28348 -1.8899,-0.28348 z"/></g><path id="path49" stroke-width="29.858" d="m 363.66,626.68 c 4.4394,-0.67698 9.5957,-2.1699 9.5957,-2.1699 0,0 4.5459,-2.1465 5.8086,-2.1465 1.2627,0 -1.3903,-2.6508 -2.7793,-4.166 -1.389,-1.5152 -5.4284,-4.1672 -8.0801,-6.1875 -0.6961,-0.53036 -1.841,-0.94152 -3.2285,-1.2539 a 11.071,11.071 0 0 1 0.38867,0.44335 11.071,11.071 0 0 1 0.64453,0.9004 11.071,11.071 0 0 1 0.55078,0.96093 11.071,11.071 0 0 1 0.45117,1.0098 11.071,11.071 0 0 1 0.34961,1.0508 11.071,11.071 0 0 1 0.24219,1.0801 11.071,11.071 0 0 1 0.13281,1.0976 11.071,11.071 0 0 1 0.0293,0.78321 11.071,11.071 0 0 1 -0.0566,1.1055 11.071,11.071 0 0 1 -0.16406,1.0938 11.071,11.071 0 0 1 -0.2754,1.0723 11.071,11.071 0 0 1 -0.3789,1.0391 11.071,11.071 0 0 1 -0.48047,0.99805 11.071,11.071 0 0 1 -0.57813,0.94336 11.071,11.071 0 0 1 -0.66992,0.88086 11.071,11.071 0 0 1 -0.75586,0.80859 11.071,11.071 0 0 1 -0.74609,0.65625 z" transform="scale(0.26458)"/><path id="path51" stroke-width="29.858" d="m 347.59,611.78 c -4.59,1.3357 -7.1559,2.7898 -11.719,4.2754 -5.4296,1.7678 -10.48,4.1672 -10.48,4.1672 0,0 12.753,3.7878 19.824,5.9344 1.8142,0.55073 3.5741,0.89239 5.2715,1.0996 -0.0176,-0.011 -0.0352,-0.0221 -0.0527,-0.0332 -0.30456,-0.20785 -0.59855,-0.43078 -0.88086,-0.66797 -0.28196,-0.23831 -0.55183,-0.49058 -0.80859,-0.75586 -0.25716,-0.26435 -0.50096,-0.54139 -0.73047,-0.83008 -0.22973,-0.28919 -0.44484,-0.5897 -0.64453,-0.90039 -0.19951,-0.31092 -0.38333,-0.63164 -0.55078,-0.96094 -0.16712,-0.32886 -0.3177,-0.66587 -0.45118,-1.0098 -0.13399,-0.34421 -0.25067,-0.69491 -0.34961,-1.0508 -0.0987,-0.35576 -0.17951,-0.71624 -0.24218,-1.0801 -0.0625,-0.36345 -0.10686,-0.72979 -0.13282,-1.0977 -0.019,-0.26064 -0.0288,-0.52187 -0.0293,-0.7832 4.4e-4,-0.3692 0.0193,-0.73815 0.0566,-1.1055 0.0364,-0.36709 0.0912,-0.73213 0.16406,-1.0938 0.0739,-0.36179 0.16577,-0.71966 0.27539,-1.0723 0.10891,-0.35245 0.23538,-0.69924 0.37891,-1.0391 0.1434,-0.34049 0.30376,-0.67359 0.48047,-0.99805 0.1775,-0.32393 0.3711,-0.63878 0.58007,-0.94336 0.0136,-0.0183 0.0273,-0.0365 0.041,-0.0547 z" transform="scale(0.26458)"/><path id="path53" stroke-width="7.9" d="m 79.611,159.65 c 4.3467,3.6853 4.5357,3.4963 4.5357,3.4963 l 3.5435,-1.7481 6.8981,-1.1812 7.0398,2.7876 2.0316,-1.7009 0.89769,-2.1261 -3.3073,-1.9371 -7.7478,-1.0487 -6.8988,0.009 -3.8743,0.51972 -2.2377,0.66399 -0.59709,1.3204 c 0,0 0.14174,0.85045 -0.04725,0.89769 -0.18899,0.0472 -0.23623,0.0472 -0.23623,0.0472 z"/><path id="path55" stroke-width="29.858" d="m 347.59,611.78 a 11.071,11.071 0 0 0 -0.041,0.0547 11.071,11.071 0 0 0 -0.58007,0.94336 11.071,11.071 0 0 0 -0.48047,0.99805 11.071,11.071 0 0 0 -0.37891,1.0391 11.071,11.071 0 0 0 -0.27539,1.0723 11.071,11.071 0 0 0 -0.16406,1.0938 11.071,11.071 0 0 0 -0.0566,1.1055 11.071,11.071 0 0 0 0.0293,0.7832 11.071,11.071 0 0 0 0.13282,1.0977 11.071,11.071 0 0 0 0.24218,1.0801 11.071,11.071 0 0 0 0.34961,1.0508 11.071,11.071 0 0 0 0.45118,1.0098 11.071,11.071 0 0 0 0.55078,0.96094 11.071,11.071 0 0 0 0.64453,0.90039 11.071,11.071 0 0 0 0.73047,0.83008 11.071,11.071 0 0 0 0.80859,0.75586 11.071,11.071 0 0 0 0.88086,0.66797 11.071,11.071 0 0 0 0.0527,0.0332 c 4.9185,0.60047 9.2807,6.1e-4 12.66,-0.46875 0.17028,-0.0236 0.33309,-0.0772 0.50586,-0.10352 a 11.071,11.071 0 0 0 0.74609,-0.65625 11.071,11.071 0 0 0 0.75586,-0.80859 11.071,11.071 0 0 0 0.66992,-0.88086 11.071,11.071 0 0 0 0.57813,-0.94336 11.071,11.071 0 0 0 0.48047,-0.99805 11.071,11.071 0 0 0 0.3789,-1.0391 11.071,11.071 0 0 0 0.2754,-1.0723 11.071,11.071 0 0 0 0.16406,-1.0938 11.071,11.071 0 0 0 0.0566,-1.1055 11.071,11.071 0 0 0 -0.0293,-0.78321 11.071,11.071 0 0 0 -0.13281,-1.0976 11.071,11.071 0 0 0 -0.24219,-1.0801 11.071,11.071 0 0 0 -0.34961,-1.0508 11.071,11.071 0 0 0 -0.45117,-1.0098 11.071,11.071 0 0 0 -0.55078,-0.96093 11.071,11.071 0 0 0 -0.64453,-0.9004 11.071,11.071 0 0 0 -0.38867,-0.44335 c -3.8981,-0.87757 -9.9265,-0.87331 -14.955,0.24414 -1.0884,0.24187 -1.552,0.52167 -2.4238,0.77539 z" transform="scale(0.26458)"/><g id="g87" stroke-width="7.9"><path id="path57" d="m 77.202,148.08 -0.62892,9.6752"/><path id="path59" d="m 101.53,157.48 c -0.51971,-0.37798 -1.9371,-2.7403 -1.9371,-2.7403 0,0 -6.5673,-1.4174 -9.9219,-1.5119 -3.3545,-0.0945 -6.0476,0.37797 -7.6068,1.1812 -1.5592,0.8032 -2.5513,2.2679 -2.5513,2.2679 0,0 0.14174,2.1261 -0.04725,2.9766 -0.18899,0.85045 1.5119,-2.0316 1.5119,-2.0316 0,0 4.8192,-1.7481 5.8114,-0.70871 0.99219,1.0394 5.2444,-0.51972 6.0476,0.14174 0.8032,0.66146 5.2917,0.42523 5.2917,0.42523 z"/><path id="path61" d="m 84.658,163.47 c 0,0 0.33409,-1.7372 1.637,-2.1048 1.3029,-0.36749 7.7508,-1.3364 8.6863,-1.1693 0.93544,0.16704 0.56795,-0.33409 2.5725,0.33409 2.0045,0.66817 3.0858,1.8554 3.4198,2.1226 0.20333,0.16266 -0.046,1.5997 -0.62222,1.4526 -0.37057,-0.0946 -1.0426,-1.745 -1.2649,-1.8234 -0.56795,-0.20045 -1.8668,-1.7518 -2.6018,-1.685 -0.73499,0.0668 -3.4239,0.002 -3.7914,0.10261 -0.3675,0.10022 -3.7256,0.86625 -4.2267,1.1669 -0.50113,0.30068 -1.7707,0.63477 -2.4054,0.86863 -0.63476,0.23386 -1.4032,0.73499 -1.4032,0.73499 z"/><path id="path63" d="m 85.025,163.6 c 0,0 1.5368,-1.5368 3.2741,-1.9043 1.7373,-0.3675 3.1738,-1.5368 3.9088,-0.93544 1.0023,-0.0668 3.3743,-0.43432 4.5102,-0.16704 1.1359,0.26726 2.3052,1.47 2.8397,2.0379 0.53454,0.56795 0.85883,2.0167 0.85883,2.0167 0,0 -0.95906,-1.1481 -1.3934,-1.3485 -0.43431,-0.20045 -2.0045,-1.5368 -3.6415,-1.5702 -1.637,-0.0334 -2.6727,-0.10022 -3.3409,0.13364 -0.66817,0.23386 -2.486,1.0481 -3.5079,1.3363 -1.3029,0.3675 -1.4032,0.73499 -2.0379,0.90203 -0.50113,0.43432 -1.47,-0.50112 -1.47,-0.50112 z"/><path id="path65" d="m 86.666,164.07 c 0,0 3.8365,1.3506 5.2067,1.4451 1.3702,0.0945 3.3775,0.65671 4.9366,0.23149 1.5592,-0.42523 3.638,-1.2284 3.638,-1.2284 l 0.56697,0.56697 c 0,0 -1.6064,1.0867 -3.3073,2.0316 -1.7009,0.94494 -4.5357,2.1734 -5.9531,2.1261 -1.4174,-0.0472 -5.1452,0.0749 -5.7594,0.0749 -0.61421,0 -0.72017,-1.8231 -0.62567,-3.4767 0.09449,-1.6536 0.22812,-1.9715 0.22812,-1.9715 z"/><path id="path67" d="m 117.13,163.97 -1.8041,-4.2763 5.3454,-2.4054 c 0,0 6.5481,-1.0691 7.6172,-0.46772 1.0691,0.60138 7.2831,0.60136 7.2831,0.60136 l 3.8086,0.4009 -1.6704,4.2095 -2.6059,1.7372 c 0,0 -7.2831,-4.5436 -11.092,-3.5413 -3.8089,1.0023 -6.214,2.5391 -6.8822,3.7418 z"/><path id="path69" d="m 76.974,159.36 -0.45102,-1.3698 c 0,0 -1.0858,-0.26726 -1.5201,0.23386 -0.43431,0.50114 -0.95215,1.0691 -0.80181,1.5368 0.15034,0.46773 0.60136,1.4366 0.95215,1.8876 0.35079,0.45101 0.35079,0.55124 0.93544,1.3698 0.58465,0.81852 0.35079,1.4199 0.60136,1.7206 0.25056,0.30068 0.65147,-0.33409 0.48443,-1.2027 -0.16704,-0.86863 -0.23386,-2.2718 -0.15034,-2.4555 0.08352,-0.18375 -0.05011,-1.7206 -0.05011,-1.7206 z"/><path id="path71" d="m 76.918,163.57 -1.7009,10.394 2.4568,9.2604 8.344,9.8519 14.241,-10.677 1.3,-5.5928 -11.601,-3.0319 -7.7485,-4.5357 z"/><path id="path73" d="m 75.194,162.09 c 0,0 0.3071,1.63 0.3071,2.2442 0,0.61422 -0.47247,4.016 -0.47247,4.4412 0,0.42522 -0.23624,1.7481 -0.11812,2.2678 0.11812,0.5197 0.09449,2.008 0.25986,2.5041 0.16536,0.4961 0.89769,1.9135 1.2757,1.9135 0.37801,0 0.30711,-1.252 0.30711,-1.4883 v -1.1339 c 0,-1.0394 0.07087,-4.0869 0.07087,-4.0869 v -1.8899 l 0.11812,-0.87407 -0.21261,-1.1103 -0.49609,-1.5828 -0.92132,-1.1339 z"/><path id="path75" d="m 107.22,160.84 -0.58318,12.551 0.26727,5.7463 2.5782,-1.8575 0.29297,-18.323 z"/><path id="path77" d="m 114.34,173.75 c 0,0 1.4093,5.8274 0.67431,6.5624 -0.73499,0.735 4.0401,1.0786 4.441,1.8136 0.4009,0.73499 -0.31788,-4.9783 -1.3201,-5.3124 -1.0023,-0.33409 -3.7952,-3.0635 -3.7952,-3.0635 z"/><path id="path79" d="m 98.689,181.81 c 0,0 -1.1912,0.96509 -0.18899,2.836 1.0023,1.8709 1.8223,-0.54682 3.1586,-0.68045 1.3363,-0.13364 5.5257,1.6388 5.8598,2.9752 0.33409,1.3364 0.75792,0.97656 2.0943,1.2438 1.3363,0.26727 2.5754,-0.82949 2.8427,-1.364 0.2673,-0.53451 1.2715,-2.8597 2.8751,-2.5924 1.1034,1.6677 2.1059,-0.61361 3.8791,1.6231 0.84829,1.07 1.3685,-3.5466 0.52219,-4.2025 -0.86863,-0.53455 -5.1402,-1.1082 -5.942,-0.97458 -0.56651,0.0944 -8.5699,-0.22283 -12.777,0.45651 -0.79662,0.12863 -2.3235,0.67938 -2.3235,0.67938 z"/><path id="path81" d="m 76.729,174.25 0.75595,5.6696 1.9844,5.2917 6.6146,5.7641 c 0,0 -0.66146,-1.1339 1.3229,1.3229 1.9844,2.4568 2.0789,8.6934 2.0789,8.6934 l 0.66146,3.5908 c 0,0 0.85044,0.94494 2.2679,4.1577 1.4174,3.2128 6.4256,4.9137 9.4494,5.1027 3.0238,0.18898 5.2917,-3.8743 4.5357,-5.5752 -0.75596,-1.7009 0.35505,-4.1368 0.35505,-4.1368 l 4.5033,0.11071 c 0,0 -0.79509,1.6637 -0.32262,3.6481 0.47247,1.9844 1.5119,5.3862 2.0789,5.4807 0.567,0.0945 4.0632,0.18898 5.1027,-0.37798 1.0394,-0.56696 5.3862,-1.8899 6.8036,-4.8192 1.4174,-2.9293 5.9531,-5.7641 5.7641,-9.1659 -0.18899,-3.4018 -0.56697,-5.2917 -0.56697,-5.2917 0,0 9.0714,-7.1816 9.0714,-8.7879 0,-1.6064 2.0789,-7.9375 1.4174,-8.599 -0.6615,-0.6615 0.85045,-2.7403 0.85045,-3.3073 0,-0.56697 0.37797,4.4412 0.37797,4.4412 0,0 -0.78757,5.8004 -1.6064,8.599 -0.40077,1.3698 -1.138,2.6206 -1.6064,3.9688 -0.95855,2.7587 -1.1052,5.8211 -2.4568,8.41 -1.3478,2.5815 -5.4806,6.8036 -5.4806,6.8036 0,0 -7.465,7.1816 -11.056,9.1659 -3.5908,1.9844 -4.5357,3.6853 -8.5045,3.6853 -3.9688,0 -10.678,0.94494 -13.135,-0.75595 -2.4568,-1.7009 -6.2366,-5.1027 -7.0871,-6.1421 -0.85045,-1.0394 -1.7954,-3.1183 -3.7798,-5.6696 -1.9844,-2.5513 -4.8192,-4.8192 -5.3862,-6.3311 -0.56696,-1.5119 -3.2128,-9.9219 -3.1183,-9.4494 0.09449,0.47247 -1.1339,-3.5908 -1.6064,-6.1421 -0.47247,-2.5513 -0.94494,-4.7247 -0.56696,-6.2366 0.37798,-1.5119 0.28348,-3.1183 0.28348,-3.1183 z"/><path id="path83" d="m 104.09,179.73 c 0,0 -1.1339,-0.0945 -0.56696,1.3702 0.56696,1.4646 1.4647,0.89769 2.6931,1.7009 1.2284,0.80321 1.8426,1.3229 2.4568,1.6536 0.61422,0.33073 3.449,-0.8977 3.449,-0.8977 l 0.89769,-1.2284 2.1734,-0.47247 c 0,0 0.75596,-2.5041 -0.56696,-3.1183 -1.32292,-0.6142 -3.0238,-1.6064 -3.0238,-1.6064 0,0 -3.7798,-0.33073 -5.5279,0.89769 -1.7481,1.22842 -1.9844,1.7009 -1.9844,1.7009 z"/><path id="path85" d="m 126.24,179.64 4.5357,8.3155 c 0,0 6.179,0.20371 8.2402,-1.6979 1.4812,-1.3665 1.3529,-3.9117 1.6922,-5.804 0.31511,-1.7574 0.27302,-5.3492 0.27302,-5.3492 l -0.34665,-7.834 -0.35297,-3.594 -8.118,5.8501 z"/></g></g><g id="g97" stroke-width="7.9"><circle style="paint-order:stroke markers fill" id="circle91" cx="123.57" cy="162.2" r=".638"/><ellipse style="paint-order:stroke markers fill" id="ellipse93" cx="125.24" cy="163.74" rx="1.169" ry="1.205"/><ellipse style="paint-order:stroke markers fill" id="ellipse95" cx="94.165" cy="163.39" rx="1.169" ry="1.205"/></g><g id="g133" stroke-width="7.9"><path id="path99" d="m 114.24,123.79 c 0,0 3.9688,-2.8348 4.0632,-4.4412 0.0944,-1.6064 1.7954,-3.3073 1.2284,-4.9137 -0.567,-1.6064 -1.4174,-6.1421 -1.4174,-6.1421 0,0 3.7798,4.9137 3.9688,6.3311 0.189,1.4174 2.1734,6.5201 1.4174,7.9375 -0.756,1.4174 0,2.7403 -4.8192,1.9844 -4.8192,-0.75595 -4.4412,-0.75595 -4.4412,-0.75595 z" filter="url(#filter4886)"/><path id="path101" d="m 76.573,157.75 c 0,0 -2.2718,-13.831 -1.2695,-16.303 1.0023,-2.4722 -0.13364,-4.2763 -0.13364,-4.2763 0,0 -0.86862,-0.60136 -1.3363,-1.0023 -0.46772,-0.4009 0.06682,-4.41 1.6036,-7.0158 1.5368,-2.6059 2.94,-3.9422 2.94,-3.9422 0,0 -0.06681,-4.744 -2.6727,-4.8777 -2.6059,-0.13363 -4.3431,-0.0668 -4.3431,-0.0668 0,0 0.66817,-2.3386 2.6727,-2.4054 2.0045,-0.0668 2.3386,-0.86863 2.3386,-0.86863 l -4.6104,-0.93544 c 0,0 -2.0713,0.13363 1.2027,-0.73499 3.274,-0.86863 5.6795,-4.8108 5.6795,-4.8108 0,0 4.2763,-0.80181 3.8086,-2.1382 -0.46772,-1.3364 -1.0691,-3.3409 0.66817,-3.8754 1.7373,-0.53454 1.8041,-0.66817 1.8041,-0.66817 0,0 9.2876,-0.86863 10.424,-2.6727 1.1359,-1.8041 7.0826,-1.6036 9.9558,-2.0045 2.8732,-0.4009 8.0849,6.214 10.424,5.1449 2.3386,-1.0691 3.8073,0.97291 3.8073,0.97291 0,0 -3.9688,-4.5357 0.94494,-2.5513 4.9137,1.9844 11.717,6.9926 12.946,8.8824 1.2284,1.8899 0.28347,3.6853 3.6853,3.8742 3.40183,0.1889 0.37798,-3.0238 2.0789,-3.3073 1.70092,-0.2835 2.5513,6.1421 3.3073,7.3705 0.75595,1.2284 7.465,0 3.2128,2.6458 -4.2522,2.6458 -7.087,6.0476 -4.0632,5.7641 3.0238,-0.28349 8.032,-1.6064 9.2604,-1.5119 1.2284,0.0945 -2.0789,0.94494 -4.7247,2.9293 -2.6458,1.9844 -3.4963,3.9688 -3.4963,3.9688 l 3.8743,3.5908 -3.9688,-0.18899 -1.3229,1.3229 c 0.66146,0.47247 1.3229,6.9926 0.18899,12.095 -1.13391,5.1024 -0.66146,7.1816 -0.66146,7.1816 l -1.5119,-10.111 c 0,0 -1.4174,-6.2366 -2.3624,-9.9219 -0.945,-3.6853 -4.7247,-7.0871 -8.032,-7.3705 -3.3073,-0.2834 -3.5908,-1.7009 -7.7485,-0.94494 -4.1577,0.75596 -2.8348,5.5752 -8.032,2.9293 -5.1972,-2.6458 -7.5595,-5.4807 -11.056,-4.0632 -3.4965,1.4175 -8.7879,3.9688 -9.5439,1.2284 -0.75595,-2.7403 -1.5119,-3.5908 -4.6302,-0.66146 -3.1183,2.9293 -7.3705,6.0476 -7.7485,10.3 l -0.37798,4.2522 c 0,0 -1.0394,-0.56696 -1.7954,2.2679 l -0.75595,2.8348" filter="url(#filter4886)"/><path id="path103" d="m 85.517,113.11 c 0,0 5.6031,0.95736 7.843,2.5513 2.1249,1.5122 4.7247,6.2366 4.7247,6.2366 0,0 2.3623,2.2678 1.5119,2.2678 -0.85044,0 -2.7403,1.3229 -2.7403,1.3229 z" filter="url(#filter4886)"/><path id="path105" d="m 112.64,118.22 c 0,0 0.39671,2.3802 0.59506,3.5703 0.21112,1.2667 0.63337,3.8002 0.63337,3.8002 l -2.6458,0.0945 c 0,0 -1.7954,-1.6064 -1.0394,-4.5357 0.75595,-2.9293 -7.465,-5.7641 -7.465,-5.7641 0,0 9.5439,1.2284 9.9219,2.8348 z" filter="url(#filter4886)"/><path id="path107" d="m 125.77,128.8 1.3229,-2.8348 2.2679,-3.4018 4.8192,-4.1577 2.3624,-3.0238 0.75595,0.37797 -2.1734,3.3073 -4.3467,3.6853 -3.6853,7.3233 c -0.44549,-0.42522 -3.2209,-0.85045 -1.3229,-1.2757 z" filter="url(#filter4886)"/><path id="path109" d="m 98.489,148.8 9.3544,0.93544 6.4145,-1.6036 c 0,0 0.25646,-2.5229 2.2443,-3.1594 1.091,-0.34936 3.0304,0.75663 4.972,1.0881 5.479,0.93545 7.4835,4.8777 4.1427,4.8777 -3.3409,0 -8.8199,1.8709 -8.8199,1.8709 l -6.4145,2.6727 c 0,0 -2.0045,-1.3363 -8.6863,-4.009 -6.6817,-2.6727 -3.2072,-2.6727 -3.2072,-2.6727 z"/><path id="path111" d="m 118.53,125.41 c -1.2027,0 -2.2718,3.2072 -2.2718,3.2072 l -1.0691,10.023 -3.5413,5.3454 11.426,3.0736 6.4145,2.4054 11.092,6.214 -0.46772,-4.0759 c 0,0 2.2718,-7.6172 -1.0691,-11.893 -3.3409,-4.2763 -2.205,-11.894 -9.5549,-13.631 -7.3499,-1.7372 -10.958,-0.66817 -10.958,-0.66817 z"/><path id="path113" d="m 93.945,131.69 -2.7795,6.9949 c 0,0 8.7795,-1.8699 11.977,2.354 3.1979,4.2239 8.3083,3.881 8.3083,3.881 l 5.3454,-9.0872 -0.74333,-4.3244 -4.2012,-1.6892 -13.898,-4.2763 z"/><path id="path115" d="m 76.84,146.79 c 0,0 3.2072,-7.3499 3.7418,-9.4881 0.53454,-2.1382 -1.7373,-7.8845 2.94,-9.6217 4.6773,-1.7372 11.76,-2.6727 15.234,-1.7372 3.4745,0.93544 -0.80181,5.2118 -3.0736,4.9445 -2.2718,-0.26727 -1.0691,1.0691 -3.2072,5.7463 -2.1382,4.6772 5.6127,12.294 2.94,12.428 C 92.7423,149.19544 76.84,146.79 76.84,146.79 Z"/><path id="path117" d="m 118.31,168.3 1.8899,1.6064 2.3624,1.7009 1.4174,0.94494 -5.2917,-4.3467 z"/><path id="path119" d="m 140.58,163.5 c 0,0 1.2048,2.1261 1.2284,2.7403 0.0236,0.61421 0.33073,3.5908 0.18899,4.0632 -0.14174,0.4724 0,1.8426 -0.0945,2.2206 -0.0945,0.37798 -0.4961,0.87407 -0.56697,0.99219 -0.0709,0.11812 -0.7087,0.11812 -0.7087,0.11812 l -0.4961,-5.3625 -0.7087,-3.9451 z"/><path id="path121" d="m 91.376,201.37 -1.6064,3.9688 2.0789,4.0632 8.1265,6.1421 5.6696,-1.1339 1.7954,-4.4412 0.0945,-5.0082 -8.9311,-5.9436 -1.4431,-1.3668 z"/><path id="path123" d="m 110.65,204.39 -0.0668,6.0136 2.205,3.8086 6.949,-0.80181 4.8777,-3.5413 2.4722,-3.7418 3.5231,-4.526 -4.3918,-2.2226 -4.2095,-0.60136 -11.025,5.5458 z"/><path id="path125" d="m 97.286,197.91 0.06682,0.0668 4.8777,2.6727 7.3499,1.2027 8.7531,-0.60136 2.6727,-1.5368 0.3341,-1.5368 -6.6817,0.13364 z"/><path id="path127" d="m 140.04,158.94 0.75595,-1.1103 c 0,0 0.94494,-0.18899 1.1576,0.21261 0.21266,0.4016 1.0394,1.0394 0.66146,2.0552 -0.37798,1.0158 -1.9844,3.4254 -2.1497,3.4254 -0.16536,0 -0.42522,-4.4885 -0.42522,-4.4885 z"/><path id="path129" d="m 96.885,198.01 c 0,0 3.675,0.0334 5.5458,0.43432 0.13639,0.054 7.0158,1.3364 9.0872,0.86862 2.0713,-0.46772 2.7395,-0.66817 2.7395,-0.66817 0,0 4.4768,0.20045 4.6772,-0.26727 0.2004,-0.46772 2.0045,0.4009 2.205,0.0668 0.20046,-0.33409 -0.66817,-0.86863 -1.6704,-1.3364 -1.00223,-0.46777 -5.2118,-1.8041 -6.0136,-1.6704 -0.8018,0.13363 -4.009,1.4032 -4.009,1.4032 0,0 -2.8063,-1.5368 -3.274,-1.5368 -0.4677,0 -8.6194,1.5368 -9.2876,2.3386 -0.66817,0.80181 1e-6,0.36751 1e-6,0.36751 z"/><path id="path131" d="m 115.39,203.32 -2.0713,1.0691 c 0,0 -7.8176,0.20045 -8.2185,-0.13364 -0.4009,-0.33408 -2.5391,-0.86862 -3.2072,-1.47 -0.66817,-0.60135 -4.4768,-3.2072 -4.4768,-3.2072 l -0.66818,-1.8041 1.9735,0.80516 5.911,0.86527 c 0,0 1.6036,1.0691 2.94,1.2027 1.3363,0.13364 4.2763,0 6.4145,-0.8018 2.1382,-0.80181 5.2786,-0.33409 6.2808,-0.735 1.0023,-0.4009 1.4032,-0.46772 1.4032,-0.46772 0,0 -1.3364,2.6059 -2.2718,2.6059 -0.93544,0 -4.009,2.0713 -4.009,2.0713 z"/></g></g><g id="g271" transform="translate(-0.6686,0.7378)"><g id="g143" stroke-width="0"><path id="path137" fill="#3440ff" d="m 101.43,190.23 -3.0736,7.2163 19.377,-0.13364 6.4145,1.8709 6.0136,2.0045 7.7508,-14.433 -20.713,-1.0691 -14.433,2.2718 z"/><path id="path139" fill="#33e438" d="m 90.336,183.51 8.41,-3.0238 10.654,8.0482 -7.1609,3.5639 -1.6036,6.1528 -7.276,6.7091 -3.997,-0.25071 -2.3341,-2.2061 0.56696,-15.97 z"/><path id="path141" fill="#d21b42" d="m 99.692,185.35 c 0,0 3.1404,2.205 3.675,1.8041 0.53454,-0.4009 1.4032,-0.13363 2.0713,0.60136 0.66817,0.73499 2.6059,2.5391 3.2072,2.7395 0.60136,0.20045 2.0713,0.26727 2.0713,0.26727 0,0 2.4722,-0.60136 2.5391,-1.1359 0.0668,-0.53454 2.3386,-0.8018 2.3386,-1.0691 0,-0.2673 4.009,-1.2695 3.9422,-1.8041 -0.0668,-0.53453 0.33409,-2.539 -0.26727,-2.6059 -0.3029,-0.0336 -4.7897,-0.12229 -9.8252,-0.75615 -5.4264,-0.68306 -10.547,0.36975 -9.7523,1.9589 z"/></g><path id="path145" fill="#515052" fill-opacity=".996" stroke-width="0" d="m 92.342,134.23 4.6772,-1.47 19.912,7.6172 -0.53454,5.0781 -6.2808,9.4881 -7.8844,3.8754 -12.094,-5.4122 0.20045,-0.60135 z"/><g id="g183" stroke-width="0"><path id="path147" fill="#ff312e" d="m 77.642,146.13 15.101,1.47 -2.6727,6.6817 -9.3544,4.8108 5.2488,3.6433 -0.43797,9.5866 -8.8199,-8.2854 -0.47487,-9.3513 z"/><path id="path149" fill="red" d="m 114.43,164.14 2.9293,10.3 1.7954,9.3549 v 1.2284 l 1.7009,2.3624 9.0714,0.94494 5.1027,-6.9926 4.2522,-10.961 1.4174,-6.8036 -0.28349,-7.276 -4.6302,-0.18899 z"/><path id="path151" fill="#de5000" d="m 104.57,163.63 -2.4722,12.695 v 5.2118 l 13.23,-0.80181 1.8709,-8.5526 -3.4745,-7.8844 z"/><path id="path153" fill="red" d="m 85.927,166.97 -1.7373,1.3364 0.26727,4.41 16.437,9.0872 3.6081,-8.0181 c 0,0 0.13363,3.6081 0,-0.93545 -0.13364,-4.5436 -0.26728,-11.493 -0.26728,-11.493 l 0.66818,-4.5436 -10.023,2.6727 z"/><path id="path155" fill="#d38d5f" d="m 115.06,160.96 -1.6036,3.2072 0.40091,6.949 0.66817,3.3409 1.47,4.9445 4.1427,2.1382 3.0736,-2.2718 -2.2718,-5.6127 -5.479,-6.6817 z"/><path id="path157" fill="#515052" d="m 98.957,181.74 2.4722,-4.6772 3.1189,-3.0878 c 0,0 -0.93909,2.7869 -0.87952,4.2237 0.0308,0.74273 0.63376,2.1382 0.63376,2.1382 l -0.26727,1.8041 z"/><path id="path159" fill="#e433e4" d="m 101.5,157.75 3.1404,7.8844 11.76,-0.26727 12.161,-6.949 12.161,-1.8709 -2.0045,-6.8154 -11.633,-2.444 -17.766,8.1903 z"/><path id="path161" fill="#f95" d="m 128.35,161.73 c 0.42299,0.18612 1.2152,0.3459 1.7395,0.59566 0.93979,0.44767 1.5441,1.1052 1.5441,1.1052 0,0 1.0867,1.1339 -0.51972,1.1339 -1.6064,0 -3.6026,0.81501 -3.6026,0.81501 0,0 0.64965,-2.1734 0.31893,-2.5041 -0.33073,-0.33072 -0.4961,-1.1221 -0.5906,-1.3111 z"/><path id="path163" fill="#f95" d="m 118.09,164.99 c -1.0394,0.99219 1.8662,0.11812 1.8662,0.11812 l 2.6695,0.28349 c 0,0 -0.4016,-3.5199 0.63783,-3.9924 1.0394,-0.47248 -5.2917,1.5355 -4.8664,2.7167 z"/><circle style="paint-order:stroke markers fill" id="circle165" cx="125.11" cy="163.67" r="2.929" fill="#000103"/><path id="path167" fill="#33e438" d="m 117.88,165.42 c 0,0 0.85045,-1.9844 1.8899,-2.4096 1.0394,-0.42522 2.8821,-1.6064 3.7325,-1.6064 0.8504,0 4.2995,0.0472 4.9609,0.51972 0.66146,0.47247 1.5119,0.23623 2.4096,0.94494 0.89769,0.7087 1.9844,1.7009 2.1734,1.7009 0.189,0 1.3229,-0.75595 1.0867,-1.2284 -0.23624,-0.47247 -3.26,-2.1261 -4.0632,-2.2679 -0.80319,-0.14174 -2.5986,-1.0867 -4.3467,-0.99219 -1.7481,0.0945 -3.449,-0.0472 -4.772,0.56697 -1.3229,0.61421 -2.3151,1.4174 -2.3624,1.7481 -0.0473,0.33072 -0.47247,0.23623 -0.99219,1.1339 -0.51972,0.89769 0.28348,2.1261 0.28348,2.1261 z"/><path id="path169" fill="#000103" d="m 123.95,168.11 -4.0759,-1.637 1.4366,0.23386 3.0068,1.0023 c 0,0 6.0804,0.20045 6.8822,-0.23386 0.8018,-0.43431 0.0334,0.13364 0.0334,0.13364 0,0 -4.8777,1.0691 -5.9468,0.83521 -1.0691,-0.23389 -1.3364,-0.33408 -1.3364,-0.33408 z"/><path id="path171" fill="#555152" d="m 117.88,165.42 c 0,0 2.0836,-0.6355 3.0858,-0.26795 0.47548,0.17434 1.0758,-0.006 1.5651,0.11018 0.54216,0.12926 1.8147,0.17588 2.1308,0.33391 0.60135,0.30068 2.5785,-0.0725 2.8792,-0.37322 0.30068,-0.30068 2.1145,-0.30641 2.4486,-0.50687 0.33408,-0.20045 1.8554,-0.56289 1.8888,-0.83017 0.0334,-0.26727 1.1507,0.64118 1.1507,0.64118 0,0 -1.1996,0.87911 -1.801,0.67866 -0.60136,-0.20045 -4.0775,1.2109 -4.9445,1.2361 -1.6836,0.0489 -4.5102,0.40091 -5.0113,0 -0.50113,-0.4009 -0.75045,-0.515 -2.0713,-0.7684 l -1.3209,-0.25339 z"/><path id="path173" fill="#000103" d="m 115.99,158.05 c 0.47247,-0.7087 3.9688,-3.0711 6.0949,-3.4018 2.1261,-0.33073 8.599,-2.6458 10.678,-1.3229 l 2.0789,1.3229 c 0,0 2.8821,1.4174 3.26,1.8426 0.3779,0.4252 1.5592,1.5119 1.3702,1.5592 -0.18899,0.0472 -1.0394,-0.42522 -2.3151,-0.47247 -1.2757,-0.0472 -0.70871,0.33073 -1.2757,-0.0472 -0.56697,-0.37797 -6.0004,-0.0472 -7.654,-0.47247 -1.6536,-0.42522 -5.0082,-0.23623 -5.8586,0.18899 -0.85044,0.42522 -4.4412,0.8977 -4.4885,1.0867 -0.0472,0.18899 -1.8899,-0.28348 -1.8899,-0.28348 z"/><path id="path175" fill="#f95" d="m 363.66,626.68 c 4.4394,-0.67698 9.5957,-2.1699 9.5957,-2.1699 0,0 4.5459,-2.1465 5.8086,-2.1465 1.2627,0 -1.3903,-2.6508 -2.7793,-4.166 -1.389,-1.5152 -5.4284,-4.1672 -8.0801,-6.1875 -0.6961,-0.53036 -1.841,-0.94152 -3.2285,-1.2539 a 11.071,11.071 0 0 1 0.38867,0.44335 11.071,11.071 0 0 1 0.64453,0.9004 11.071,11.071 0 0 1 0.55078,0.96093 11.071,11.071 0 0 1 0.45117,1.0098 11.071,11.071 0 0 1 0.34961,1.0508 11.071,11.071 0 0 1 0.24219,1.0801 11.071,11.071 0 0 1 0.13281,1.0976 11.071,11.071 0 0 1 0.0293,0.78321 11.071,11.071 0 0 1 -0.0566,1.1055 11.071,11.071 0 0 1 -0.16406,1.0938 11.071,11.071 0 0 1 -0.2754,1.0723 11.071,11.071 0 0 1 -0.3789,1.0391 11.071,11.071 0 0 1 -0.48047,0.99805 11.071,11.071 0 0 1 -0.57813,0.94336 11.071,11.071 0 0 1 -0.66992,0.88086 11.071,11.071 0 0 1 -0.75586,0.80859 11.071,11.071 0 0 1 -0.74609,0.65625 z" transform="scale(0.26458)"/><path id="path177" fill="#f95" d="m 347.59,611.78 c -4.59,1.3357 -7.1559,2.7898 -11.719,4.2754 -5.4296,1.7678 -10.48,4.1672 -10.48,4.1672 0,0 12.753,3.7878 19.824,5.9344 1.8142,0.55073 3.5741,0.89239 5.2715,1.0996 -0.0176,-0.011 -0.0352,-0.0221 -0.0527,-0.0332 -0.30456,-0.20785 -0.59855,-0.43078 -0.88086,-0.66797 -0.28196,-0.23831 -0.55183,-0.49058 -0.80859,-0.75586 -0.25716,-0.26435 -0.50096,-0.54139 -0.73047,-0.83008 -0.22973,-0.28919 -0.44484,-0.5897 -0.64453,-0.90039 -0.19951,-0.31092 -0.38333,-0.63164 -0.55078,-0.96094 -0.16712,-0.32886 -0.3177,-0.66587 -0.45118,-1.0098 -0.13399,-0.34421 -0.25067,-0.69491 -0.34961,-1.0508 -0.0987,-0.35576 -0.17951,-0.71624 -0.24218,-1.0801 -0.0625,-0.36345 -0.10686,-0.72979 -0.13282,-1.0977 -0.019,-0.26064 -0.0288,-0.52187 -0.0293,-0.7832 4.4e-4,-0.3692 0.0193,-0.73815 0.0566,-1.1055 0.0364,-0.36709 0.0912,-0.73213 0.16406,-1.0938 0.0739,-0.36179 0.16577,-0.71966 0.27539,-1.0723 0.10891,-0.35245 0.23538,-0.69924 0.37891,-1.0391 0.1434,-0.34049 0.30376,-0.67359 0.48047,-0.99805 0.1775,-0.32393 0.3711,-0.63878 0.58007,-0.94336 0.0136,-0.0183 0.0273,-0.0365 0.041,-0.0547 z" transform="scale(0.26458)"/><path id="path179" fill="#33e438" d="m 79.611,159.65 c 4.3467,3.6853 4.5357,3.4963 4.5357,3.4963 l 3.5435,-1.7481 6.8981,-1.1812 7.0398,2.7876 2.0316,-1.7009 0.89769,-2.1261 -3.3073,-1.9371 -7.7478,-1.0487 -6.8988,0.009 -3.8743,0.51972 -2.2377,0.66399 -0.59709,1.3204 c 0,0 0.14174,0.85045 -0.04725,0.89769 -0.18899,0.0472 -0.23623,0.0472 -0.23623,0.0472 z"/><path id="path181" fill="#000103" d="m 347.59,611.78 a 11.071,11.071 0 0 0 -0.041,0.0547 11.071,11.071 0 0 0 -0.58007,0.94336 11.071,11.071 0 0 0 -0.48047,0.99805 11.071,11.071 0 0 0 -0.37891,1.0391 11.071,11.071 0 0 0 -0.27539,1.0723 11.071,11.071 0 0 0 -0.16406,1.0938 11.071,11.071 0 0 0 -0.0566,1.1055 11.071,11.071 0 0 0 0.0293,0.7832 11.071,11.071 0 0 0 0.13282,1.0977 11.071,11.071 0 0 0 0.24218,1.0801 11.071,11.071 0 0 0 0.34961,1.0508 11.071,11.071 0 0 0 0.45118,1.0098 11.071,11.071 0 0 0 0.55078,0.96094 11.071,11.071 0 0 0 0.64453,0.90039 11.071,11.071 0 0 0 0.73047,0.83008 11.071,11.071 0 0 0 0.80859,0.75586 11.071,11.071 0 0 0 0.88086,0.66797 11.071,11.071 0 0 0 0.0527,0.0332 c 4.9185,0.60047 9.2807,6.1e-4 12.66,-0.46875 0.17028,-0.0236 0.33309,-0.0772 0.50586,-0.10352 a 11.071,11.071 0 0 0 0.74609,-0.65625 11.071,11.071 0 0 0 0.75586,-0.80859 11.071,11.071 0 0 0 0.66992,-0.88086 11.071,11.071 0 0 0 0.57813,-0.94336 11.071,11.071 0 0 0 0.48047,-0.99805 11.071,11.071 0 0 0 0.3789,-1.0391 11.071,11.071 0 0 0 0.2754,-1.0723 11.071,11.071 0 0 0 0.16406,-1.0938 11.071,11.071 0 0 0 0.0566,-1.1055 11.071,11.071 0 0 0 -0.0293,-0.78321 11.071,11.071 0 0 0 -0.13281,-1.0976 11.071,11.071 0 0 0 -0.24219,-1.0801 11.071,11.071 0 0 0 -0.34961,-1.0508 11.071,11.071 0 0 0 -0.45117,-1.0098 11.071,11.071 0 0 0 -0.55078,-0.96093 11.071,11.071 0 0 0 -0.64453,-0.9004 11.071,11.071 0 0 0 -0.38867,-0.44335 c -3.8981,-0.87757 -9.9265,-0.87331 -14.955,0.24414 -1.0884,0.24187 -1.552,0.52167 -2.4238,0.77539 z" transform="scale(0.26458)"/></g><path id="path185" fill="none" stroke="#000" stroke-width=".265" d="m 77.202,148.08 -0.62892,9.6752"/><g id="g195" stroke-width="0"><path id="path187" fill="#000103" d="m 101.53,157.48 c -0.51971,-0.37798 -1.9371,-2.7403 -1.9371,-2.7403 0,0 -6.5673,-1.4174 -9.9219,-1.5119 -3.3545,-0.0945 -6.0476,0.37797 -7.6068,1.1812 -1.5592,0.8032 -2.5513,2.2679 -2.5513,2.2679 0,0 0.14174,2.1261 -0.04725,2.9766 -0.18899,0.85045 1.5119,-2.0316 1.5119,-2.0316 0,0 4.8192,-1.7481 5.8114,-0.70871 0.99219,1.0394 5.2444,-0.51972 6.0476,0.14174 0.8032,0.66146 5.2917,0.42523 5.2917,0.42523 z"/><path id="path189" fill="#515052" fill-opacity=".918" d="m 84.658,163.47 c 0,0 0.33409,-1.7372 1.637,-2.1048 1.3029,-0.36749 7.7508,-1.3364 8.6863,-1.1693 0.93544,0.16704 0.56795,-0.33409 2.5725,0.33409 2.0045,0.66817 3.0858,1.8554 3.4198,2.1226 0.20333,0.16266 -0.046,1.5997 -0.62222,1.4526 -0.37057,-0.0946 -1.0426,-1.745 -1.2649,-1.8234 -0.56795,-0.20045 -1.8668,-1.7518 -2.6018,-1.685 -0.73499,0.0668 -3.4239,0.002 -3.7914,0.10261 -0.3675,0.10022 -3.7256,0.86625 -4.2267,1.1669 -0.50113,0.30068 -1.7707,0.63477 -2.4054,0.86863 -0.63476,0.23386 -1.4032,0.73499 -1.4032,0.73499 z"/><path id="path191" fill="#de5000" d="m 85.025,163.6 c 0,0 1.5368,-1.5368 3.2741,-1.9043 1.7373,-0.3675 3.1738,-1.5368 3.9088,-0.93544 1.0023,-0.0668 3.3743,-0.43432 4.5102,-0.16704 1.1359,0.26726 2.3052,1.47 2.8397,2.0379 0.53454,0.56795 0.85883,2.0167 0.85883,2.0167 0,0 -0.95906,-1.1481 -1.3934,-1.3485 -0.43431,-0.20045 -2.0045,-1.5368 -3.6415,-1.5702 -1.637,-0.0334 -2.6727,-0.10022 -3.3409,0.13364 -0.66817,0.23386 -2.486,1.0481 -3.5079,1.3363 -1.3029,0.3675 -1.4032,0.73499 -2.0379,0.90203 -0.50113,0.43432 -1.47,-0.50112 -1.47,-0.50112 z"/><path id="path193" fill="#515052" fill-opacity=".918" d="m 86.666,164.07 c 0,0 3.8365,1.3506 5.2067,1.4451 1.3702,0.0945 3.3775,0.65671 4.9366,0.23149 1.5592,-0.42523 3.638,-1.2284 3.638,-1.2284 l 0.56697,0.56697 c 0,0 -1.6064,1.0867 -3.3073,2.0316 -1.7009,0.94494 -4.5357,2.1734 -5.9531,2.1261 -1.4174,-0.0472 -5.1452,0.0749 -5.7594,0.0749 -0.61421,0 -0.72017,-1.8231 -0.62567,-3.4767 0.09449,-1.6536 0.22812,-1.9715 0.22812,-1.9715 z"/></g><g id="g207" stroke-width="0"><path id="path197" fill="#ff312e" d="m 117.13,163.97 -1.8041,-4.2763 5.3454,-2.4054 c 0,0 6.5481,-1.0691 7.6172,-0.46772 1.0691,0.60138 7.2831,0.60136 7.2831,0.60136 l 3.8086,0.4009 -1.6704,4.2095 -2.6059,1.7372 c 0,0 -7.2831,-4.5436 -11.092,-3.5413 -3.8089,1.0023 -6.214,2.5391 -6.8822,3.7418 z"/><path id="path199" fill="#de5000" d="m 76.974,159.36 -0.45102,-1.3698 c 0,0 -1.0858,-0.26726 -1.5201,0.23386 -0.43431,0.50114 -0.95215,1.0691 -0.80181,1.5368 0.15034,0.46773 0.60136,1.4366 0.95215,1.8876 0.35079,0.45101 0.35079,0.55124 0.93544,1.3698 0.58465,0.81852 0.35079,1.4199 0.60136,1.7206 0.25056,0.30068 0.65147,-0.33409 0.48443,-1.2027 -0.16704,-0.86863 -0.23386,-2.2718 -0.15034,-2.4555 0.08352,-0.18375 -0.05011,-1.7206 -0.05011,-1.7206 z"/><path id="path201" fill="#ff0" d="m 76.918,163.57 -1.7009,10.394 2.4568,9.2604 8.344,9.8519 14.241,-10.677 1.3,-5.5928 -11.601,-3.0319 -7.7485,-4.5357 z"/><path id="path203" fill="#33e438" d="m 75.194,162.09 c 0,0 0.3071,1.63 0.3071,2.2442 0,0.61422 -0.47247,4.016 -0.47247,4.4412 0,0.42522 -0.23624,1.7481 -0.11812,2.2678 0.11812,0.5197 0.09449,2.008 0.25986,2.5041 0.16536,0.4961 0.89769,1.9135 1.2757,1.9135 0.37801,0 0.30711,-1.252 0.30711,-1.4883 v -1.1339 c 0,-1.0394 0.07087,-4.0869 0.07087,-4.0869 v -1.8899 l 0.11812,-0.87407 -0.21261,-1.1103 -0.49609,-1.5828 -0.92132,-1.1339 z"/><path id="path205" fill="#fffffa" d="m 107.22,160.84 -0.58318,12.551 0.26727,5.7463 2.5782,-1.8575 0.29297,-18.323 z"/></g><g id="g219" stroke-width="0"><path id="path209" fill="#515052" fill-opacity=".918" d="m 114.34,173.75 c 0,0 1.4093,5.8274 0.67431,6.5624 -0.73499,0.735 4.0401,1.0786 4.441,1.8136 0.4009,0.73499 -0.31788,-4.9783 -1.3201,-5.3124 -1.0023,-0.33409 -3.7952,-3.0635 -3.7952,-3.0635 z"/><path id="path211" fill="#ff312e" d="m 98.689,181.81 c 0,0 -1.1912,0.96509 -0.18899,2.836 1.0023,1.8709 1.8223,-0.54682 3.1586,-0.68045 1.3363,-0.13364 5.5257,1.6388 5.8598,2.9752 0.33409,1.3364 0.75792,0.97656 2.0943,1.2438 1.3363,0.26727 2.5754,-0.82949 2.8427,-1.364 0.2673,-0.53451 1.2715,-2.8597 2.8751,-2.5924 1.1034,1.6677 2.1059,-0.61361 3.8791,1.6231 0.84829,1.07 1.3685,-3.5466 0.52219,-4.2025 -0.86863,-0.53455 -5.1402,-1.1082 -5.942,-0.97458 -0.56651,0.0944 -8.5699,-0.22283 -12.777,0.45651 -0.79662,0.12863 -2.3235,0.67938 -2.3235,0.67938 z"/><path id="path213" fill="#515052" fill-opacity=".98" d="m 76.729,174.25 0.75595,5.6696 1.9844,5.2917 6.6146,5.7641 c 0,0 -0.66146,-1.1339 1.3229,1.3229 1.9844,2.4568 2.0789,8.6934 2.0789,8.6934 l 0.66146,3.5908 c 0,0 0.85044,0.94494 2.2679,4.1577 1.4174,3.2128 6.4256,4.9137 9.4494,5.1027 3.0238,0.18898 5.2917,-3.8743 4.5357,-5.5752 -0.75596,-1.7009 0.35505,-4.1368 0.35505,-4.1368 l 4.5033,0.11071 c 0,0 -0.79509,1.6637 -0.32262,3.6481 0.47247,1.9844 1.5119,5.3862 2.0789,5.4807 0.567,0.0945 4.0632,0.18898 5.1027,-0.37798 1.0394,-0.56696 5.3862,-1.8899 6.8036,-4.8192 1.4174,-2.9293 5.9531,-5.7641 5.7641,-9.1659 -0.18899,-3.4018 -0.56697,-5.2917 -0.56697,-5.2917 0,0 9.0714,-7.1816 9.0714,-8.7879 0,-1.6064 2.0789,-7.9375 1.4174,-8.599 -0.6615,-0.6615 0.85045,-2.7403 0.85045,-3.3073 0,-0.56697 0.37797,4.4412 0.37797,4.4412 0,0 -0.78757,5.8004 -1.6064,8.599 -0.40077,1.3698 -1.138,2.6206 -1.6064,3.9688 -0.95855,2.7587 -1.1052,5.8211 -2.4568,8.41 -1.3478,2.5815 -5.4806,6.8036 -5.4806,6.8036 0,0 -7.465,7.1816 -11.056,9.1659 -3.5908,1.9844 -4.5357,3.6853 -8.5045,3.6853 -3.9688,0 -10.678,0.94494 -13.135,-0.75595 -2.4568,-1.7009 -6.2366,-5.1027 -7.0871,-6.1421 -0.85045,-1.0394 -1.7954,-3.1183 -3.7798,-5.6696 -1.9844,-2.5513 -4.8192,-4.8192 -5.3862,-6.3311 -0.56696,-1.5119 -3.2128,-9.9219 -3.1183,-9.4494 0.09449,0.47247 -1.1339,-3.5908 -1.6064,-6.1421 -0.47247,-2.5513 -0.94494,-4.7247 -0.56696,-6.2366 0.37798,-1.5119 0.28348,-3.1183 0.28348,-3.1183 z"/><path id="path215" fill="#f95" d="m 104.09,179.73 c 0,0 -1.1339,-0.0945 -0.56696,1.3702 0.56696,1.4646 1.4647,0.89769 2.6931,1.7009 1.2284,0.80321 1.8426,1.3229 2.4568,1.6536 0.61422,0.33073 3.449,-0.8977 3.449,-0.8977 l 0.89769,-1.2284 2.1734,-0.47247 c 0,0 0.75596,-2.5041 -0.56696,-3.1183 -1.32292,-0.6142 -3.0238,-1.6064 -3.0238,-1.6064 0,0 -3.7798,-0.33073 -5.5279,0.89769 -1.7481,1.22842 -1.9844,1.7009 -1.9844,1.7009 z"/><path id="path217" fill="#33e438" d="m 126.24,179.64 4.5357,8.3155 c 0,0 6.179,0.20371 8.2402,-1.6979 1.4812,-1.3665 1.3529,-3.9117 1.6922,-5.804 0.31511,-1.7574 0.27302,-5.3492 0.27302,-5.3492 l -0.34665,-7.834 -0.35297,-3.594 -8.118,5.8501 z"/></g><g id="g227" fill="#fffffa" stroke-width="0"><circle style="paint-order:stroke markers fill" id="circle221" cx="123.57" cy="162.2" r=".638"/><ellipse style="paint-order:stroke markers fill" id="ellipse223" cx="125.24" cy="163.74" rx="1.169" ry="1.205"/><ellipse style="paint-order:stroke markers fill" id="ellipse225" cx="94.165" cy="163.39" rx="1.169" ry="1.205"/></g><g id="g249"><path id="path229" fill="#000301" stroke="#000" stroke-width=".265" d="m 114.24,123.79 c 0,0 3.9688,-2.8348 4.0632,-4.4412 0.0944,-1.6064 1.7954,-3.3073 1.2284,-4.9137 -0.567,-1.6064 -1.4174,-6.1421 -1.4174,-6.1421 0,0 3.7798,4.9137 3.9688,6.3311 0.189,1.4174 2.1734,6.5201 1.4174,7.9375 -0.756,1.4174 0,2.7403 -4.8192,1.9844 -4.8192,-0.75595 -4.4412,-0.75595 -4.4412,-0.75595 z" filter="url(#filter4886)"/><path id="path231" fill="#000103" stroke="#000" stroke-width=".265" d="m 76.573,157.75 c 0,0 -2.2718,-13.831 -1.2695,-16.303 1.0023,-2.4722 -0.13364,-4.2763 -0.13364,-4.2763 0,0 -0.86862,-0.60136 -1.3363,-1.0023 -0.46772,-0.4009 0.06682,-4.41 1.6036,-7.0158 1.5368,-2.6059 2.94,-3.9422 2.94,-3.9422 0,0 -0.06681,-4.744 -2.6727,-4.8777 -2.6059,-0.13363 -4.3431,-0.0668 -4.3431,-0.0668 0,0 0.66817,-2.3386 2.6727,-2.4054 2.0045,-0.0668 2.3386,-0.86863 2.3386,-0.86863 l -4.6104,-0.93544 c 0,0 -2.0713,0.13363 1.2027,-0.73499 3.274,-0.86863 5.6795,-4.8108 5.6795,-4.8108 0,0 4.2763,-0.80181 3.8086,-2.1382 -0.46772,-1.3364 -1.0691,-3.3409 0.66817,-3.8754 1.7373,-0.53454 1.8041,-0.66817 1.8041,-0.66817 0,0 9.2876,-0.86863 10.424,-2.6727 1.1359,-1.8041 7.0826,-1.6036 9.9558,-2.0045 2.8732,-0.4009 8.0849,6.214 10.424,5.1449 2.3386,-1.0691 3.8073,0.97291 3.8073,0.97291 0,0 -3.9688,-4.5357 0.94494,-2.5513 4.9137,1.9844 11.717,6.9926 12.946,8.8824 1.2284,1.8899 0.28347,3.6853 3.6853,3.8742 3.40183,0.1889 0.37798,-3.0238 2.0789,-3.3073 1.70092,-0.2835 2.5513,6.1421 3.3073,7.3705 0.75595,1.2284 7.465,0 3.2128,2.6458 -4.2522,2.6458 -7.087,6.0476 -4.0632,5.7641 3.0238,-0.28349 8.032,-1.6064 9.2604,-1.5119 1.2284,0.0945 -2.0789,0.94494 -4.7247,2.9293 -2.6458,1.9844 -3.4963,3.9688 -3.4963,3.9688 l 3.8743,3.5908 -3.9688,-0.18899 -1.3229,1.3229 c 0.66146,0.47247 1.3229,6.9926 0.18899,12.095 -1.13391,5.1024 -0.66146,7.1816 -0.66146,7.1816 l -1.5119,-10.111 c 0,0 -1.4174,-6.2366 -2.3624,-9.9219 -0.945,-3.6853 -4.7247,-7.0871 -8.032,-7.3705 -3.3073,-0.2834 -3.5908,-1.7009 -7.7485,-0.94494 -4.1577,0.75596 -2.8348,5.5752 -8.032,2.9293 -5.1972,-2.6458 -7.5595,-5.4807 -11.056,-4.0632 -3.4965,1.4175 -8.7879,3.9688 -9.5439,1.2284 -0.75595,-2.7403 -1.5119,-3.5908 -4.6302,-0.66146 -3.1183,2.9293 -7.3705,6.0476 -7.7485,10.3 l -0.37798,4.2522 c 0,0 -1.0394,-0.56696 -1.7954,2.2679 l -0.75595,2.8348" filter="url(#filter4886)"/><path id="path233" fill="#ff312e" d="m 85.517,113.11 c 0,0 5.6031,0.95736 7.843,2.5513 2.1249,1.5122 4.7247,6.2366 4.7247,6.2366 0,0 2.3623,2.2678 1.5119,2.2678 -0.85044,0 -2.7403,1.3229 -2.7403,1.3229 z" filter="url(#filter4886)"/><path id="path235" fill="#ff0" d="m 112.64,118.22 c 0,0 0.39671,2.3802 0.59506,3.5703 0.21112,1.2667 0.63337,3.8002 0.63337,3.8002 l -2.6458,0.0945 c 0,0 -1.7954,-1.6064 -1.0394,-4.5357 0.75595,-2.9293 -7.465,-5.7641 -7.465,-5.7641 0,0 9.5439,1.2284 9.9219,2.8348 z" filter="url(#filter4886)"/><path id="path237" fill="#504f51" d="m 125.77,128.8 1.3229,-2.8348 2.2679,-3.4018 4.8192,-4.1577 2.3624,-3.0238 0.75595,0.37797 -2.1734,3.3073 -4.3467,3.6853 -3.6853,7.3233 c -0.44549,-0.42522 -3.2209,-0.85045 -1.3229,-1.2757 z" filter="url(#filter4886)"/><g id="g247" stroke-width="0"><path id="path239" fill="#fffffa" d="m 98.489,148.8 9.3544,0.93544 6.4145,-1.6036 c 0,0 0.25646,-2.5229 2.2443,-3.1594 1.091,-0.34936 3.0304,0.75663 4.972,1.0881 5.479,0.93545 7.4835,4.8777 4.1427,4.8777 -3.3409,0 -8.8199,1.8709 -8.8199,1.8709 l -6.4145,2.6727 c 0,0 -2.0045,-1.3363 -8.6863,-4.009 -6.6817,-2.6727 -3.2072,-2.6727 -3.2072,-2.6727 z"/><path id="path241" fill="#ff312e" d="m 118.53,125.41 c -1.2027,0 -2.2718,3.2072 -2.2718,3.2072 l -1.0691,10.023 -3.5413,5.3454 11.426,3.0736 6.4145,2.4054 11.092,6.214 -0.46772,-4.0759 c 0,0 2.2718,-7.6172 -1.0691,-11.893 -3.3409,-4.2763 -2.205,-11.894 -9.5549,-13.631 -7.3499,-1.7372 -10.958,-0.66817 -10.958,-0.66817 z"/><path id="path243" fill="#ff0" d="m 93.945,131.69 -2.7795,6.9949 c 0,0 8.7795,-1.8699 11.977,2.354 3.1979,4.2239 8.3083,3.881 8.3083,3.881 l 5.3454,-9.0872 -0.74333,-4.3244 -4.2012,-1.6892 -13.898,-4.2763 z"/><path id="path245" fill="#33e438" d="m 76.84,146.79 c 0,0 3.2072,-7.3499 3.7418,-9.4881 0.53454,-2.1382 -1.7373,-7.8845 2.94,-9.6217 4.6773,-1.7372 11.76,-2.6727 15.234,-1.7372 3.4745,0.93544 -0.80181,5.2118 -3.0736,4.9445 -2.2718,-0.26727 -1.0691,1.0691 -3.2072,5.7463 -2.1382,4.6772 5.6127,12.294 2.94,12.428 C 92.7423,149.19544 76.84,146.79 76.84,146.79 Z"/></g></g><path id="path251" fill="none" stroke="#000" stroke-width=".265" d="m 118.31,168.3 1.8899,1.6064 2.3624,1.7009 1.4174,0.94494 -5.2917,-4.3467 z"/><g id="g269"><path id="path253" fill="#000103" stroke="#000" stroke-width=".265" d="m 140.58,163.5 c 0,0 1.2048,2.1261 1.2284,2.7403 0.0236,0.61421 0.33073,3.5908 0.18899,4.0632 -0.14174,0.4724 0,1.8426 -0.0945,2.2206 -0.0945,0.37798 -0.4961,0.87407 -0.56697,0.99219 -0.0709,0.11812 -0.7087,0.11812 -0.7087,0.11812 l -0.4961,-5.3625 -0.7087,-3.9451 z"/><g id="g267" stroke-width="0"><path id="path255" fill="#f95" d="m 91.376,201.37 -1.6064,3.9688 2.0789,4.0632 8.1265,6.1421 5.6696,-1.1339 1.7954,-4.4412 0.0945,-5.0082 -8.9311,-5.9436 -1.4431,-1.3668 z"/><path id="path257" fill="#33e438" d="m 110.65,204.39 -0.0668,6.0136 2.205,3.8086 6.949,-0.80181 4.8777,-3.5413 2.4722,-3.7418 3.5231,-4.526 -4.3918,-2.2226 -4.2095,-0.60136 -11.025,5.5458 z"/><path id="path259" fill="#070102" d="m 97.286,197.91 0.06682,0.0668 4.8777,2.6727 7.3499,1.2027 8.7531,-0.60136 2.6727,-1.5368 0.3341,-1.5368 -6.6817,0.13364 z"/><path id="path261" fill="#33e438" d="m 140.04,158.94 0.75595,-1.1103 c 0,0 0.94494,-0.18899 1.1576,0.21261 0.21266,0.4016 1.0394,1.0394 0.66146,2.0552 -0.37798,1.0158 -1.9844,3.4254 -2.1497,3.4254 -0.16536,0 -0.42522,-4.4885 -0.42522,-4.4885 z"/><path id="path263" fill="#ff345f" d="m 96.885,198.01 c 0,0 3.675,0.0334 5.5458,0.43432 0.13639,0.054 7.0158,1.3364 9.0872,0.86862 2.0713,-0.46772 2.7395,-0.66817 2.7395,-0.66817 0,0 4.4768,0.20045 4.6772,-0.26727 0.2004,-0.46772 2.0045,0.4009 2.205,0.0668 0.20046,-0.33409 -0.66817,-0.86863 -1.6704,-1.3364 -1.00223,-0.46777 -5.2118,-1.8041 -6.0136,-1.6704 -0.8018,0.13363 -4.009,1.4032 -4.009,1.4032 0,0 -2.8063,-1.5368 -3.274,-1.5368 -0.4677,0 -8.6194,1.5368 -9.2876,2.3386 -0.66817,0.80181 1e-6,0.36751 1e-6,0.36751 z"/><path id="path265" fill="#d21b42" d="m 115.39,203.32 -2.0713,1.0691 c 0,0 -7.8176,0.20045 -8.2185,-0.13364 -0.4009,-0.33408 -2.5391,-0.86862 -3.2072,-1.47 -0.66817,-0.60135 -4.4768,-3.2072 -4.4768,-3.2072 l -0.66818,-1.8041 1.9735,0.80516 5.911,0.86527 c 0,0 1.6036,1.0691 2.94,1.2027 1.3363,0.13364 4.2763,0 6.4145,-0.8018 2.1382,-0.80181 5.2786,-0.33409 6.2808,-0.735 1.0023,-0.4009 1.4032,-0.46772 1.4032,-0.46772 0,0 -1.3364,2.6059 -2.2718,2.6059 -0.93544,0 -4.009,2.0713 -4.009,2.0713 z"/></g></g></g></g></g></g></svg>