<?xml version="1.0" encoding="UTF-8" standalone="no"?>
<!-- Created with Inkscape (http://www.inkscape.org/) -->

<svg
   width="189.9mm"
   height="222.33mm"
   enable-background="new"
   version="1.1"
   viewBox="0 0 189.9 222.33"
   id="svg275"
   sodipodi:docname="kishansvgOP.svg"
   inkscape:version="1.1 (c68e22c387, 2021-05-23)"
   xmlns:inkscape="http://www.inkscape.org/namespaces/inkscape"
   xmlns:sodipodi="http://sodipodi.sourceforge.net/DTD/sodipodi-0.dtd"
   xmlns="http://www.w3.org/2000/svg"
   xmlns:svg="http://www.w3.org/2000/svg"
   xmlns:rdf="http://www.w3.org/1999/02/22-rdf-syntax-ns#"
   xmlns:cc="http://creativecommons.org/ns#"
   xmlns:dc="http://purl.org/dc/elements/1.1/">
  <sodipodi:namedview
     id="namedview277"
     pagecolor="#505050"
     bordercolor="#eeeeee"
     borderopacity="1"
     inkscape:pageshadow="0"
     inkscape:pageopacity="0"
     inkscape:pagecheckerboard="0"
     inkscape:document-units="mm"
     showgrid="false"
     inkscape:zoom="0.31952784"
     inkscape:cx="496.04442"
     inkscape:cy="450.66496"
     inkscape:window-width="1366"
     inkscape:window-height="705"
     inkscape:window-x="-8"
     inkscape:window-y="-8"
     inkscape:window-maximized="1"
     inkscape:current-layer="g273" />
  <defs
     id="defs5">
    <filter
       id="filter4886"
       x="-0.75031679"
       y="-0.47145393"
       width="2.2215557"
       height="1.9165337"
       color-interpolation-filters="sRGB">
      <feBlend
         in2="BackgroundImage"
         id="feBlend2" />
    </filter>
  </defs>
  <metadata
     id="metadata7">
    <rdf:RDF>
      <cc:Work
         rdf:about="">
        <dc:format>image/svg+xml</dc:format>
        <dc:type
           rdf:resource="http://purl.org/dc/dcmitype/StillImage" />
      </cc:Work>
    </rdf:RDF>
  </metadata>
  <g
     transform="translate(-1.9073765,-57.379955)"
     id="g273">
    <g
       fill="#d4aa00"
       stroke="#d4aa00"
       stroke-width="7.9"
       id="g135">
      <g
         stroke-width="7.9"
         id="g35">
        <path
           d="m 101.43,190.23 -3.0736,7.2163 19.377,-0.13364 6.4145,1.8709 6.0136,2.0045 7.7508,-14.433 -20.713,-1.0691 -14.433,2.2718 z"
           id="path9" />
        <path
           d="m 90.336,183.51 8.41,-3.0238 10.654,8.0482 -7.1609,3.5639 -1.6036,6.1528 -7.276,6.7091 -3.997,-0.25071 -2.3341,-2.2061 0.56696,-15.97 z"
           id="path11" />
        <path
           d="m 99.692,185.35 c 0,0 3.1404,2.205 3.675,1.8041 0.53454,-0.4009 1.4032,-0.13363 2.0713,0.60136 0.66817,0.73499 2.6059,2.5391 3.2072,2.7395 0.60136,0.20045 2.0713,0.26727 2.0713,0.26727 0,0 2.4722,-0.60136 2.5391,-1.1359 0.0668,-0.53454 2.3386,-0.8018 2.3386,-1.0691 0,-0.2673 4.009,-1.2695 3.9422,-1.8041 -0.0668,-0.53453 0.33409,-2.539 -0.26727,-2.6059 -0.3029,-0.0336 -4.7897,-0.12229 -9.8252,-0.75615 -5.4264,-0.68306 -10.547,0.36975 -9.7523,1.9589 z"
           id="path13" />
        <path
           d="m 92.342,134.23 4.6772,-1.47 19.912,7.6172 -0.53454,5.0781 -6.2808,9.4881 -7.8844,3.8754 -12.094,-5.4122 0.20045,-0.60135 z"
           id="path15" />
        <path
           d="m 77.642,146.13 15.101,1.47 -2.6727,6.6817 -9.3544,4.8108 5.2488,3.6433 -0.43797,9.5866 -8.8199,-8.2854 -0.47487,-9.3513 z"
           id="path17" />
        <path
           d="m 114.43,164.14 2.9293,10.3 1.7954,9.3549 v 1.2284 l 1.7009,2.3624 9.0714,0.94494 5.1027,-6.9926 4.2522,-10.961 1.4174,-6.8036 -0.28349,-7.276 -4.6302,-0.18899 z"
           id="path19" />
        <path
           d="m 104.57,163.63 -2.4722,12.695 v 5.2118 l 13.23,-0.80181 1.8709,-8.5526 -3.4745,-7.8844 z"
           id="path21" />
        <path
           d="m 85.927,166.97 -1.7373,1.3364 0.26727,4.41 16.437,9.0872 3.6081,-8.0181 c 0,0 0.13363,3.6081 0,-0.93545 -0.13364,-4.5436 -0.26728,-11.493 -0.26728,-11.493 l 0.66818,-4.5436 -10.023,2.6727 z"
           id="path23" />
        <path
           d="m 115.06,160.96 -1.6036,3.2072 0.40091,6.949 0.66817,3.3409 1.47,4.9445 4.1427,2.1382 3.0736,-2.2718 -2.2718,-5.6127 -5.479,-6.6817 z"
           id="path25" />
        <path
           d="m 98.957,181.74 2.4722,-4.6772 3.1189,-3.0878 c 0,0 -0.93909,2.7869 -0.87952,4.2237 0.0308,0.74273 0.63376,2.1382 0.63376,2.1382 l -0.26727,1.8041 z"
           id="path27" />
        <path
           d="m 101.5,157.75 3.1404,7.8844 11.76,-0.26727 12.161,-6.949 12.161,-1.8709 -2.0045,-6.8154 -11.633,-2.444 -17.766,8.1903 z"
           id="path29" />
        <path
           d="m 128.35,161.73 c 0.42299,0.18612 1.2152,0.3459 1.7395,0.59566 0.93979,0.44767 1.5441,1.1052 1.5441,1.1052 0,0 1.0867,1.1339 -0.51972,1.1339 -1.6064,0 -3.6026,0.81501 -3.6026,0.81501 0,0 0.64965,-2.1734 0.31893,-2.5041 -0.33073,-0.33072 -0.4961,-1.1221 -0.5906,-1.3111 z"
           id="path31" />
        <path
           d="m 118.09,164.99 c -1.0394,0.99219 1.8662,0.11812 1.8662,0.11812 l 2.6695,0.28349 c 0,0 -0.4016,-3.5199 0.63783,-3.9924 1.0394,-0.47248 -5.2917,1.5355 -4.8664,2.7167 z"
           id="path33" />
      </g>
      <circle
         cx="125.11"
         cy="163.67"
         r="2.9293001"
         stroke-width="7.9"
         style="paint-order:stroke markers fill"
         id="circle37" />
      <g
         id="g89">
        <g
           stroke-width="7.9"
           id="g47">
          <path
             d="m 117.88,165.42 c 0,0 0.85045,-1.9844 1.8899,-2.4096 1.0394,-0.42522 2.8821,-1.6064 3.7325,-1.6064 0.8504,0 4.2995,0.0472 4.9609,0.51972 0.66146,0.47247 1.5119,0.23623 2.4096,0.94494 0.89769,0.7087 1.9844,1.7009 2.1734,1.7009 0.189,0 1.3229,-0.75595 1.0867,-1.2284 -0.23624,-0.47247 -3.26,-2.1261 -4.0632,-2.2679 -0.80319,-0.14174 -2.5986,-1.0867 -4.3467,-0.99219 -1.7481,0.0945 -3.449,-0.0472 -4.772,0.56697 -1.3229,0.61421 -2.3151,1.4174 -2.3624,1.7481 -0.0473,0.33072 -0.47247,0.23623 -0.99219,1.1339 -0.51972,0.89769 0.28348,2.1261 0.28348,2.1261 z"
             id="path39" />
          <path
             d="m 123.95,168.11 -4.0759,-1.637 1.4366,0.23386 3.0068,1.0023 c 0,0 6.0804,0.20045 6.8822,-0.23386 0.8018,-0.43431 0.0334,0.13364 0.0334,0.13364 0,0 -4.8777,1.0691 -5.9468,0.83521 -1.0691,-0.23389 -1.3364,-0.33408 -1.3364,-0.33408 z"
             id="path41" />
          <path
             d="m 117.88,165.42 c 0,0 2.0836,-0.6355 3.0858,-0.26795 0.47548,0.17434 1.0758,-0.006 1.5651,0.11018 0.54216,0.12926 1.8147,0.17588 2.1308,0.33391 0.60135,0.30068 2.5785,-0.0725 2.8792,-0.37322 0.30068,-0.30068 2.1145,-0.30641 2.4486,-0.50687 0.33408,-0.20045 1.8554,-0.56289 1.8888,-0.83017 0.0334,-0.26727 1.1507,0.64118 1.1507,0.64118 0,0 -1.1996,0.87911 -1.801,0.67866 -0.60136,-0.20045 -4.0775,1.2109 -4.9445,1.2361 -1.6836,0.0489 -4.5102,0.40091 -5.0113,0 -0.50113,-0.4009 -0.75045,-0.515 -2.0713,-0.7684 l -1.3209,-0.25339 z"
             id="path43" />
          <path
             d="m 115.99,158.05 c 0.47247,-0.7087 3.9688,-3.0711 6.0949,-3.4018 2.1261,-0.33073 8.599,-2.6458 10.678,-1.3229 l 2.0789,1.3229 c 0,0 2.8821,1.4174 3.26,1.8426 0.3779,0.4252 1.5592,1.5119 1.3702,1.5592 -0.18899,0.0472 -1.0394,-0.42522 -2.3151,-0.47247 -1.2757,-0.0472 -0.70871,0.33073 -1.2757,-0.0472 -0.56697,-0.37797 -6.0004,-0.0472 -7.654,-0.47247 -1.6536,-0.42522 -5.0082,-0.23623 -5.8586,0.18899 -0.85044,0.42522 -4.4412,0.8977 -4.4885,1.0867 -0.0472,0.18899 -1.8899,-0.28348 -1.8899,-0.28348 z"
             id="path45" />
        </g>
        <path
           transform="scale(0.26458)"
           d="m 363.66,626.68 c 4.4394,-0.67698 9.5957,-2.1699 9.5957,-2.1699 0,0 4.5459,-2.1465 5.8086,-2.1465 1.2627,0 -1.3903,-2.6508 -2.7793,-4.166 -1.389,-1.5152 -5.4284,-4.1672 -8.0801,-6.1875 -0.6961,-0.53036 -1.841,-0.94152 -3.2285,-1.2539 a 11.071,11.071 0 0 1 0.38867,0.44335 11.071,11.071 0 0 1 0.64453,0.9004 11.071,11.071 0 0 1 0.55078,0.96093 11.071,11.071 0 0 1 0.45117,1.0098 11.071,11.071 0 0 1 0.34961,1.0508 11.071,11.071 0 0 1 0.24219,1.0801 11.071,11.071 0 0 1 0.13281,1.0976 11.071,11.071 0 0 1 0.0293,0.78321 11.071,11.071 0 0 1 -0.0566,1.1055 11.071,11.071 0 0 1 -0.16406,1.0938 11.071,11.071 0 0 1 -0.2754,1.0723 11.071,11.071 0 0 1 -0.3789,1.0391 11.071,11.071 0 0 1 -0.48047,0.99805 11.071,11.071 0 0 1 -0.57813,0.94336 11.071,11.071 0 0 1 -0.66992,0.88086 11.071,11.071 0 0 1 -0.75586,0.80859 11.071,11.071 0 0 1 -0.74609,0.65625 z"
           stroke-width="29.858"
           id="path49" />
        <path
           transform="scale(0.26458)"
           d="m 347.59,611.78 c -4.59,1.3357 -7.1559,2.7898 -11.719,4.2754 -5.4296,1.7678 -10.48,4.1672 -10.48,4.1672 0,0 12.753,3.7878 19.824,5.9344 1.8142,0.55073 3.5741,0.89239 5.2715,1.0996 -0.0176,-0.011 -0.0352,-0.0221 -0.0527,-0.0332 -0.30456,-0.20785 -0.59855,-0.43078 -0.88086,-0.66797 -0.28196,-0.23831 -0.55183,-0.49058 -0.80859,-0.75586 -0.25716,-0.26435 -0.50096,-0.54139 -0.73047,-0.83008 -0.22973,-0.28919 -0.44484,-0.5897 -0.64453,-0.90039 -0.19951,-0.31092 -0.38333,-0.63164 -0.55078,-0.96094 -0.16712,-0.32886 -0.3177,-0.66587 -0.45118,-1.0098 -0.13399,-0.34421 -0.25067,-0.69491 -0.34961,-1.0508 -0.0987,-0.35576 -0.17951,-0.71624 -0.24218,-1.0801 -0.0625,-0.36345 -0.10686,-0.72979 -0.13282,-1.0977 -0.019,-0.26064 -0.0288,-0.52187 -0.0293,-0.7832 4.4e-4,-0.3692 0.0193,-0.73815 0.0566,-1.1055 0.0364,-0.36709 0.0912,-0.73213 0.16406,-1.0938 0.0739,-0.36179 0.16577,-0.71966 0.27539,-1.0723 0.10891,-0.35245 0.23538,-0.69924 0.37891,-1.0391 0.1434,-0.34049 0.30376,-0.67359 0.48047,-0.99805 0.1775,-0.32393 0.3711,-0.63878 0.58007,-0.94336 0.0136,-0.0183 0.0273,-0.0365 0.041,-0.0547 z"
           stroke-width="29.858"
           id="path51" />
        <path
           d="m 79.611,159.65 c 4.3467,3.6853 4.5357,3.4963 4.5357,3.4963 l 3.5435,-1.7481 6.8981,-1.1812 7.0398,2.7876 2.0316,-1.7009 0.89769,-2.1261 -3.3073,-1.9371 -7.7478,-1.0487 -6.8988,0.009 -3.8743,0.51972 -2.2377,0.66399 -0.59709,1.3204 c 0,0 0.14174,0.85045 -0.04725,0.89769 -0.18899,0.0472 -0.23623,0.0472 -0.23623,0.0472 z"
           stroke-width="7.9"
           id="path53" />
        <path
           transform="scale(0.26458)"
           d="m 347.59,611.78 a 11.071,11.071 0 0 0 -0.041,0.0547 11.071,11.071 0 0 0 -0.58007,0.94336 11.071,11.071 0 0 0 -0.48047,0.99805 11.071,11.071 0 0 0 -0.37891,1.0391 11.071,11.071 0 0 0 -0.27539,1.0723 11.071,11.071 0 0 0 -0.16406,1.0938 11.071,11.071 0 0 0 -0.0566,1.1055 11.071,11.071 0 0 0 0.0293,0.7832 11.071,11.071 0 0 0 0.13282,1.0977 11.071,11.071 0 0 0 0.24218,1.0801 11.071,11.071 0 0 0 0.34961,1.0508 11.071,11.071 0 0 0 0.45118,1.0098 11.071,11.071 0 0 0 0.55078,0.96094 11.071,11.071 0 0 0 0.64453,0.90039 11.071,11.071 0 0 0 0.73047,0.83008 11.071,11.071 0 0 0 0.80859,0.75586 11.071,11.071 0 0 0 0.88086,0.66797 11.071,11.071 0 0 0 0.0527,0.0332 c 4.9185,0.60047 9.2807,6.1e-4 12.66,-0.46875 0.17028,-0.0236 0.33309,-0.0772 0.50586,-0.10352 a 11.071,11.071 0 0 0 0.74609,-0.65625 11.071,11.071 0 0 0 0.75586,-0.80859 11.071,11.071 0 0 0 0.66992,-0.88086 11.071,11.071 0 0 0 0.57813,-0.94336 11.071,11.071 0 0 0 0.48047,-0.99805 11.071,11.071 0 0 0 0.3789,-1.0391 11.071,11.071 0 0 0 0.2754,-1.0723 11.071,11.071 0 0 0 0.16406,-1.0938 11.071,11.071 0 0 0 0.0566,-1.1055 11.071,11.071 0 0 0 -0.0293,-0.78321 11.071,11.071 0 0 0 -0.13281,-1.0976 11.071,11.071 0 0 0 -0.24219,-1.0801 11.071,11.071 0 0 0 -0.34961,-1.0508 11.071,11.071 0 0 0 -0.45117,-1.0098 11.071,11.071 0 0 0 -0.55078,-0.96093 11.071,11.071 0 0 0 -0.64453,-0.9004 11.071,11.071 0 0 0 -0.38867,-0.44335 c -3.8981,-0.87757 -9.9265,-0.87331 -14.955,0.24414 -1.0884,0.24187 -1.552,0.52167 -2.4238,0.77539 z"
           stroke-width="29.858"
           id="path55" />
        <g
           stroke-width="7.9"
           id="g87">
          <path
             d="m 77.202,148.08 -0.62892,9.6752"
             id="path57" />
          <path
             d="m 101.53,157.48 c -0.51971,-0.37798 -1.9371,-2.7403 -1.9371,-2.7403 0,0 -6.5673,-1.4174 -9.9219,-1.5119 -3.3545,-0.0945 -6.0476,0.37797 -7.6068,1.1812 -1.5592,0.8032 -2.5513,2.2679 -2.5513,2.2679 0,0 0.14174,2.1261 -0.04725,2.9766 -0.18899,0.85045 1.5119,-2.0316 1.5119,-2.0316 0,0 4.8192,-1.7481 5.8114,-0.70871 0.99219,1.0394 5.2444,-0.51972 6.0476,0.14174 0.8032,0.66146 5.2917,0.42523 5.2917,0.42523 z"
             id="path59" />
          <path
             d="m 84.658,163.47 c 0,0 0.33409,-1.7372 1.637,-2.1048 1.3029,-0.36749 7.7508,-1.3364 8.6863,-1.1693 0.93544,0.16704 0.56795,-0.33409 2.5725,0.33409 2.0045,0.66817 3.0858,1.8554 3.4198,2.1226 0.20333,0.16266 -0.046,1.5997 -0.62222,1.4526 -0.37057,-0.0946 -1.0426,-1.745 -1.2649,-1.8234 -0.56795,-0.20045 -1.8668,-1.7518 -2.6018,-1.685 -0.73499,0.0668 -3.4239,0.002 -3.7914,0.10261 -0.3675,0.10022 -3.7256,0.86625 -4.2267,1.1669 -0.50113,0.30068 -1.7707,0.63477 -2.4054,0.86863 -0.63476,0.23386 -1.4032,0.73499 -1.4032,0.73499 z"
             id="path61" />
          <path
             d="m 85.025,163.6 c 0,0 1.5368,-1.5368 3.2741,-1.9043 1.7373,-0.3675 3.1738,-1.5368 3.9088,-0.93544 1.0023,-0.0668 3.3743,-0.43432 4.5102,-0.16704 1.1359,0.26726 2.3052,1.47 2.8397,2.0379 0.53454,0.56795 0.85883,2.0167 0.85883,2.0167 0,0 -0.95906,-1.1481 -1.3934,-1.3485 -0.43431,-0.20045 -2.0045,-1.5368 -3.6415,-1.5702 -1.637,-0.0334 -2.6727,-0.10022 -3.3409,0.13364 -0.66817,0.23386 -2.486,1.0481 -3.5079,1.3363 -1.3029,0.3675 -1.4032,0.73499 -2.0379,0.90203 -0.50113,0.43432 -1.47,-0.50112 -1.47,-0.50112 z"
             id="path63" />
          <path
             d="m 86.666,164.07 c 0,0 3.8365,1.3506 5.2067,1.4451 1.3702,0.0945 3.3775,0.65671 4.9366,0.23149 1.5592,-0.42523 3.638,-1.2284 3.638,-1.2284 l 0.56697,0.56697 c 0,0 -1.6064,1.0867 -3.3073,2.0316 -1.7009,0.94494 -4.5357,2.1734 -5.9531,2.1261 -1.4174,-0.0472 -5.1452,0.0749 -5.7594,0.0749 -0.61421,0 -0.72017,-1.8231 -0.62567,-3.4767 0.09449,-1.6536 0.22812,-1.9715 0.22812,-1.9715 z"
             id="path65" />
          <path
             d="m 117.13,163.97 -1.8041,-4.2763 5.3454,-2.4054 c 0,0 6.5481,-1.0691 7.6172,-0.46772 1.0691,0.60138 7.2831,0.60136 7.2831,0.60136 l 3.8086,0.4009 -1.6704,4.2095 -2.6059,1.7372 c 0,0 -7.2831,-4.5436 -11.092,-3.5413 -3.8089,1.0023 -6.214,2.5391 -6.8822,3.7418 z"
             id="path67" />
          <path
             d="m 76.974,159.36 -0.45102,-1.3698 c 0,0 -1.0858,-0.26726 -1.5201,0.23386 -0.43431,0.50114 -0.95215,1.0691 -0.80181,1.5368 0.15034,0.46773 0.60136,1.4366 0.95215,1.8876 0.35079,0.45101 0.35079,0.55124 0.93544,1.3698 0.58465,0.81852 0.35079,1.4199 0.60136,1.7206 0.25056,0.30068 0.65147,-0.33409 0.48443,-1.2027 -0.16704,-0.86863 -0.23386,-2.2718 -0.15034,-2.4555 0.08352,-0.18375 -0.05011,-1.7206 -0.05011,-1.7206 z"
             id="path69" />
          <path
             d="m 76.918,163.57 -1.7009,10.394 2.4568,9.2604 8.344,9.8519 14.241,-10.677 1.3,-5.5928 -11.601,-3.0319 -7.7485,-4.5357 z"
             id="path71" />
          <path
             d="m 75.194,162.09 c 0,0 0.3071,1.63 0.3071,2.2442 0,0.61422 -0.47247,4.016 -0.47247,4.4412 0,0.42522 -0.23624,1.7481 -0.11812,2.2678 0.11812,0.5197 0.09449,2.008 0.25986,2.5041 0.16536,0.4961 0.89769,1.9135 1.2757,1.9135 0.37801,0 0.30711,-1.252 0.30711,-1.4883 v -1.1339 c 0,-1.0394 0.07087,-4.0869 0.07087,-4.0869 v -1.8899 l 0.11812,-0.87407 -0.21261,-1.1103 -0.49609,-1.5828 -0.92132,-1.1339 z"
             id="path73" />
          <path
             d="m 107.22,160.84 -0.58318,12.551 0.26727,5.7463 2.5782,-1.8575 0.29297,-18.323 z"
             id="path75" />
          <path
             d="m 114.34,173.75 c 0,0 1.4093,5.8274 0.67431,6.5624 -0.73499,0.735 4.0401,1.0786 4.441,1.8136 0.4009,0.73499 -0.31788,-4.9783 -1.3201,-5.3124 -1.0023,-0.33409 -3.7952,-3.0635 -3.7952,-3.0635 z"
             id="path77" />
          <path
             d="m 98.689,181.81 c 0,0 -1.1912,0.96509 -0.18899,2.836 1.0023,1.8709 1.8223,-0.54682 3.1586,-0.68045 1.3363,-0.13364 5.5257,1.6388 5.8598,2.9752 0.33409,1.3364 0.75792,0.97656 2.0943,1.2438 1.3363,0.26727 2.5754,-0.82949 2.8427,-1.364 0.2673,-0.53451 1.2715,-2.8597 2.8751,-2.5924 1.1034,1.6677 2.1059,-0.61361 3.8791,1.6231 0.84829,1.07 1.3685,-3.5466 0.52219,-4.2025 -0.86863,-0.53455 -5.1402,-1.1082 -5.942,-0.97458 -0.56651,0.0944 -8.5699,-0.22283 -12.777,0.45651 -0.79662,0.12863 -2.3235,0.67938 -2.3235,0.67938 z"
             id="path79" />
          <path
             d="m 76.729,174.25 0.75595,5.6696 1.9844,5.2917 6.6146,5.7641 c 0,0 -0.66146,-1.1339 1.3229,1.3229 1.9844,2.4568 2.0789,8.6934 2.0789,8.6934 l 0.66146,3.5908 c 0,0 0.85044,0.94494 2.2679,4.1577 1.4174,3.2128 6.4256,4.9137 9.4494,5.1027 3.0238,0.18898 5.2917,-3.8743 4.5357,-5.5752 -0.75596,-1.7009 0.35505,-4.1368 0.35505,-4.1368 l 4.5033,0.11071 c 0,0 -0.79509,1.6637 -0.32262,3.6481 0.47247,1.9844 1.5119,5.3862 2.0789,5.4807 0.567,0.0945 4.0632,0.18898 5.1027,-0.37798 1.0394,-0.56696 5.3862,-1.8899 6.8036,-4.8192 1.4174,-2.9293 5.9531,-5.7641 5.7641,-9.1659 -0.18899,-3.4018 -0.56697,-5.2917 -0.56697,-5.2917 0,0 9.0714,-7.1816 9.0714,-8.7879 0,-1.6064 2.0789,-7.9375 1.4174,-8.599 -0.6615,-0.6615 0.85045,-2.7403 0.85045,-3.3073 0,-0.56697 0.37797,4.4412 0.37797,4.4412 0,0 -0.78757,5.8004 -1.6064,8.599 -0.40077,1.3698 -1.138,2.6206 -1.6064,3.9688 -0.95855,2.7587 -1.1052,5.8211 -2.4568,8.41 -1.3478,2.5815 -5.4806,6.8036 -5.4806,6.8036 0,0 -7.465,7.1816 -11.056,9.1659 -3.5908,1.9844 -4.5357,3.6853 -8.5045,3.6853 -3.9688,0 -10.678,0.94494 -13.135,-0.75595 -2.4568,-1.7009 -6.2366,-5.1027 -7.0871,-6.1421 -0.85045,-1.0394 -1.7954,-3.1183 -3.7798,-5.6696 -1.9844,-2.5513 -4.8192,-4.8192 -5.3862,-6.3311 -0.56696,-1.5119 -3.2128,-9.9219 -3.1183,-9.4494 0.09449,0.47247 -1.1339,-3.5908 -1.6064,-6.1421 -0.47247,-2.5513 -0.94494,-4.7247 -0.56696,-6.2366 0.37798,-1.5119 0.28348,-3.1183 0.28348,-3.1183 z"
             id="path81" />
          <path
             d="m 104.09,179.73 c 0,0 -1.1339,-0.0945 -0.56696,1.3702 0.56696,1.4646 1.4647,0.89769 2.6931,1.7009 1.2284,0.80321 1.8426,1.3229 2.4568,1.6536 0.61422,0.33073 3.449,-0.8977 3.449,-0.8977 l 0.89769,-1.2284 2.1734,-0.47247 c 0,0 0.75596,-2.5041 -0.56696,-3.1183 -1.32292,-0.6142 -3.0238,-1.6064 -3.0238,-1.6064 0,0 -3.7798,-0.33073 -5.5279,0.89769 -1.7481,1.22842 -1.9844,1.7009 -1.9844,1.7009 z"
             id="path83" />
          <path
             d="m 126.24,179.64 4.5357,8.3155 c 0,0 6.179,0.20371 8.2402,-1.6979 1.4812,-1.3665 1.3529,-3.9117 1.6922,-5.804 0.31511,-1.7574 0.27302,-5.3492 0.27302,-5.3492 l -0.34665,-7.834 -0.35297,-3.594 -8.118,5.8501 z"
             id="path85" />
        </g>
      </g>
      <g
         stroke-width="7.9"
         id="g97">
        <circle
           cx="123.57"
           cy="162.2"
           r="0.63783002"
           style="paint-order:stroke markers fill"
           id="circle91" />
        <ellipse
           cx="125.24"
           cy="163.74001"
           rx="1.1694"
           ry="1.2048"
           style="paint-order:stroke markers fill"
           id="ellipse93" />
        <ellipse
           cx="94.165001"
           cy="163.39"
           rx="1.1694"
           ry="1.2048"
           style="paint-order:stroke markers fill"
           id="ellipse95" />
      </g>
      <g
         stroke-width="7.9"
         id="g133">
        <path
           d="m 114.24,123.79 c 0,0 3.9688,-2.8348 4.0632,-4.4412 0.0944,-1.6064 1.7954,-3.3073 1.2284,-4.9137 -0.567,-1.6064 -1.4174,-6.1421 -1.4174,-6.1421 0,0 3.7798,4.9137 3.9688,6.3311 0.189,1.4174 2.1734,6.5201 1.4174,7.9375 -0.756,1.4174 0,2.7403 -4.8192,1.9844 -4.8192,-0.75595 -4.4412,-0.75595 -4.4412,-0.75595 z"
           filter="url(#filter4886)"
           id="path99" />
        <path
           d="m 76.573,157.75 c 0,0 -2.2718,-13.831 -1.2695,-16.303 1.0023,-2.4722 -0.13364,-4.2763 -0.13364,-4.2763 0,0 -0.86862,-0.60136 -1.3363,-1.0023 -0.46772,-0.4009 0.06682,-4.41 1.6036,-7.0158 1.5368,-2.6059 2.94,-3.9422 2.94,-3.9422 0,0 -0.06681,-4.744 -2.6727,-4.8777 -2.6059,-0.13363 -4.3431,-0.0668 -4.3431,-0.0668 0,0 0.66817,-2.3386 2.6727,-2.4054 2.0045,-0.0668 2.3386,-0.86863 2.3386,-0.86863 l -4.6104,-0.93544 c 0,0 -2.0713,0.13363 1.2027,-0.73499 3.274,-0.86863 5.6795,-4.8108 5.6795,-4.8108 0,0 4.2763,-0.80181 3.8086,-2.1382 -0.46772,-1.3364 -1.0691,-3.3409 0.66817,-3.8754 1.7373,-0.53454 1.8041,-0.66817 1.8041,-0.66817 0,0 9.2876,-0.86863 10.424,-2.6727 1.1359,-1.8041 7.0826,-1.6036 9.9558,-2.0045 2.8732,-0.4009 8.0849,6.214 10.424,5.1449 2.3386,-1.0691 3.8073,0.97291 3.8073,0.97291 0,0 -3.9688,-4.5357 0.94494,-2.5513 4.9137,1.9844 11.717,6.9926 12.946,8.8824 1.2284,1.8899 0.28347,3.6853 3.6853,3.8742 3.40183,0.1889 0.37798,-3.0238 2.0789,-3.3073 1.70092,-0.2835 2.5513,6.1421 3.3073,7.3705 0.75595,1.2284 7.465,0 3.2128,2.6458 -4.2522,2.6458 -7.087,6.0476 -4.0632,5.7641 3.0238,-0.28349 8.032,-1.6064 9.2604,-1.5119 1.2284,0.0945 -2.0789,0.94494 -4.7247,2.9293 -2.6458,1.9844 -3.4963,3.9688 -3.4963,3.9688 l 3.8743,3.5908 -3.9688,-0.18899 -1.3229,1.3229 c 0.66146,0.47247 1.3229,6.9926 0.18899,12.095 -1.13391,5.1024 -0.66146,7.1816 -0.66146,7.1816 l -1.5119,-10.111 c 0,0 -1.4174,-6.2366 -2.3624,-9.9219 -0.945,-3.6853 -4.7247,-7.0871 -8.032,-7.3705 -3.3073,-0.2834 -3.5908,-1.7009 -7.7485,-0.94494 -4.1577,0.75596 -2.8348,5.5752 -8.032,2.9293 -5.1972,-2.6458 -7.5595,-5.4807 -11.056,-4.0632 -3.4965,1.4175 -8.7879,3.9688 -9.5439,1.2284 -0.75595,-2.7403 -1.5119,-3.5908 -4.6302,-0.66146 -3.1183,2.9293 -7.3705,6.0476 -7.7485,10.3 l -0.37798,4.2522 c 0,0 -1.0394,-0.56696 -1.7954,2.2679 l -0.75595,2.8348"
           filter="url(#filter4886)"
           id="path101" />
        <path
           d="m 85.517,113.11 c 0,0 5.6031,0.95736 7.843,2.5513 2.1249,1.5122 4.7247,6.2366 4.7247,6.2366 0,0 2.3623,2.2678 1.5119,2.2678 -0.85044,0 -2.7403,1.3229 -2.7403,1.3229 z"
           filter="url(#filter4886)"
           id="path103" />
        <path
           d="m 112.64,118.22 c 0,0 0.39671,2.3802 0.59506,3.5703 0.21112,1.2667 0.63337,3.8002 0.63337,3.8002 l -2.6458,0.0945 c 0,0 -1.7954,-1.6064 -1.0394,-4.5357 0.75595,-2.9293 -7.465,-5.7641 -7.465,-5.7641 0,0 9.5439,1.2284 9.9219,2.8348 z"
           filter="url(#filter4886)"
           id="path105" />
        <path
           d="m 125.77,128.8 1.3229,-2.8348 2.2679,-3.4018 4.8192,-4.1577 2.3624,-3.0238 0.75595,0.37797 -2.1734,3.3073 -4.3467,3.6853 -3.6853,7.3233 c -0.44549,-0.42522 -3.2209,-0.85045 -1.3229,-1.2757 z"
           filter="url(#filter4886)"
           id="path107" />
        <path
           d="m 98.489,148.8 9.3544,0.93544 6.4145,-1.6036 c 0,0 0.25646,-2.5229 2.2443,-3.1594 1.091,-0.34936 3.0304,0.75663 4.972,1.0881 5.479,0.93545 7.4835,4.8777 4.1427,4.8777 -3.3409,0 -8.8199,1.8709 -8.8199,1.8709 l -6.4145,2.6727 c 0,0 -2.0045,-1.3363 -8.6863,-4.009 -6.6817,-2.6727 -3.2072,-2.6727 -3.2072,-2.6727 z"
           id="path109" />
        <path
           d="m 118.53,125.41 c -1.2027,0 -2.2718,3.2072 -2.2718,3.2072 l -1.0691,10.023 -3.5413,5.3454 11.426,3.0736 6.4145,2.4054 11.092,6.214 -0.46772,-4.0759 c 0,0 2.2718,-7.6172 -1.0691,-11.893 -3.3409,-4.2763 -2.205,-11.894 -9.5549,-13.631 -7.3499,-1.7372 -10.958,-0.66817 -10.958,-0.66817 z"
           id="path111" />
        <path
           d="m 93.945,131.69 -2.7795,6.9949 c 0,0 8.7795,-1.8699 11.977,2.354 3.1979,4.2239 8.3083,3.881 8.3083,3.881 l 5.3454,-9.0872 -0.74333,-4.3244 -4.2012,-1.6892 -13.898,-4.2763 z"
           id="path113" />
        <path
           d="m 76.84,146.79 c 0,0 3.2072,-7.3499 3.7418,-9.4881 0.53454,-2.1382 -1.7373,-7.8845 2.94,-9.6217 4.6773,-1.7372 11.76,-2.6727 15.234,-1.7372 3.4745,0.93544 -0.80181,5.2118 -3.0736,4.9445 -2.2718,-0.26727 -1.0691,1.0691 -3.2072,5.7463 -2.1382,4.6772 5.6127,12.294 2.94,12.428 C 92.7423,149.19544 76.84,146.79 76.84,146.79 Z"
           id="path115" />
        <path
           d="m 118.31,168.3 1.8899,1.6064 2.3624,1.7009 1.4174,0.94494 -5.2917,-4.3467 z"
           id="path117" />
        <path
           d="m 140.58,163.5 c 0,0 1.2048,2.1261 1.2284,2.7403 0.0236,0.61421 0.33073,3.5908 0.18899,4.0632 -0.14174,0.4724 0,1.8426 -0.0945,2.2206 -0.0945,0.37798 -0.4961,0.87407 -0.56697,0.99219 -0.0709,0.11812 -0.7087,0.11812 -0.7087,0.11812 l -0.4961,-5.3625 -0.7087,-3.9451 z"
           id="path119" />
        <path
           d="m 91.376,201.37 -1.6064,3.9688 2.0789,4.0632 8.1265,6.1421 5.6696,-1.1339 1.7954,-4.4412 0.0945,-5.0082 -8.9311,-5.9436 -1.4431,-1.3668 z"
           id="path121" />
        <path
           d="m 110.65,204.39 -0.0668,6.0136 2.205,3.8086 6.949,-0.80181 4.8777,-3.5413 2.4722,-3.7418 3.5231,-4.526 -4.3918,-2.2226 -4.2095,-0.60136 -11.025,5.5458 z"
           id="path123" />
        <path
           d="m 97.286,197.91 0.06682,0.0668 4.8777,2.6727 7.3499,1.2027 8.7531,-0.60136 2.6727,-1.5368 0.3341,-1.5368 -6.6817,0.13364 z"
           id="path125" />
        <path
           d="m 140.04,158.94 0.75595,-1.1103 c 0,0 0.94494,-0.18899 1.1576,0.21261 0.21266,0.4016 1.0394,1.0394 0.66146,2.0552 -0.37798,1.0158 -1.9844,3.4254 -2.1497,3.4254 -0.16536,0 -0.42522,-4.4885 -0.42522,-4.4885 z"
           id="path127" />
        <path
           d="m 96.885,198.01 c 0,0 3.675,0.0334 5.5458,0.43432 0.13639,0.054 7.0158,1.3364 9.0872,0.86862 2.0713,-0.46772 2.7395,-0.66817 2.7395,-0.66817 0,0 4.4768,0.20045 4.6772,-0.26727 0.2004,-0.46772 2.0045,0.4009 2.205,0.0668 0.20046,-0.33409 -0.66817,-0.86863 -1.6704,-1.3364 -1.00223,-0.46777 -5.2118,-1.8041 -6.0136,-1.6704 -0.8018,0.13363 -4.009,1.4032 -4.009,1.4032 0,0 -2.8063,-1.5368 -3.274,-1.5368 -0.4677,0 -8.6194,1.5368 -9.2876,2.3386 -0.66817,0.80181 1e-6,0.36751 1e-6,0.36751 z"
           id="path129" />
        <path
           d="m 115.39,203.32 -2.0713,1.0691 c 0,0 -7.8176,0.20045 -8.2185,-0.13364 -0.4009,-0.33408 -2.5391,-0.86862 -3.2072,-1.47 -0.66817,-0.60135 -4.4768,-3.2072 -4.4768,-3.2072 l -0.66818,-1.8041 1.9735,0.80516 5.911,0.86527 c 0,0 1.6036,1.0691 2.94,1.2027 1.3363,0.13364 4.2763,0 6.4145,-0.8018 2.1382,-0.80181 5.2786,-0.33409 6.2808,-0.735 1.0023,-0.4009 1.4032,-0.46772 1.4032,-0.46772 0,0 -1.3364,2.6059 -2.2718,2.6059 -0.93544,0 -4.009,2.0713 -4.009,2.0713 z"
           id="path131" />
      </g>
    </g>
    <g
       transform="translate(1.0042,-0.87893)"
       id="g271">
      <g
         stroke-width="0"
         id="g143">
        <path
           d="m 101.43,190.23 -3.0736,7.2163 19.377,-0.13364 6.4145,1.8709 6.0136,2.0045 7.7508,-14.433 -20.713,-1.0691 -14.433,2.2718 z"
           fill="#3440ff"
           id="path137" />
        <path
           d="m 90.336,183.51 8.41,-3.0238 10.654,8.0482 -7.1609,3.5639 -1.6036,6.1528 -7.276,6.7091 -3.997,-0.25071 -2.3341,-2.2061 0.56696,-15.97 z"
           fill="#33e438"
           id="path139" />
        <path
           d="m 99.692,185.35 c 0,0 3.1404,2.205 3.675,1.8041 0.53454,-0.4009 1.4032,-0.13363 2.0713,0.60136 0.66817,0.73499 2.6059,2.5391 3.2072,2.7395 0.60136,0.20045 2.0713,0.26727 2.0713,0.26727 0,0 2.4722,-0.60136 2.5391,-1.1359 0.0668,-0.53454 2.3386,-0.8018 2.3386,-1.0691 0,-0.2673 4.009,-1.2695 3.9422,-1.8041 -0.0668,-0.53453 0.33409,-2.539 -0.26727,-2.6059 -0.3029,-0.0336 -4.7897,-0.12229 -9.8252,-0.75615 -5.4264,-0.68306 -10.547,0.36975 -9.7523,1.9589 z"
           fill="#d21b42"
           id="path141" />
      </g>
      <path
         d="m 92.342,134.23 4.6772,-1.47 19.912,7.6172 -0.53454,5.0781 -6.2808,9.4881 -7.8844,3.8754 -12.094,-5.4122 0.20045,-0.60135 z"
         fill="#515052"
         fill-opacity="0.99608"
         stroke-width="0"
         id="path145" />
      <g
         stroke-width="0"
         id="g183">
        <path
           d="m 77.642,146.13 15.101,1.47 -2.6727,6.6817 -9.3544,4.8108 5.2488,3.6433 -0.43797,9.5866 -8.8199,-8.2854 -0.47487,-9.3513 z"
           fill="#ff312e"
           id="path147" />
        <path
           d="m 114.43,164.14 2.9293,10.3 1.7954,9.3549 v 1.2284 l 1.7009,2.3624 9.0714,0.94494 5.1027,-6.9926 4.2522,-10.961 1.4174,-6.8036 -0.28349,-7.276 -4.6302,-0.18899 z"
           fill="#ff0000"
           id="path149" />
        <path
           d="m 104.57,163.63 -2.4722,12.695 v 5.2118 l 13.23,-0.80181 1.8709,-8.5526 -3.4745,-7.8844 z"
           fill="#de5000"
           id="path151" />
        <path
           d="m 85.927,166.97 -1.7373,1.3364 0.26727,4.41 16.437,9.0872 3.6081,-8.0181 c 0,0 0.13363,3.6081 0,-0.93545 -0.13364,-4.5436 -0.26728,-11.493 -0.26728,-11.493 l 0.66818,-4.5436 -10.023,2.6727 z"
           fill="#ff0000"
           id="path153" />
        <path
           d="m 115.06,160.96 -1.6036,3.2072 0.40091,6.949 0.66817,3.3409 1.47,4.9445 4.1427,2.1382 3.0736,-2.2718 -2.2718,-5.6127 -5.479,-6.6817 z"
           fill="#d38d5f"
           id="path155" />
        <path
           d="m 98.957,181.74 2.4722,-4.6772 3.1189,-3.0878 c 0,0 -0.93909,2.7869 -0.87952,4.2237 0.0308,0.74273 0.63376,2.1382 0.63376,2.1382 l -0.26727,1.8041 z"
           fill="#515052"
           id="path157" />
        <path
           d="m 101.5,157.75 3.1404,7.8844 11.76,-0.26727 12.161,-6.949 12.161,-1.8709 -2.0045,-6.8154 -11.633,-2.444 -17.766,8.1903 z"
           fill="#e433e4"
           id="path159" />
        <path
           d="m 128.35,161.73 c 0.42299,0.18612 1.2152,0.3459 1.7395,0.59566 0.93979,0.44767 1.5441,1.1052 1.5441,1.1052 0,0 1.0867,1.1339 -0.51972,1.1339 -1.6064,0 -3.6026,0.81501 -3.6026,0.81501 0,0 0.64965,-2.1734 0.31893,-2.5041 -0.33073,-0.33072 -0.4961,-1.1221 -0.5906,-1.3111 z"
           fill="#ff9955"
           id="path161" />
        <path
           d="m 118.09,164.99 c -1.0394,0.99219 1.8662,0.11812 1.8662,0.11812 l 2.6695,0.28349 c 0,0 -0.4016,-3.5199 0.63783,-3.9924 1.0394,-0.47248 -5.2917,1.5355 -4.8664,2.7167 z"
           fill="#ff9955"
           id="path163" />
        <circle
           cx="125.11"
           cy="163.67"
           r="2.9293001"
           fill="#000103"
           style="paint-order:stroke markers fill"
           id="circle165" />
        <path
           d="m 117.88,165.42 c 0,0 0.85045,-1.9844 1.8899,-2.4096 1.0394,-0.42522 2.8821,-1.6064 3.7325,-1.6064 0.8504,0 4.2995,0.0472 4.9609,0.51972 0.66146,0.47247 1.5119,0.23623 2.4096,0.94494 0.89769,0.7087 1.9844,1.7009 2.1734,1.7009 0.189,0 1.3229,-0.75595 1.0867,-1.2284 -0.23624,-0.47247 -3.26,-2.1261 -4.0632,-2.2679 -0.80319,-0.14174 -2.5986,-1.0867 -4.3467,-0.99219 -1.7481,0.0945 -3.449,-0.0472 -4.772,0.56697 -1.3229,0.61421 -2.3151,1.4174 -2.3624,1.7481 -0.0473,0.33072 -0.47247,0.23623 -0.99219,1.1339 -0.51972,0.89769 0.28348,2.1261 0.28348,2.1261 z"
           fill="#33e438"
           id="path167" />
        <path
           d="m 123.95,168.11 -4.0759,-1.637 1.4366,0.23386 3.0068,1.0023 c 0,0 6.0804,0.20045 6.8822,-0.23386 0.8018,-0.43431 0.0334,0.13364 0.0334,0.13364 0,0 -4.8777,1.0691 -5.9468,0.83521 -1.0691,-0.23389 -1.3364,-0.33408 -1.3364,-0.33408 z"
           fill="#000103"
           id="path169" />
        <path
           d="m 117.88,165.42 c 0,0 2.0836,-0.6355 3.0858,-0.26795 0.47548,0.17434 1.0758,-0.006 1.5651,0.11018 0.54216,0.12926 1.8147,0.17588 2.1308,0.33391 0.60135,0.30068 2.5785,-0.0725 2.8792,-0.37322 0.30068,-0.30068 2.1145,-0.30641 2.4486,-0.50687 0.33408,-0.20045 1.8554,-0.56289 1.8888,-0.83017 0.0334,-0.26727 1.1507,0.64118 1.1507,0.64118 0,0 -1.1996,0.87911 -1.801,0.67866 -0.60136,-0.20045 -4.0775,1.2109 -4.9445,1.2361 -1.6836,0.0489 -4.5102,0.40091 -5.0113,0 -0.50113,-0.4009 -0.75045,-0.515 -2.0713,-0.7684 l -1.3209,-0.25339 z"
           fill="#555152"
           id="path171" />
        <path
           d="m 115.99,158.05 c 0.47247,-0.7087 3.9688,-3.0711 6.0949,-3.4018 2.1261,-0.33073 8.599,-2.6458 10.678,-1.3229 l 2.0789,1.3229 c 0,0 2.8821,1.4174 3.26,1.8426 0.3779,0.4252 1.5592,1.5119 1.3702,1.5592 -0.18899,0.0472 -1.0394,-0.42522 -2.3151,-0.47247 -1.2757,-0.0472 -0.70871,0.33073 -1.2757,-0.0472 -0.56697,-0.37797 -6.0004,-0.0472 -7.654,-0.47247 -1.6536,-0.42522 -5.0082,-0.23623 -5.8586,0.18899 -0.85044,0.42522 -4.4412,0.8977 -4.4885,1.0867 -0.0472,0.18899 -1.8899,-0.28348 -1.8899,-0.28348 z"
           fill="#000103"
           id="path173" />
        <path
           transform="scale(0.26458)"
           d="m 363.66,626.68 c 4.4394,-0.67698 9.5957,-2.1699 9.5957,-2.1699 0,0 4.5459,-2.1465 5.8086,-2.1465 1.2627,0 -1.3903,-2.6508 -2.7793,-4.166 -1.389,-1.5152 -5.4284,-4.1672 -8.0801,-6.1875 -0.6961,-0.53036 -1.841,-0.94152 -3.2285,-1.2539 a 11.071,11.071 0 0 1 0.38867,0.44335 11.071,11.071 0 0 1 0.64453,0.9004 11.071,11.071 0 0 1 0.55078,0.96093 11.071,11.071 0 0 1 0.45117,1.0098 11.071,11.071 0 0 1 0.34961,1.0508 11.071,11.071 0 0 1 0.24219,1.0801 11.071,11.071 0 0 1 0.13281,1.0976 11.071,11.071 0 0 1 0.0293,0.78321 11.071,11.071 0 0 1 -0.0566,1.1055 11.071,11.071 0 0 1 -0.16406,1.0938 11.071,11.071 0 0 1 -0.2754,1.0723 11.071,11.071 0 0 1 -0.3789,1.0391 11.071,11.071 0 0 1 -0.48047,0.99805 11.071,11.071 0 0 1 -0.57813,0.94336 11.071,11.071 0 0 1 -0.66992,0.88086 11.071,11.071 0 0 1 -0.75586,0.80859 11.071,11.071 0 0 1 -0.74609,0.65625 z"
           fill="#ff9955"
           id="path175" />
        <path
           transform="scale(0.26458)"
           d="m 347.59,611.78 c -4.59,1.3357 -7.1559,2.7898 -11.719,4.2754 -5.4296,1.7678 -10.48,4.1672 -10.48,4.1672 0,0 12.753,3.7878 19.824,5.9344 1.8142,0.55073 3.5741,0.89239 5.2715,1.0996 -0.0176,-0.011 -0.0352,-0.0221 -0.0527,-0.0332 -0.30456,-0.20785 -0.59855,-0.43078 -0.88086,-0.66797 -0.28196,-0.23831 -0.55183,-0.49058 -0.80859,-0.75586 -0.25716,-0.26435 -0.50096,-0.54139 -0.73047,-0.83008 -0.22973,-0.28919 -0.44484,-0.5897 -0.64453,-0.90039 -0.19951,-0.31092 -0.38333,-0.63164 -0.55078,-0.96094 -0.16712,-0.32886 -0.3177,-0.66587 -0.45118,-1.0098 -0.13399,-0.34421 -0.25067,-0.69491 -0.34961,-1.0508 -0.0987,-0.35576 -0.17951,-0.71624 -0.24218,-1.0801 -0.0625,-0.36345 -0.10686,-0.72979 -0.13282,-1.0977 -0.019,-0.26064 -0.0288,-0.52187 -0.0293,-0.7832 4.4e-4,-0.3692 0.0193,-0.73815 0.0566,-1.1055 0.0364,-0.36709 0.0912,-0.73213 0.16406,-1.0938 0.0739,-0.36179 0.16577,-0.71966 0.27539,-1.0723 0.10891,-0.35245 0.23538,-0.69924 0.37891,-1.0391 0.1434,-0.34049 0.30376,-0.67359 0.48047,-0.99805 0.1775,-0.32393 0.3711,-0.63878 0.58007,-0.94336 0.0136,-0.0183 0.0273,-0.0365 0.041,-0.0547 z"
           fill="#ff9955"
           id="path177" />
        <path
           d="m 79.611,159.65 c 4.3467,3.6853 4.5357,3.4963 4.5357,3.4963 l 3.5435,-1.7481 6.8981,-1.1812 7.0398,2.7876 2.0316,-1.7009 0.89769,-2.1261 -3.3073,-1.9371 -7.7478,-1.0487 -6.8988,0.009 -3.8743,0.51972 -2.2377,0.66399 -0.59709,1.3204 c 0,0 0.14174,0.85045 -0.04725,0.89769 -0.18899,0.0472 -0.23623,0.0472 -0.23623,0.0472 z"
           fill="#33e438"
           id="path179" />
        <path
           transform="scale(0.26458)"
           d="m 347.59,611.78 a 11.071,11.071 0 0 0 -0.041,0.0547 11.071,11.071 0 0 0 -0.58007,0.94336 11.071,11.071 0 0 0 -0.48047,0.99805 11.071,11.071 0 0 0 -0.37891,1.0391 11.071,11.071 0 0 0 -0.27539,1.0723 11.071,11.071 0 0 0 -0.16406,1.0938 11.071,11.071 0 0 0 -0.0566,1.1055 11.071,11.071 0 0 0 0.0293,0.7832 11.071,11.071 0 0 0 0.13282,1.0977 11.071,11.071 0 0 0 0.24218,1.0801 11.071,11.071 0 0 0 0.34961,1.0508 11.071,11.071 0 0 0 0.45118,1.0098 11.071,11.071 0 0 0 0.55078,0.96094 11.071,11.071 0 0 0 0.64453,0.90039 11.071,11.071 0 0 0 0.73047,0.83008 11.071,11.071 0 0 0 0.80859,0.75586 11.071,11.071 0 0 0 0.88086,0.66797 11.071,11.071 0 0 0 0.0527,0.0332 c 4.9185,0.60047 9.2807,6.1e-4 12.66,-0.46875 0.17028,-0.0236 0.33309,-0.0772 0.50586,-0.10352 a 11.071,11.071 0 0 0 0.74609,-0.65625 11.071,11.071 0 0 0 0.75586,-0.80859 11.071,11.071 0 0 0 0.66992,-0.88086 11.071,11.071 0 0 0 0.57813,-0.94336 11.071,11.071 0 0 0 0.48047,-0.99805 11.071,11.071 0 0 0 0.3789,-1.0391 11.071,11.071 0 0 0 0.2754,-1.0723 11.071,11.071 0 0 0 0.16406,-1.0938 11.071,11.071 0 0 0 0.0566,-1.1055 11.071,11.071 0 0 0 -0.0293,-0.78321 11.071,11.071 0 0 0 -0.13281,-1.0976 11.071,11.071 0 0 0 -0.24219,-1.0801 11.071,11.071 0 0 0 -0.34961,-1.0508 11.071,11.071 0 0 0 -0.45117,-1.0098 11.071,11.071 0 0 0 -0.55078,-0.96093 11.071,11.071 0 0 0 -0.64453,-0.9004 11.071,11.071 0 0 0 -0.38867,-0.44335 c -3.8981,-0.87757 -9.9265,-0.87331 -14.955,0.24414 -1.0884,0.24187 -1.552,0.52167 -2.4238,0.77539 z"
           fill="#000103"
           id="path181" />
      </g>
      <path
         d="m 77.202,148.08 -0.62892,9.6752"
         fill="none"
         stroke="#000000"
         stroke-width="0.26458px"
         id="path185" />
      <g
         stroke-width="0"
         id="g195">
        <path
           d="m 101.53,157.48 c -0.51971,-0.37798 -1.9371,-2.7403 -1.9371,-2.7403 0,0 -6.5673,-1.4174 -9.9219,-1.5119 -3.3545,-0.0945 -6.0476,0.37797 -7.6068,1.1812 -1.5592,0.8032 -2.5513,2.2679 -2.5513,2.2679 0,0 0.14174,2.1261 -0.04725,2.9766 -0.18899,0.85045 1.5119,-2.0316 1.5119,-2.0316 0,0 4.8192,-1.7481 5.8114,-0.70871 0.99219,1.0394 5.2444,-0.51972 6.0476,0.14174 0.8032,0.66146 5.2917,0.42523 5.2917,0.42523 z"
           fill="#000103"
           id="path187" />
        <path
           d="m 84.658,163.47 c 0,0 0.33409,-1.7372 1.637,-2.1048 1.3029,-0.36749 7.7508,-1.3364 8.6863,-1.1693 0.93544,0.16704 0.56795,-0.33409 2.5725,0.33409 2.0045,0.66817 3.0858,1.8554 3.4198,2.1226 0.20333,0.16266 -0.046,1.5997 -0.62222,1.4526 -0.37057,-0.0946 -1.0426,-1.745 -1.2649,-1.8234 -0.56795,-0.20045 -1.8668,-1.7518 -2.6018,-1.685 -0.73499,0.0668 -3.4239,0.002 -3.7914,0.10261 -0.3675,0.10022 -3.7256,0.86625 -4.2267,1.1669 -0.50113,0.30068 -1.7707,0.63477 -2.4054,0.86863 -0.63476,0.23386 -1.4032,0.73499 -1.4032,0.73499 z"
           fill="#515052"
           fill-opacity="0.91765"
           id="path189" />
        <path
           d="m 85.025,163.6 c 0,0 1.5368,-1.5368 3.2741,-1.9043 1.7373,-0.3675 3.1738,-1.5368 3.9088,-0.93544 1.0023,-0.0668 3.3743,-0.43432 4.5102,-0.16704 1.1359,0.26726 2.3052,1.47 2.8397,2.0379 0.53454,0.56795 0.85883,2.0167 0.85883,2.0167 0,0 -0.95906,-1.1481 -1.3934,-1.3485 -0.43431,-0.20045 -2.0045,-1.5368 -3.6415,-1.5702 -1.637,-0.0334 -2.6727,-0.10022 -3.3409,0.13364 -0.66817,0.23386 -2.486,1.0481 -3.5079,1.3363 -1.3029,0.3675 -1.4032,0.73499 -2.0379,0.90203 -0.50113,0.43432 -1.47,-0.50112 -1.47,-0.50112 z"
           fill="#de5000"
           id="path191" />
        <path
           d="m 86.666,164.07 c 0,0 3.8365,1.3506 5.2067,1.4451 1.3702,0.0945 3.3775,0.65671 4.9366,0.23149 1.5592,-0.42523 3.638,-1.2284 3.638,-1.2284 l 0.56697,0.56697 c 0,0 -1.6064,1.0867 -3.3073,2.0316 -1.7009,0.94494 -4.5357,2.1734 -5.9531,2.1261 -1.4174,-0.0472 -5.1452,0.0749 -5.7594,0.0749 -0.61421,0 -0.72017,-1.8231 -0.62567,-3.4767 0.09449,-1.6536 0.22812,-1.9715 0.22812,-1.9715 z"
           fill="#515052"
           fill-opacity="0.91765"
           id="path193" />
      </g>
      <g
         stroke-width="0"
         id="g207">
        <path
           d="m 117.13,163.97 -1.8041,-4.2763 5.3454,-2.4054 c 0,0 6.5481,-1.0691 7.6172,-0.46772 1.0691,0.60138 7.2831,0.60136 7.2831,0.60136 l 3.8086,0.4009 -1.6704,4.2095 -2.6059,1.7372 c 0,0 -7.2831,-4.5436 -11.092,-3.5413 -3.8089,1.0023 -6.214,2.5391 -6.8822,3.7418 z"
           fill="#ff312e"
           id="path197" />
        <path
           d="m 76.974,159.36 -0.45102,-1.3698 c 0,0 -1.0858,-0.26726 -1.5201,0.23386 -0.43431,0.50114 -0.95215,1.0691 -0.80181,1.5368 0.15034,0.46773 0.60136,1.4366 0.95215,1.8876 0.35079,0.45101 0.35079,0.55124 0.93544,1.3698 0.58465,0.81852 0.35079,1.4199 0.60136,1.7206 0.25056,0.30068 0.65147,-0.33409 0.48443,-1.2027 -0.16704,-0.86863 -0.23386,-2.2718 -0.15034,-2.4555 0.08352,-0.18375 -0.05011,-1.7206 -0.05011,-1.7206 z"
           fill="#de5000"
           id="path199" />
        <path
           d="m 76.918,163.57 -1.7009,10.394 2.4568,9.2604 8.344,9.8519 14.241,-10.677 1.3,-5.5928 -11.601,-3.0319 -7.7485,-4.5357 z"
           fill="#ffff00"
           id="path201" />
        <path
           d="m 75.194,162.09 c 0,0 0.3071,1.63 0.3071,2.2442 0,0.61422 -0.47247,4.016 -0.47247,4.4412 0,0.42522 -0.23624,1.7481 -0.11812,2.2678 0.11812,0.5197 0.09449,2.008 0.25986,2.5041 0.16536,0.4961 0.89769,1.9135 1.2757,1.9135 0.37801,0 0.30711,-1.252 0.30711,-1.4883 v -1.1339 c 0,-1.0394 0.07087,-4.0869 0.07087,-4.0869 v -1.8899 l 0.11812,-0.87407 -0.21261,-1.1103 -0.49609,-1.5828 -0.92132,-1.1339 z"
           fill="#33e438"
           id="path203" />
        <path
           d="m 107.22,160.84 -0.58318,12.551 0.26727,5.7463 2.5782,-1.8575 0.29297,-18.323 z"
           fill="#fffffa"
           id="path205" />
      </g>
      <g
         stroke-width="0"
         id="g219">
        <path
           d="m 114.34,173.75 c 0,0 1.4093,5.8274 0.67431,6.5624 -0.73499,0.735 4.0401,1.0786 4.441,1.8136 0.4009,0.73499 -0.31788,-4.9783 -1.3201,-5.3124 -1.0023,-0.33409 -3.7952,-3.0635 -3.7952,-3.0635 z"
           fill="#515052"
           fill-opacity="0.91765"
           id="path209" />
        <path
           d="m 98.689,181.81 c 0,0 -1.1912,0.96509 -0.18899,2.836 1.0023,1.8709 1.8223,-0.54682 3.1586,-0.68045 1.3363,-0.13364 5.5257,1.6388 5.8598,2.9752 0.33409,1.3364 0.75792,0.97656 2.0943,1.2438 1.3363,0.26727 2.5754,-0.82949 2.8427,-1.364 0.2673,-0.53451 1.2715,-2.8597 2.8751,-2.5924 1.1034,1.6677 2.1059,-0.61361 3.8791,1.6231 0.84829,1.07 1.3685,-3.5466 0.52219,-4.2025 -0.86863,-0.53455 -5.1402,-1.1082 -5.942,-0.97458 -0.56651,0.0944 -8.5699,-0.22283 -12.777,0.45651 -0.79662,0.12863 -2.3235,0.67938 -2.3235,0.67938 z"
           fill="#ff312e"
           id="path211" />
        <path
           d="m 76.729,174.25 0.75595,5.6696 1.9844,5.2917 6.6146,5.7641 c 0,0 -0.66146,-1.1339 1.3229,1.3229 1.9844,2.4568 2.0789,8.6934 2.0789,8.6934 l 0.66146,3.5908 c 0,0 0.85044,0.94494 2.2679,4.1577 1.4174,3.2128 6.4256,4.9137 9.4494,5.1027 3.0238,0.18898 5.2917,-3.8743 4.5357,-5.5752 -0.75596,-1.7009 0.35505,-4.1368 0.35505,-4.1368 l 4.5033,0.11071 c 0,0 -0.79509,1.6637 -0.32262,3.6481 0.47247,1.9844 1.5119,5.3862 2.0789,5.4807 0.567,0.0945 4.0632,0.18898 5.1027,-0.37798 1.0394,-0.56696 5.3862,-1.8899 6.8036,-4.8192 1.4174,-2.9293 5.9531,-5.7641 5.7641,-9.1659 -0.18899,-3.4018 -0.56697,-5.2917 -0.56697,-5.2917 0,0 9.0714,-7.1816 9.0714,-8.7879 0,-1.6064 2.0789,-7.9375 1.4174,-8.599 -0.6615,-0.6615 0.85045,-2.7403 0.85045,-3.3073 0,-0.56697 0.37797,4.4412 0.37797,4.4412 0,0 -0.78757,5.8004 -1.6064,8.599 -0.40077,1.3698 -1.138,2.6206 -1.6064,3.9688 -0.95855,2.7587 -1.1052,5.8211 -2.4568,8.41 -1.3478,2.5815 -5.4806,6.8036 -5.4806,6.8036 0,0 -7.465,7.1816 -11.056,9.1659 -3.5908,1.9844 -4.5357,3.6853 -8.5045,3.6853 -3.9688,0 -10.678,0.94494 -13.135,-0.75595 -2.4568,-1.7009 -6.2366,-5.1027 -7.0871,-6.1421 -0.85045,-1.0394 -1.7954,-3.1183 -3.7798,-5.6696 -1.9844,-2.5513 -4.8192,-4.8192 -5.3862,-6.3311 -0.56696,-1.5119 -3.2128,-9.9219 -3.1183,-9.4494 0.09449,0.47247 -1.1339,-3.5908 -1.6064,-6.1421 -0.47247,-2.5513 -0.94494,-4.7247 -0.56696,-6.2366 0.37798,-1.5119 0.28348,-3.1183 0.28348,-3.1183 z"
           fill="#515052"
           fill-opacity="0.9798"
           id="path213" />
        <path
           d="m 104.09,179.73 c 0,0 -1.1339,-0.0945 -0.56696,1.3702 0.56696,1.4646 1.4647,0.89769 2.6931,1.7009 1.2284,0.80321 1.8426,1.3229 2.4568,1.6536 0.61422,0.33073 3.449,-0.8977 3.449,-0.8977 l 0.89769,-1.2284 2.1734,-0.47247 c 0,0 0.75596,-2.5041 -0.56696,-3.1183 -1.32292,-0.6142 -3.0238,-1.6064 -3.0238,-1.6064 0,0 -3.7798,-0.33073 -5.5279,0.89769 -1.7481,1.22842 -1.9844,1.7009 -1.9844,1.7009 z"
           fill="#ff9955"
           id="path215" />
        <path
           d="m 126.24,179.64 4.5357,8.3155 c 0,0 6.179,0.20371 8.2402,-1.6979 1.4812,-1.3665 1.3529,-3.9117 1.6922,-5.804 0.31511,-1.7574 0.27302,-5.3492 0.27302,-5.3492 l -0.34665,-7.834 -0.35297,-3.594 -8.118,5.8501 z"
           fill="#33e438"
           id="path217" />
      </g>
      <g
         fill="#fffffa"
         stroke-width="0"
         id="g227">
        <circle
           cx="123.57"
           cy="162.2"
           r="0.63783002"
           style="paint-order:stroke markers fill"
           id="circle221" />
        <ellipse
           cx="125.24"
           cy="163.74001"
           rx="1.1694"
           ry="1.2048"
           style="paint-order:stroke markers fill"
           id="ellipse223" />
        <ellipse
           cx="94.165001"
           cy="163.39"
           rx="1.1694"
           ry="1.2048"
           style="paint-order:stroke markers fill"
           id="ellipse225" />
      </g>
      <g
         id="g249">
        <path
           d="m 114.24,123.79 c 0,0 3.9688,-2.8348 4.0632,-4.4412 0.0944,-1.6064 1.7954,-3.3073 1.2284,-4.9137 -0.567,-1.6064 -1.4174,-6.1421 -1.4174,-6.1421 0,0 3.7798,4.9137 3.9688,6.3311 0.189,1.4174 2.1734,6.5201 1.4174,7.9375 -0.756,1.4174 0,2.7403 -4.8192,1.9844 -4.8192,-0.75595 -4.4412,-0.75595 -4.4412,-0.75595 z"
           fill="#000301"
           filter="url(#filter4886)"
           stroke="#000000"
           stroke-width="0.26458px"
           id="path229" />
        <path
           d="m 76.573,157.75 c 0,0 -2.2718,-13.831 -1.2695,-16.303 1.0023,-2.4722 -0.13364,-4.2763 -0.13364,-4.2763 0,0 -0.86862,-0.60136 -1.3363,-1.0023 -0.46772,-0.4009 0.06682,-4.41 1.6036,-7.0158 1.5368,-2.6059 2.94,-3.9422 2.94,-3.9422 0,0 -0.06681,-4.744 -2.6727,-4.8777 -2.6059,-0.13363 -4.3431,-0.0668 -4.3431,-0.0668 0,0 0.66817,-2.3386 2.6727,-2.4054 2.0045,-0.0668 2.3386,-0.86863 2.3386,-0.86863 l -4.6104,-0.93544 c 0,0 -2.0713,0.13363 1.2027,-0.73499 3.274,-0.86863 5.6795,-4.8108 5.6795,-4.8108 0,0 4.2763,-0.80181 3.8086,-2.1382 -0.46772,-1.3364 -1.0691,-3.3409 0.66817,-3.8754 1.7373,-0.53454 1.8041,-0.66817 1.8041,-0.66817 0,0 9.2876,-0.86863 10.424,-2.6727 1.1359,-1.8041 7.0826,-1.6036 9.9558,-2.0045 2.8732,-0.4009 8.0849,6.214 10.424,5.1449 2.3386,-1.0691 3.8073,0.97291 3.8073,0.97291 0,0 -3.9688,-4.5357 0.94494,-2.5513 4.9137,1.9844 11.717,6.9926 12.946,8.8824 1.2284,1.8899 0.28347,3.6853 3.6853,3.8742 3.40183,0.1889 0.37798,-3.0238 2.0789,-3.3073 1.70092,-0.2835 2.5513,6.1421 3.3073,7.3705 0.75595,1.2284 7.465,0 3.2128,2.6458 -4.2522,2.6458 -7.087,6.0476 -4.0632,5.7641 3.0238,-0.28349 8.032,-1.6064 9.2604,-1.5119 1.2284,0.0945 -2.0789,0.94494 -4.7247,2.9293 -2.6458,1.9844 -3.4963,3.9688 -3.4963,3.9688 l 3.8743,3.5908 -3.9688,-0.18899 -1.3229,1.3229 c 0.66146,0.47247 1.3229,6.9926 0.18899,12.095 -1.13391,5.1024 -0.66146,7.1816 -0.66146,7.1816 l -1.5119,-10.111 c 0,0 -1.4174,-6.2366 -2.3624,-9.9219 -0.945,-3.6853 -4.7247,-7.0871 -8.032,-7.3705 -3.3073,-0.2834 -3.5908,-1.7009 -7.7485,-0.94494 -4.1577,0.75596 -2.8348,5.5752 -8.032,2.9293 -5.1972,-2.6458 -7.5595,-5.4807 -11.056,-4.0632 -3.4965,1.4175 -8.7879,3.9688 -9.5439,1.2284 -0.75595,-2.7403 -1.5119,-3.5908 -4.6302,-0.66146 -3.1183,2.9293 -7.3705,6.0476 -7.7485,10.3 l -0.37798,4.2522 c 0,0 -1.0394,-0.56696 -1.7954,2.2679 l -0.75595,2.8348"
           fill="#000103"
           filter="url(#filter4886)"
           stroke="#000000"
           stroke-width="0.26458px"
           id="path231" />
        <path
           d="m 85.517,113.11 c 0,0 5.6031,0.95736 7.843,2.5513 2.1249,1.5122 4.7247,6.2366 4.7247,6.2366 0,0 2.3623,2.2678 1.5119,2.2678 -0.85044,0 -2.7403,1.3229 -2.7403,1.3229 z"
           fill="#ff312e"
           filter="url(#filter4886)"
           id="path233" />
        <path
           d="m 112.64,118.22 c 0,0 0.39671,2.3802 0.59506,3.5703 0.21112,1.2667 0.63337,3.8002 0.63337,3.8002 l -2.6458,0.0945 c 0,0 -1.7954,-1.6064 -1.0394,-4.5357 0.75595,-2.9293 -7.465,-5.7641 -7.465,-5.7641 0,0 9.5439,1.2284 9.9219,2.8348 z"
           fill="#ffff00"
           filter="url(#filter4886)"
           id="path235" />
        <path
           d="m 125.77,128.8 1.3229,-2.8348 2.2679,-3.4018 4.8192,-4.1577 2.3624,-3.0238 0.75595,0.37797 -2.1734,3.3073 -4.3467,3.6853 -3.6853,7.3233 c -0.44549,-0.42522 -3.2209,-0.85045 -1.3229,-1.2757 z"
           fill="#504f51"
           filter="url(#filter4886)"
           id="path237" />
        <g
           stroke-width="0"
           id="g247">
          <path
             d="m 98.489,148.8 9.3544,0.93544 6.4145,-1.6036 c 0,0 0.25646,-2.5229 2.2443,-3.1594 1.091,-0.34936 3.0304,0.75663 4.972,1.0881 5.479,0.93545 7.4835,4.8777 4.1427,4.8777 -3.3409,0 -8.8199,1.8709 -8.8199,1.8709 l -6.4145,2.6727 c 0,0 -2.0045,-1.3363 -8.6863,-4.009 -6.6817,-2.6727 -3.2072,-2.6727 -3.2072,-2.6727 z"
             fill="#fffffa"
             id="path239" />
          <path
             d="m 118.53,125.41 c -1.2027,0 -2.2718,3.2072 -2.2718,3.2072 l -1.0691,10.023 -3.5413,5.3454 11.426,3.0736 6.4145,2.4054 11.092,6.214 -0.46772,-4.0759 c 0,0 2.2718,-7.6172 -1.0691,-11.893 -3.3409,-4.2763 -2.205,-11.894 -9.5549,-13.631 -7.3499,-1.7372 -10.958,-0.66817 -10.958,-0.66817 z"
             fill="#ff312e"
             id="path241" />
          <path
             d="m 93.945,131.69 -2.7795,6.9949 c 0,0 8.7795,-1.8699 11.977,2.354 3.1979,4.2239 8.3083,3.881 8.3083,3.881 l 5.3454,-9.0872 -0.74333,-4.3244 -4.2012,-1.6892 -13.898,-4.2763 z"
             fill="#ffff00"
             id="path243" />
          <path
             d="m 76.84,146.79 c 0,0 3.2072,-7.3499 3.7418,-9.4881 0.53454,-2.1382 -1.7373,-7.8845 2.94,-9.6217 4.6773,-1.7372 11.76,-2.6727 15.234,-1.7372 3.4745,0.93544 -0.80181,5.2118 -3.0736,4.9445 -2.2718,-0.26727 -1.0691,1.0691 -3.2072,5.7463 -2.1382,4.6772 5.6127,12.294 2.94,12.428 C 92.7423,149.19544 76.84,146.79 76.84,146.79 Z"
             fill="#33e438"
             id="path245" />
        </g>
      </g>
      <path
         d="m 118.31,168.3 1.8899,1.6064 2.3624,1.7009 1.4174,0.94494 -5.2917,-4.3467 z"
         fill="none"
         stroke="#000000"
         stroke-width="0.26458px"
         id="path251" />
      <g
         id="g269">
        <path
           d="m 140.58,163.5 c 0,0 1.2048,2.1261 1.2284,2.7403 0.0236,0.61421 0.33073,3.5908 0.18899,4.0632 -0.14174,0.4724 0,1.8426 -0.0945,2.2206 -0.0945,0.37798 -0.4961,0.87407 -0.56697,0.99219 -0.0709,0.11812 -0.7087,0.11812 -0.7087,0.11812 l -0.4961,-5.3625 -0.7087,-3.9451 z"
           fill="#000103"
           stroke="#000000"
           stroke-width="0.26458px"
           id="path253" />
        <g
           stroke-width="0"
           id="g267">
          <path
             d="m 91.376,201.37 -1.6064,3.9688 2.0789,4.0632 8.1265,6.1421 5.6696,-1.1339 1.7954,-4.4412 0.0945,-5.0082 -8.9311,-5.9436 -1.4431,-1.3668 z"
             fill="#ff9955"
             id="path255" />
          <path
             d="m 110.65,204.39 -0.0668,6.0136 2.205,3.8086 6.949,-0.80181 4.8777,-3.5413 2.4722,-3.7418 3.5231,-4.526 -4.3918,-2.2226 -4.2095,-0.60136 -11.025,5.5458 z"
             fill="#33e438"
             id="path257" />
          <path
             d="m 97.286,197.91 0.06682,0.0668 4.8777,2.6727 7.3499,1.2027 8.7531,-0.60136 2.6727,-1.5368 0.3341,-1.5368 -6.6817,0.13364 z"
             fill="#070102"
             id="path259" />
          <path
             d="m 140.04,158.94 0.75595,-1.1103 c 0,0 0.94494,-0.18899 1.1576,0.21261 0.21266,0.4016 1.0394,1.0394 0.66146,2.0552 -0.37798,1.0158 -1.9844,3.4254 -2.1497,3.4254 -0.16536,0 -0.42522,-4.4885 -0.42522,-4.4885 z"
             fill="#33e438"
             id="path261" />
          <path
             d="m 96.885,198.01 c 0,0 3.675,0.0334 5.5458,0.43432 0.13639,0.054 7.0158,1.3364 9.0872,0.86862 2.0713,-0.46772 2.7395,-0.66817 2.7395,-0.66817 0,0 4.4768,0.20045 4.6772,-0.26727 0.2004,-0.46772 2.0045,0.4009 2.205,0.0668 0.20046,-0.33409 -0.66817,-0.86863 -1.6704,-1.3364 -1.00223,-0.46777 -5.2118,-1.8041 -6.0136,-1.6704 -0.8018,0.13363 -4.009,1.4032 -4.009,1.4032 0,0 -2.8063,-1.5368 -3.274,-1.5368 -0.4677,0 -8.6194,1.5368 -9.2876,2.3386 -0.66817,0.80181 1e-6,0.36751 1e-6,0.36751 z"
             fill="#ff345f"
             id="path263" />
          <path
             d="m 115.39,203.32 -2.0713,1.0691 c 0,0 -7.8176,0.20045 -8.2185,-0.13364 -0.4009,-0.33408 -2.5391,-0.86862 -3.2072,-1.47 -0.66817,-0.60135 -4.4768,-3.2072 -4.4768,-3.2072 l -0.66818,-1.8041 1.9735,0.80516 5.911,0.86527 c 0,0 1.6036,1.0691 2.94,1.2027 1.3363,0.13364 4.2763,0 6.4145,-0.8018 2.1382,-0.80181 5.2786,-0.33409 6.2808,-0.735 1.0023,-0.4009 1.4032,-0.46772 1.4032,-0.46772 0,0 -1.3364,2.6059 -2.2718,2.6059 -0.93544,0 -4.009,2.0713 -4.009,2.0713 z"
             fill="#d21b42"
             id="path265" />
        </g>
      </g>
    </g>
  </g>
</svg>
