<svg xmlns="http://www.w3.org/2000/svg" xmlns:svg="http://www.w3.org/2000/svg" xmlns:xlink="http://www.w3.org/1999/xlink" id="svg8" width="1174.751" height="583.936" version="1.1" viewBox="0 0 310.82 154.5"><defs id="defs2"><linearGradient id="linearGradient4752"><stop style="stop-color:#2a70f8;stop-opacity:1" id="stop4748" offset="0"/><stop style="stop-color:#ff80e5;stop-opacity:1" id="stop4750" offset="1"/></linearGradient><linearGradient id="linearGradient4762" x1="117.064" x2="126.418" y1="153.476" y2="140.915" gradientTransform="matrix(1.0465324,0,0,0.97240558,37.478878,-21.838217)" gradientUnits="userSpaceOnUse" xlink:href="#linearGradient4752"/><linearGradient id="linearGradient4727" x1="16.808" x2="287.003" y1="260.543" y2="85.215" gradientTransform="matrix(0.9690441,0,0,1,-60.179416,10.796414)" gradientUnits="userSpaceOnUse" xlink:href="#linearGradient4752"/><linearGradient id="linearGradient4740" x1="64.523" x2="213.125" y1="205.396" y2="162.633" gradientTransform="matrix(0.9690441,0,0,1,-60.179416,10.796414)" gradientUnits="userSpaceOnUse" xlink:href="#linearGradient4746"/><linearGradient id="linearGradient4746"><stop id="stop4742" offset="0" style="stop-color:#116afc;stop-opacity:1"/><stop id="stop4744" offset="1" style="stop-color:#f3a1da;stop-opacity:1"/></linearGradient><linearGradient id="linearGradient4775" x1="117.064" x2="126.418" y1="153.476" y2="140.915" gradientTransform="matrix(1.0069369,0,0,0.97240558,-29.524808,-26.008897)" gradientUnits="userSpaceOnUse" xlink:href="#linearGradient4752"/><linearGradient id="linearGradient4758" x1="117.064" x2="126.418" y1="153.476" y2="140.915" gradientTransform="matrix(0.962165,0,0,1,-65.585676,-4.1706801)" gradientUnits="userSpaceOnUse" xlink:href="#linearGradient4752"/></defs><metadata id="metadata5"/><g id="layer1" transform="translate(118.66736,-67.563002)" style="display:inline"><g id="g936" transform="matrix(1.0393228,0,0,1,-58.520754,-30.233411)" style="display:inline;stroke-width:.9809"><g id="g946" transform="matrix(0.99290116,0,0,1,7.1747275,-12.096897)" style="opacity:1;fill:url(#linearGradient4727);fill-opacity:1;stroke-width:2.95321;stroke-miterlimit:4;stroke-dasharray:none"><path id="path34" d="m 146.0878,138.53349 c 0,0 7.65401,-2.55134 9.4494,-1.98438 1.79539,0.56697 7.55952,0.37798 7.55952,0.37798 0,0 10.29985,4.25223 14.07962,1.70089 3.77976,-2.55134 8.50446,-10.86681 8.50446,-10.86681 0,0 6.61459,-7.55953 13.32366,-9.16593 6.70908,-1.6064 13.41816,-0.75595 16.63095,0.47247 3.2128,1.22842 10.77233,6.4256 11.33929,8.40997 0.56696,1.98438 5.38616,6.3311 7.27604,12.37872 1.88988,6.04762 1.7009,17.57589 0.66146,19.46578 -1.03944,1.88988 -1.70089,9.54389 -7.08705,15.30803 -5.38616,5.76414 -6.96704,4.89423 -9.35491,8.31548 -2.80869,4.02419 -7.46226,11.08267 -6.98979,16.37433 9.54371,38.24245 -24.07913,69.3286 -62.08536,42.11751 -10.64647,-11.86957 -16.47961,-6.21735 -25.98587,1.7009 -4.7247,3.87425 -17.23427,8.75552 -26.116712,6.67665 -8.882439,-2.07887 -17.823016,-6.86564 -24.437599,-17.25999 -19.141541,-31.52326 -2.871214,-62.40599 21.111315,-71.17694 7.043506,-2.57597 18.103716,0.96786 22.355946,-0.26056 4.25223,-1.22842 9.15069,-5.53988 12.37872,-10.20535 3.22803,-4.66547 9.44941,-8.88244 9.44941,-8.88244 z M -35.814117,264.39312 c -66.817383,0 0,0 0,0 z" style="opacity:1;fill:url(#linearGradient4740);fill-opacity:1;stroke:#000;stroke-width:0;stroke-linecap:butt;stroke-linejoin:miter;stroke-miterlimit:4;stroke-dasharray:none;stroke-opacity:1"/></g><g id="g4844" style="stroke-width:.9809"><path id="rect16" d="m 126.68576,112.04949 c 23.98691,0 43.29766,2.86086 43.29766,6.41448 v 66.28282 c 0,3.55362 -19.31075,6.41448 -43.29766,6.41448 -23.98691,0 -43.297666,-2.86086 -43.297666,-6.41448 v -66.28282 c 0,-3.55362 19.310756,-6.41448 43.297666,-6.41448 z" style="opacity:0;fill:red;fill-opacity:1;stroke:#0ff;stroke-width:.74156;stroke-miterlimit:4;stroke-dasharray:none;stroke-dashoffset:0;stroke-opacity:1;paint-order:fill markers stroke"/><ellipse id="path841" cx="119.737" cy="148.131" rx="5.88" ry="6.682" style="opacity:0;fill:#f0f;fill-opacity:1;stroke:#0ff;stroke-width:0;stroke-miterlimit:4;stroke-dasharray:none;stroke-dashoffset:0;stroke-opacity:1;paint-order:fill markers stroke"/><ellipse id="ellipse4760" cx="157.322" cy="107.215" rx="9.016" ry="9.418" style="opacity:1;fill:url(#linearGradient4775);fill-opacity:1;stroke:#0ff;stroke-width:0;stroke-miterlimit:4;stroke-dasharray:none;stroke-dashoffset:0;stroke-opacity:1;paint-order:fill markers stroke"/><ellipse style="opacity:1;fill:url(#linearGradient4758);fill-opacity:1;stroke:#0ff;stroke-width:0;stroke-miterlimit:4;stroke-dasharray:none;stroke-dashoffset:0;stroke-opacity:1;paint-order:fill markers stroke" id="ellipse4756" cx="114.158" cy="133.14" rx="8.616" ry="9.686"/><ellipse style="opacity:1;fill:#f4a1da;fill-opacity:1;stroke:#0ff;stroke-width:0;stroke-miterlimit:4;stroke-dasharray:none;stroke-dashoffset:0;stroke-opacity:1;paint-order:fill markers stroke" id="ellipse4764" cx="231.623" cy="187.93" rx="9.016" ry="9.418"/></g></g></g></svg>