<?xml version="1.0" encoding="UTF-8"?>
<!-- Created with Inkscape (http://www.inkscape.org/) -->
<svg width="1641.4" height="1028.6" version="1.1" viewBox="0 0 434.3 272.14" xmlns="http://www.w3.org/2000/svg">
 <defs>
  <filter id="filter167978" x="-.21835" y="-.41076" width="1.432" height="1.8149" color-interpolation-filters="sRGB">
   <feGaussianBlur stdDeviation="2.6191969"/>
  </filter>
  <clipPath id="clipPath246669">
   <rect x="-38.884" y="5.2917" width="562.76" height="273.26" fill="#ff822d" style="paint-order:stroke markers fill"/>
  </clipPath>
 </defs>
 <g>
  <path d="m176.93 230.26s9.1408-0.43675 9.273-4.5378c0.13229-4.101-0.81645-9.0279-0.81645-9.0279v-2.9104l5.5562 2.7781 23.019 7.4083 24.871-5.6885 1.8521 3.2412s-1.1812 11.498 0.27398 13.615c1.4552 2.1167 29.324 6.1441 29.324 6.1441l-7.2317 4.4639-14.68-0.84992-20.915-2.2722z" fill="#ff822d"/>
  <path d="m181.26 143.79s2.1167-9.7896 14.552-12.7c12.435-2.9104 23.548-5.5562 31.75-0.26458 8.2021 5.2917 20.902 15.61 22.225 21.167 1.3229 5.5562 1.8002 30.348 1.9873 32.968 0.18709 2.6192-2.058 15.341-2.058 15.341s-2.2451 10.664-4.5837 13.845c-2.3386 3.1805-4.5837 8.6061-4.5837 8.6061l-3.087 5.2385s-8.0916 10.945-11.553 11.787c-3.4612 0.8419-11.038 2.3854-15.341 0.0468-4.303-2.3386-9.2609-7.0158-9.2609-7.0158l-7.998-7.0626s-4.3213-4.643-5.9401-7.3432c-1.5506-2.5866-2.3793-5.5739-3.5226-8.3335-1.2761-3.0801-4.4755-10.282-4.4755-10.282l-1.3096-6.4078-0.79513-5.1917-1.5902-5.0046-0.93545-7.2965v-7.4835s-0.18708-8.3254 1.029-9.5883c1.2161-1.2628 0.44915-2.5658 2.0594-7.8696 0.74172-2.4432 3.431-7.1545 3.431-7.1545z" fill="#f95" style="mix-blend-mode:normal"/>
  <path transform="translate(-42.553 -5.2917)" d="m216.74 170.34s1.9644-3.274 2.8063-7.4836l0.8419-4.2095s0.37418-5.6127 3.7418-7.4836c3.3676-1.8709 2.8063-2.4322 2.8063-2.4322s4.2095-3.8353 4.2095-5.0514c0-1.2161 3.9289-5.7998 7.8577-6.0804 3.9289-0.28064 10.196 4.0224 11.6 4.6772s1.2161 0.74835 1.2161 0.74835 3.5547-1.3096 7.6706-4.6772 11.599 2.7128 11.599 2.7128 4.5837 6.4546 11.599 10.851c7.0158 4.3966 7.1094 10.29 7.1094 10.29l0.46773 7.6706 2.2451 10.009 9.1673 1.9644 4.2095-2.3386 2.3496-10.707 1.3229-9.2604s5.9531 0.79375 8.599-0.92604c2.6458-1.7198 15.015-3.3073 15.015-3.3073l10.716-0.99218s7.3422 0.33073 9.988 1.1245c2.6458 0.79375 9.7896 0.92604 9.7896 0.92604s10.253 1.2568 13.295-0.52917 17.132-7.8714 19.381-11.311c2.249-3.4396 9.8557-8.4667 9.8557-8.4667s5.3818-5.9255 7.6729-9.1943c13.8-19.688 15.217-50.762 36.292-62.333 38.116-20.927 28.361-59.406 12.848-82.522-51.792-77.17-127.59-116.56-271.21-64.697-50.89 18.378-145.52 19.625-138.33 106.79 1.9277 23.382-21.864 34.509-4.2648 84.225 35.724 51.589 68.316 18.915 100.28 33.855 9.2555 4.3266 17.143 11.165 26.147 15.993 5.4096 2.9006 13.142 4.7735 16.696 7.7669 3.5547 2.9934 24.415 4.3966 24.415 4.3966z" clip-path="url(#clipPath246669)" stroke="#000" stroke-width=".26458px"/>
  <path d="m254.08 133.95s0.21173 4.3333 0.28064 6.5013c0.0728 2.2912-0.44273 4.6586 0.14031 6.8755 0.2342 0.89049 0.72632 1.7197 1.3096 2.4322 0.60319 0.73676 1.2932 1.5283 2.1983 1.8241 1.2174 0.39788 3.8353-0.23386 3.8353-0.23386l3.1338-0.56127s-1.8305-2.4468-1.6838-3.8353c0.21174-2.0041-0.23388-6.5949-0.23388-6.5949l-0.56126-5.0514-0.56126-1.9177s-2.6192-1.029-4.8175-0.37417-3.0402 0.93544-3.0402 0.93544z" fill="#0e218e"/>
  <path d="m155.39 148.59s2.1515-1.4032 4.8643-1.4967c2.7128-0.0936 4.5837-0.0936 4.5837-0.0936l0.65481 8.1384 0.37417 4.303-2.1515 1.3096s-3.9289 1.3096-4.9578 0.74836c-1.029-0.56127-3.087-8.8867-3.3676-12.909z" fill="#0d1e82"/>
  <path d="m314.1 237.91s0.47292-4.6199 2.1011-5.953c2.8484-2.3323 3.6768-3.6768 3.6768-3.6768s-2.101-0.87544-0.70035-2.8014c1.4007-1.926 7.3537-6.3032 7.3537-6.3032s5.953 1.0505 8.9295 3.1516c2.9765 2.1011 3.6768 1.5758 3.6768 1.5758s1.2256 4.7274 1.4007 7.1786c0.1751 2.4512 7.5288 7.0035 7.5288 7.0035l2.101 3.6768-1.2256 1.5758-5.6028 4.5523-31.516-5.953z" fill="#f95" style="mix-blend-mode:normal"/>
  <path d="m319.79 228.56 2.0686 0.43296-1.4913 1.4432s-1.4432 6.254-0.28864 7.3123c0.31589 3.3557-4.0448 0.6604-4.9551 0.62539l-0.98621-0.26459s0.19242-3.6802 1.1305-5.2678c0.93808-1.5875 4.5221-4.2816 4.5221-4.2816z" fill="#ff6904"/>
  <path d="m230.13 106.01c-1.1519-5.321 0.58548-11.173 2.9935-16.056 7.4438-15.094 25.079-23.128 33.745-37.555 7.359-12.251 13.054-38.097 14.695-40.276 1.8228-0.0673 1.4335 21.759 0.68034 25.717-0.37463 1.9688-24.529 34.591-39.052 50.209-3.8772 4.1699-7.5312 9.1244-8.7084 14.695-0.79319 3.7539 4.9453 10.062 1.3607 11.43-3.1035 1.1845-5.012-4.9175-5.7149-8.1641z" fill="#1a1a1a"/>
  <path d="m192.71 107.51s-1.7689-10.749-4.082-12.382c-2.3132-1.6328-1.6328-13.879-1.6328-13.879s-1.7689-21.771 2.041-28.846 7.3477-17.417 7.3477-17.417 3.2656-30.207 0.40821-32.248c-2.8574-2.041 1.3607-0.27214 1.3607-0.27214s8.7084 11.702 8.7084 18.233 3.4017 25.717-1.0885 32.929c-4.4903 7.2116-9.6608 14.968-7.3477 18.777 2.3132 3.8099 14.831 14.015 14.831 14.015s3.6738 9.2526 2.8574 13.743c-0.81641 4.4903-0.68035 7.0756-0.68035 7.0756z" fill="#1a1a1a"/>
 </g>
 <g transform="translate(-42.553 -5.2917)" style="mix-blend-mode:normal">
  <g>
   <path d="m192.8 170.16 2.5016-2.9826v-2.0205l6.0615-0.96215 0.86594 2.5978-1.2508 3.1751 0.28865 8.082 1.2508 5.0994-0.28864 2.8864h-5.6767l-1.9243-7.9858-2.3092-2.4054-1.0584-4.4259z" fill="#f95" style="mix-blend-mode:normal"/>
   <path d="m356.08 219.55c1.3031-0.58596 2.1025-0.88335 3.3704-1.0408 0.8793-0.10919 10.427-0.0802 14.584 1.0291 5.7698 1.5396 11.712 3.8623 15.493 8.916s5.2629 15.144 4.6772 19.44-0.702 6.0138-2.9233 5.2619 1.1865-4.9099 1.1693-7.9659c-0.0172-3.056 0.0137-6.5405-1.6078-10.158s-4.0004-7.56-8.5505-10.451-13.837-4.321-18.27-4.6041-6.637 0.50244-7.7554 0.92959-3.1244-0.0356-0.18709-1.3564z" stroke="#000" stroke-width=".26458px"/>
   <path d="m188.38 217.22s12.831 2.7934 16.105 5.2255c3.274 2.4322 17.306 12.348 21.422 13.564 4.116 1.2161 13.845 2.8999 13.845 2.8999l41.44 8.2319 17.256 1.8288s11.112-1.1906 12.237-2.5135c1.1245-1.3229 12.965 1.5214 12.965 1.5214s15.544 3.3734 18.984 8.5328c3.4396 5.1594 4.6302 9.6573 4.6302 9.6573s2.6458-13.097 5.424-19.182c2.7781-6.0854 9.7947-3.0717 9.7947-3.0717l24.509 1.7306s7.7642 3.3676 8.7932 5.2385c1.029 1.8709 3.4611 5.7062 3.087 7.39-0.3742 1.6838-5.4256 8.3255-5.4256 8.3255l-3.5547 9.448-332.08-0.0936s0.0672-9.5204 2.3162-13.688c2.249-4.1672 16.206-19.778 16.206-19.778l13.428-15.28s23.746-22.159 28.773-24.276c5.0271-2.1167 25.268-4.6302 25.268-4.6302s17.095-18.139 20.463-20.197c3.3676-2.058 8.9803-4.303 8.9803-4.303s-1.3096-8.419 1.8709-10.103 11.225-4.8643 11.225-4.8643l7.8577 7.2965 5.6127 23.573 0.74835 16.09z" fill="#d00000" style="mix-blend-mode:normal"/>
   <path d="m63.336 258.52s25.016-24.246 30.596-27.71c5.5805-3.4637 28.672-18.281 28.672-18.281l19.82-13.855s-19.243 1.5394-24.631 4.6183-27.902 23.669-35.215 30.596c-7.3123 6.9275-19.243 24.631-19.243 24.631z" fill="#5a0000" style="mix-blend-mode:normal"/>
  </g>
  <path d="m242.89 241.56s5.1594 9.988 6.6146 10.98 4.0349 5.0932 7.0115 4.8948 7.7391 0.19844 10.054-1.6536c2.3151-1.8521 6.1516-6.1516 6.35-7.1438 0.19844-0.99218-9.3266-2.4474-14.684-2.9766-5.3578-0.52916-15.346-4.101-15.346-4.101z" filter="url(#filter167978)" opacity=".83482" stroke="#000" stroke-width=".26458px"/>
  <g fill="#03071e">
   <path d="m206.11 160.6 3.4443-10.033s3.5127-6.1977 5.5467-9.1156c2.5491-3.6569 5.0456-7.4433 8.3138-10.475 4.606-4.2725 8.7214-7.589 15.6-10.577 10.188-4.425 17.572-3.1022 30.463 0.38083 7.7631 2.0975 14.253 7.7718 20.209 13.176 3.7638 3.4155 8.9958 9.7896 9.525 11.906 0.52917 2.1167 3.7363 3.0342 3.7363 4.0222l2.6458-3.0427-0.60804-1.7893-2.567-2.0472-6.6146-8.7312s-7.8163-10.339-13.097-13.891c-6.0818-4.0903-13.212-7.213-20.505-7.9375-10.554-1.0485-21.984 0.45217-31.353 5.424-10.11 5.3653-17.603 15.124-23.812 24.739-3.0919 4.7877-6.35 14.817-6.35 15.875 0 1.0583-0.72761 2.5962-0.72761 2.5962l0.44649 2.249 0.67799 0.51263 1.0583 0.44648 1.0418 0.1819 2.3978-1.141 0.61185-1.7859z"/>
   <ellipse cx="302.61" cy="147.69" rx="3.678" ry="4.291" style="paint-order:stroke markers fill"/>
   <ellipse cx="203.23" cy="161.45" rx="4.3017" ry="4.4894" style="paint-order:stroke markers fill"/>
  </g>
  <g>
   <ellipse cx="203.23" cy="161.45" rx="3.2433" ry="3.3849" fill="#0d1e82" style="paint-order:stroke markers fill"/>
   <ellipse cx="302.97" cy="147.69" rx="2.9126" ry="3.398" fill="#0d1e82" style="paint-order:stroke markers fill"/>
   <path d="m251.77 110.4c-5.0846 0.1886-10.26 0.49989-15.115 2.1349-6.2355 2.2729-11.62 6.3171-16.662 10.539-3.9068 3.3919-6.9647 7.5961-10.293 11.523-0.57909 0.50901 0.69354 0.74121 0.99596 1.1188 2.8577 1.8848 8.191 5.7869 8.573 5.6548 0.27575-0.0954 3.5389-7.2877 6.5904-9.8865 3.5612-2.8598 7.1815-5.6835 11.116-8.0182 2.6778-1.5661 5.573-2.9812 8.596-3.4523 3.5477-0.54743 7.1709-0.42049 10.705-0.10497 4.845 0.48159 9.667 1.4554 14.432 2.6294 3.5709 1.0091 6.9638 2.953 9.2343 5.9401 0.77018 0.85574 2.0917 0.99135 3.0449 0.36524 1.7347-1.0097 2.9636-2.6634 4.2497-4.1642 0.40959-0.51559 0.81976-1.0307 1.2288-1.5467-4.9866-6.2618-12.518-10.214-20.375-11.419-5.3822-0.95094-10.854-1.3986-16.32-1.3132z" fill="#0b196d"/>
   <path d="m141.02 260.09 3.175-9.7896 11.377-11.112 17.198-9.525 12.435-10.319 2.3812-2.6458 1.3229 4.4979-4.4979 5.8208v11.112l-1.0583 3.9688-1.5875-9.7896 1.3229 32.279-2.9104 8.7312v3.4396l-40.217 0.26458z" fill="#5a0000"/>
   <path d="m161.89 234.43s2.1167-1.1906 4.6302-2.7781 8.7312-4.3656 11.906-7.4083c3.175-3.0427 8.7312-5.6885 8.9958-7.5406-5.9481 15.944-7.3169 2.279-9.9219 14.751 0 1.1245 0.8599 4.5641 0.92604 5.2917 0.0661 0.72761-4.2333-1.9182-5.5562-1.5214-1.3229 0.39687-5.0932 0.85989-4.2333 3.3734 0.85989 2.5135 4.0349 6.813 3.7703 9.4588s-12.634 14.155-15.544 16.272c-2.6684-0.43439-8.614 13.305-15.943 12.722-3.8558-0.30668-19.857 1.5019-21.051-0.81591-1.1409-2.2147 8.5786-5.2779 14.814-11.276 6.0558-5.825 8.585-14.604 10.671-15.712 1.7705-0.94059 5.1578-5.4225 7.8841-8.1641 3.7923-3.8135 8.6524-6.6526 8.6524-6.6526z" fill="#250000" style="mix-blend-mode:normal"/>
   <path d="m186.25 157.67c-1.6029 0.93838-3.3266 1.6708-4.8549 2.7592-0.42974 0.36346-1.1674 1.076-0.52793 1.5787 0.60666 0.29524 1.3531 0.0242 1.9994-0.0457 1.0071-0.26789 2.0066-0.63467 2.9772-0.97184 1.0987 0.92398 2.0796 2.0272 3.1399 3.0126 0.78488 0.81941 1.7055 1.563 2.4075 2.4287 0.56343 2.6444 1.2634 5.2719 1.7152 7.9325 0.0133 2.5536-0.13668 5.1791 0.5725 7.6571 0.52707 1.0359 0.91399 2.1241 1.1206 3.2702 0.64353 2.6638 1.1625 5.3735 1.1497 8.1244 0.19655 4.2252 0.3464 8.4817 1.1523 12.643 0.14738 0.88109 0.65079 1.989 1.6706 2.0016 0.97614-0.24443 1.779-0.96392 2.4331-1.6932 0.45617-0.86137 0.0567-1.7768 0.1373-2.6751-0.18635-4.245-0.26103-8.5016-0.54334-12.738-0.80847-4.3787-1.6046-8.7618-2.7352-13.071-0.95324-3.955-1.8764-7.9169-2.8001-11.879-2.8893-2.8405-5.7795-5.6802-8.668-8.5215-0.11524 0.0625-0.23047 0.125-0.34571 0.1875z" fill="#960000"/>
  </g>
 </g>
 <g>
  <path d="m160.48 216.34c1.6402 2.2846 3.217 4.6356 4.8965 6.8789 2.7662 1.842 5.4739 3.778 8.2762 5.5621 4.6108 2.6295 9.2237 5.2553 13.833 7.8872 2.8735 0.11204 5.7565 0.14039 8.6241 0.30542 14.368 2.7639 28.733 5.5446 43.102 8.2981 5.7721 0.16358 11.545 0.38886 17.317 0.51408 3.9895-0.29566 8.0224-0.52455 11.912-1.5146 1.0094-0.23237 2.0629-0.82721 2.2497-1.939 0.24331-1.0513-0.4842-2.0447-1.3613-2.5449-3.9328 1.4168-7.96 2.862-12.148 3.438-2.0341 0.22659-4.0405-0.37176-6.0506-0.59562-17.192-2.7581-34.382-5.7783-51.496-8.948-4.0601-0.71979-8.027-1.6071-12.047-2.4711-0.71383-0.22996-1.4963-0.0536-2.1971-0.17124-8.0602-5.2201-16.172-10.359-24.285-15.495-0.36309-0.0928-1.4523-0.87643-1.3547-0.531 0.24326 0.44224 0.48652 0.88448 0.72978 1.3267z" fill="#960000"/>
  <path d="m159.6 167.39 3.5079-3.6482 1.637-1.2161 1.3096 1.4032-0.51449 0.8419s-2.6892 1.1777-3.3208 2.3854c-0.91051 1.741-0.24475 3.9344-0.0935 5.8933 0.16318 2.1134 0.93544 5.9868 1.0758 6.2675 0.14032 0.28063 0.78565 2.7323 1.063 4.0692 0.15421 0.74322 0.51477 1.9616 0.81384 2.9127 0.41993 1.3355 0.18111 2.3258 0.18111 2.3258l1.4098 2.3684s-0.89532 0.81215-2.2049 0.76538c-1.3096-0.0468-1.9783-3.3944-2.6192-5.2385-1.7568-5.0543-3.9289-13.143-3.274-15.715s1.029-3.4144 1.029-3.4144z" fill="#cf1757"/>
  <path d="m158.89 159.58 4.3498-0.65481s0.51911 0.75338 0.73701 1.1546c0.5119 0.94264 1.5161 1.8724 1.3323 2.9292-0.39987 2.2994-4.0214 2.8505-4.8804 5.0207-1.0177 2.5713 0.14502 8.2947 0.14502 8.2947l1.8241 6.9223 2.3386 7.1561s4e-3 1.9697-0.70158 2.4322c-0.90738 0.59465-2.3955 0.27553-3.2273-0.42095-4.1623-3.4853-4.3168-10.132-4.9111-15.528-0.37347-3.3912-0.23689-6.9757 0.88867-10.196 0.56778-1.6246 2.8531-4.303 2.8531-4.303z" fill="#370617"/>
  <path d="m260.8 150.7-4.0314-0.51591-1.5075-1.523s-0.70195 0.47753-0.90736 0.83304c-0.28453 0.49246-0.37197 1.6652-0.37197 1.6652l0.72257 0.67185s3.0086 0.32188 3.8413 1.4009c1.3584 1.7604 0.0623 4.6934 0.62182 6.6417 0.98982 3.4464 2.3782 4.7582 2.3188 5.0663-0.0594 0.30808 0.0507 2.8741 0.0423 4.3112-0.0107 1.8248-0.11784 5.4733-0.11784 5.4733l-1e-3 2.7691s0.364 0.43231 1.6124 0.0339c1.2484-0.39843 0.96237-3.8041 1.1087-5.7509 0.42682-5.6801 0.63379-14.774-0.69083-17.074s-1.2506-3.0101-1.2506-3.0101z" fill="#cf1757"/>
  <path d="m261.28 174.45-0.23386 7.1094-0.70157 5.0982-0.28065 2.058 0.46773 1.5902 0.88866 0.74836-0.3274 1.5902 0.46774 0.8419-0.18709 3.5547 0.65479 11.6 0.42095 2.1983s1.3733 5.9559 2.666 8.6996c1.1704 2.4839 2.6464 4.8841 4.5369 6.8755 2.0804 2.1914 4.3641 4.6499 7.2965 5.3788 4.2068 1.0456 8.0916 2.8063 12.862-1.9176 4.7708-4.724 14.593-10.758 14.593-10.758l9.3077-3.5079-0.18709-1.3564s-6.8287 2.1048-9.5415 3.7886c-2.7128 1.6838-5.0982 2.6192-7.0626 4.4434-1.9644 1.8241-5.1439 4.467-8.0448 6.2207-8.4912 5.1333-9.7794 2.0247-13.938-0.0468-3.1405-1.5643-6.4546-6.2675-8.2319-10.43-1.7773-4.1627-2.3386-7.39-2.3386-7.39s-0.0318-3.6794-0.0468-5.5191c-0.0325-3.9912-0.0936-11.974-0.0936-11.974l0.8419-0.37418-0.18708-1.9176 0.88868-0.88868 0.0468-1.637s1.7773-8.4658 1.4032-12.488c-0.3742-4.0224-5.9401-1.5902-5.9401-1.5902z"/>
  <path d="m249.02 151.21s-1.0583 2.3812-1.0583 3.9688 1.7198 31.089 1.7198 31.089l0.66146 9.6573s4.3656 4.101 7.6729-1.0583c3.3073-5.1594 2.5135-20.108 2.5135-20.108l-0.92604-20.902s-3.0427-3.175-5.6885-3.175-4.8948 0.52917-4.8948 0.52917z" fill="#370617"/>
  <path d="m259.52 159.45s1.8976 1.2938 2.0632 2.3411c0.49227 3.1117-0.39688 24.474-0.39688 24.474l-1.4552 2.6458z" fill="#370617"/>
  <path d="m251.55 150.89c6.8843 6.2037 1.0349 27.968 1.0349 27.968l-1.0583 17.877s-0.49355 0.18382-1.0583-0.0181c-0.89962-0.32164-2.0897-27.298-2.4607-39.027-0.11458-3.6221 0.11821-3.9053 0.11821-3.9053s0.10394-1.9091 0.82446-2.4514c0.66267-0.49879 1.9836-0.99957 2.5998-0.44434z" fill="#eb4a82"/>
  <path d="m255.48 150.62 0.54474 25.124s-0.0267 19.765-1.0399 21.515c-0.5357 0.92526-3.7735 0.63125-3.5904-0.556 0.39212-2.5415 1.2256-20.959 1.2256-20.959l-1.0895-25.527s1.3761-0.3577 2.068-0.28361c0.66474 0.0712 1.8813 0.68666 1.8813 0.68666z" fill="#870f38"/>
  <path d="m256.08 148.07s2.0866 3.1998 2.7781 2.9104c1.3144-0.54999 2.5661 0.78886 3.175 1.8521 2.5078 4.3789-0.0382 15.139-0.0382 15.139s-0.54328 6.5781 0.10393 7.8062c0.6732 1.2775 1.583 1.7098 2.5985 1.6153 1.0317-0.096 1.928-1.0904 2.2918-2.1 0.36468-1.0121 0.23386-6.7352 0.18709-7.5771-0.0468-0.8419 0.25218-8.2163-0.0468-10.758-0.28064-2.3854-0.48055-4.6321-1.8709-6.969-0.88884-1.494-2.598-2.6075-4.303-2.9466-1.629-0.324-3.7615-0.4774-4.8755 1.0278 0 1e-5 -2e-5 0-2e-5 0z" fill="#370617"/>
 </g>
 <path d="m261.47 175.16 1.4032-0.37418 3.9289-0.37418s0.37417 12.441-0.56129 14.219c-0.93543 1.7773-3.0869 2.7128-3.0869 2.7128l-2.4322-1.029-0.8419-1.7773 1.029-2.2451z" fill="none"/>
 <path d="m261.65 190.78-0.18709 1.4967 0.65482 18.428 2.058 0.0935 0.18708-17.119 0.37418-0.93545 0.37417-1.9644z" fill="none"/>
 <g>
  <path d="m168.58 163.28s2.3245-1.628 3.5406-0.69258c0.36143 0.27802-0.534 0.27482-0.0138 0.80856 1.2302 1.2621 2.6092 3.1224 2.7406 5.029 0.18709 2.7128 1.3096 10.009 1.4967 13.47s1.9644 8.6061 1.9644 8.6061 0.46772 3.6482 0.93544 7.2029c0.46773 3.5547 0.37418 6.0804 1.2161 7.39s-5.2385 2.8999-7.39 0.93544-6.0344-11.904-8.115-18.218c-1.2318-3.7382-1.8197-7.609-2.5491-11.529-0.50396-2.7088-1.6042-5.6129-0.74835-8.2319 0.44632-1.3658 0.96868-1.7311 2.85-3.2342 1.2749-1.0186 3.5055-2.2544 4.0723-1.5365z" fill="#370617"/>
  <path d="m168.58 163.28c-1.2916 1.773-0.0935 2.8063 0.65481 6.5481 0.74835 3.7418 1.7773 9.1674 1.9644 9.5415 0.18709 0.37418 5.1449 16.557 5.7998 18.054s1.8709 6.0804 2.7128 6.8287c0.8419 0.74835-0.33705 1.6266 0.19179 1.5808 1.8322-0.15839-0.12092-3.678-0.28534-5.5097-0.35132-3.9137-0.83702-7.8193-1.4967-11.693-0.52722-3.0958-1.4883-6.11-1.9644-9.2141-0.577-3.7615-1.0758-11.366-1.0758-11.366s-0.93172-4.6698-2.8063-5.5659c-1.1367-0.54336-2.9532-0.22318-3.695 0.79513z" fill="#eb4a82"/>
  <path d="m165.58 163.28-0.0468 4.5369 1.5902 7.7174 2.4789 8.3254 3.1805 8.8867 2.666 7.9513 1.9177 3.6482s0.23647 0.75907 0.5641 0.84757c0.89914 0.24286 2.4279-0.68349 2.5087-1.2303 0.0653-0.44226-1.5293-2.8914-1.5293-2.8914l-3.1805-9.0738-4.4901-15.061-2.1983-9.3077-0.18709-6.1966s-2.3966-1.4444-3.1418 1.3507z" fill="#870f38"/>
 </g>
 <path d="m227.52 168.47s0.8599 3.7042 1.4552 3.8365-6.5484 0.8599-6.5484 0.8599l0.59532-1.7859z" fill="none"/>
 <path d="m199.73 175.16c1.8246 0.0757 3.5528 0.31936 3.5528 0.31936l0.32711-0.60823s-0.7012-0.79522-1.2625-1.5436c-0.31752-0.42336-1.1591-0.84689-1.9317-1.2025a2.5023 2.5023 0 0 1 0.0119 0.0248 2.5023 2.5023 0 0 1 0.0264 0.0589 2.5023 2.5023 0 0 1 0.0248 0.0594 2.5023 2.5023 0 0 1 0.0238 0.06 2.5023 2.5023 0 0 1 0.0217 0.0605 2.5023 2.5023 0 0 1 0.0207 0.0615 2.5023 2.5023 0 0 1 0.0186 0.0615 2.5023 2.5023 0 0 1 0.0176 0.062 2.5023 2.5023 0 0 1 0.0155 0.0625 2.5023 2.5023 0 0 1 0.014 0.0631 2.5023 2.5023 0 0 1 0.0124 0.063 2.5023 2.5023 0 0 1 0.0108 0.0636 2.5023 2.5023 0 0 1 9e-3 0.0636 2.5023 2.5023 0 0 1 8e-3 0.0641 2.5023 2.5023 0 0 1 6e-3 0.0641 2.5023 2.5023 0 0 1 4e-3 0.0646 2.5023 2.5023 0 0 1 3e-3 0.0641 2.5023 2.5023 0 0 1 5.3e-4 0.0646 2.5023 2.5023 0 0 1-7e-3 0.18707 2.5023 2.5023 0 0 1-0.0212 0.18603 2.5023 2.5023 0 0 1-0.0346 0.18397 2.5023 2.5023 0 0 1-0.0486 0.18035 2.5023 2.5023 0 0 1-0.0615 0.17674 2.5023 2.5023 0 0 1-0.0749 0.17156 2.5023 2.5023 0 0 1-0.0873 0.16537 2.5023 2.5023 0 0 1-0.0997 0.15864 2.5023 2.5023 0 0 1-0.1111 0.15038 2.5023 2.5023 0 0 1-0.12196 0.14211 2.5023 2.5023 0 0 1-0.13229 0.13229 2.5023 2.5023 0 0 1-0.13332 0.11473z" fill="none"/>
 <g>
  <path d="m319.6 228.51c0.58728 0.41159 1.4131 0.52321 2.1168 0.38486 3.5093-0.68995 5.9636-3.9558 9.0442-5.7729 1.1867-0.69994 4.2335-1.1546 4.2335-1.1546s-7.1727-4.0779-8.4669-3.6562c-1.6194 0.52765-8.2745 7.8896-8.2745 7.8896s0.61726 1.7977 1.347 2.3092z" fill="#df5b00" style="mix-blend-mode:soft-light"/>
  <path d="m319.35 233.67c-0.0648-1.717 0.52525-2.7724 1.926-4.1731 1.4007-1.4007 11.621-8.9161 13.372-7.6904 1.7509 1.2256 5.0121 1.9126 5.7124 4.3638 0.70036 2.4512-0.1751 4.7274-0.1751 4.7274s-4.5523-4.3772-6.3032-4.2021-5.4277 4.2021-5.6028 5.953c-0.17508 1.7509-2.2761 5.6028-1.5758 6.1281 0.70035 0.52527-5.2526 1.5758-5.2526 1.5758s-1.3268-0.53435-1.7509-3.6768c-0.21411-1.5868-0.31214-1.9976-0.35018-3.0055z" fill="#ff7817" style="mix-blend-mode:soft-light"/>
  <path d="m310.17 241.88s2.3092-2.3092 4.3297-2.3092c2.0205 0 12.123 1.4432 12.123 1.4432l16.453 1.8281 6.6388 2.8864 3.6562 4.2334 1.4432 4.7145v0.48107l1.8281-2.4054s-1.8281-7.5048-5.8691-9.2366c-4.041-1.7319-6.3502-3.1751-6.3502-3.1751l-24.727-1.4432s-6.6388-3.1751-9.5253 2.9827z" fill="#960000"/>
 </g>
 <path d="m226.73 129.35 1.2926 1.0886s2.8574-1.7009 3.4017-3.1976c0.54427-1.4968 1.905-4.082 1.2926-5.6468s-2.7894-2.1771-2.7894-2.1771l-1.5648-1.0205 0.81643 2.1091s0.95247 1.2246 0.47622 3.4697c-0.47622 2.2451-2.9254 5.3747-2.9254 5.3747z" fill="#1a1a1a"/>
</svg>
