<svg xmlns="http://www.w3.org/2000/svg" width="97.703" height="100.869" viewBox="0 0 97.703 100.869"><path d="M63.356,61.428c-10.965.405-38.163,3.49-38.163,26.456,0,24.654,31.139,25.667,41.316,9.727,1.463,2.3,7.97,8.443,10.2,10.537L89.5,95.538s-7.272-5.7-7.272-11.888V50.53c0-5.7-5.516-18.53-25.285-18.53C37.125,32,26.611,44.383,26.611,55.483L43.16,57.015c3.67-11.145,12.2-11.145,12.2-11.145C64.527,45.847,63.356,52.579,63.356,61.428Zm0,19.543c0,18.012-18.958,15.31-18.958,3.873,0-10.627,11.37-12.766,18.958-13.014Zm30.621,36.813c-1.734,2.252-15.761,15.085-39.289,15.085s-41.541-16.1-47.057-22.74c-1.531-1.734.225-2.544,1.238-1.869,16.5,10.019,42.284,26.523,83.87,6.822C94.427,114.248,95.733,115.532,93.977,117.783Zm8.961.5a18.766,18.766,0,0,1-4.773,6.98c-1.238,1.013-2.139.608-1.463-.856s4.345-10.47,2.859-12.383c-1.464-1.869-8.331-.968-10.807-.72-2.432.225-2.927.45-3.152-.068-.518-1.283,4.886-3.49,8.443-3.94,3.535-.405,9.231-.18,10.357,1.283.833,1.148,0,6.1-1.463,9.7Z" transform="translate(-7.029 -32)" fill="#3aa3d6"/></svg>