<svg xmlns="http://www.w3.org/2000/svg" width="60.661" height="62.626" viewBox="0 0 60.661 62.626"><path d="M42,50.271c-6.808.252-23.695,2.167-23.695,16.425,0,15.307,19.333,15.936,25.652,6.039.909,1.426,4.949,5.242,6.333,6.542l7.94-7.828s-4.515-3.537-4.515-7.381V43.5c0-3.537-3.425-11.5-15.7-11.5-12.3,0-18.83,7.688-18.83,14.58l10.275.951c2.279-6.92,7.577-6.92,7.577-6.92C42.727,40.6,42,44.777,42,50.271ZM42,62.4c0,11.183-11.77,9.506-11.77,2.4,0-6.6,7.059-7.926,11.77-8.08ZM61.012,85.26c-1.076,1.4-9.785,9.366-24.393,9.366S10.827,84.631,7.4,80.507c-.951-1.076.14-1.58.769-1.16,10.247,6.221,26.253,16.467,52.072,4.236C61.292,83.066,62.1,83.862,61.012,85.26Zm5.564.308A11.651,11.651,0,0,1,63.612,89.9c-.769.629-1.328.377-.909-.531s2.7-6.5,1.775-7.688c-.909-1.16-5.172-.6-6.71-.447-1.51.14-1.817.28-1.957-.042-.322-.8,3.033-2.167,5.242-2.446,2.195-.252,5.731-.112,6.43.8.517.713,0,3.788-.909,6.025Z" transform="translate(-7.029 -32)" fill="#3aa3d6"/></svg>