<svg xmlns="http://www.w3.org/2000/svg" width="43.364" height="34.999" viewBox="0 0 43.364 34.999"><path d="M1.549,66.428H41.815A1.492,1.492,0,0,0,43.364,65V61.429A1.492,1.492,0,0,0,41.815,60H1.549A1.492,1.492,0,0,0,0,61.429V65A1.492,1.492,0,0,0,1.549,66.428Zm0,14.285H41.815a1.492,1.492,0,0,0,1.549-1.429V75.714a1.492,1.492,0,0,0-1.549-1.429H1.549A1.492,1.492,0,0,0,0,75.714v3.571A1.492,1.492,0,0,0,1.549,80.714ZM1.549,95H41.815a1.492,1.492,0,0,0,1.549-1.429V90a1.492,1.492,0,0,0-1.549-1.429H1.549A1.492,1.492,0,0,0,0,90v3.571A1.492,1.492,0,0,0,1.549,95Z" transform="translate(0 -60)" fill="#e8f3fc"/></svg>