<svg xmlns="http://www.w3.org/2000/svg" width="25.421" height="20.517" viewBox="0 0 25.421 20.517"><path d="M.908,63.768H24.513a.875.875,0,0,0,.908-.837V60.837A.875.875,0,0,0,24.513,60H.908A.875.875,0,0,0,0,60.837v2.094A.875.875,0,0,0,.908,63.768Zm0,8.374H24.513a.875.875,0,0,0,.908-.837V69.212a.875.875,0,0,0-.908-.837H.908A.875.875,0,0,0,0,69.212v2.094A.875.875,0,0,0,.908,72.143Zm0,8.374H24.513a.875.875,0,0,0,.908-.837V77.586a.875.875,0,0,0-.908-.837H.908A.875.875,0,0,0,0,77.586V79.68A.875.875,0,0,0,.908,80.517Z" transform="translate(0 -60)" fill="#e8f3fc"/></svg>