<svg xmlns="http://www.w3.org/2000/svg" width="23.178" height="23.178" viewBox="0 0 23.178 23.178"><path d="M19.589,8A11.589,11.589,0,1,0,31.178,19.589,11.6,11.6,0,0,0,19.589,8Zm7.662,5.344a9.852,9.852,0,0,1,2.235,6.166,23.133,23.133,0,0,0-6.893-.319c-.269-.656-.522-1.233-.87-1.945a13.186,13.186,0,0,0,5.527-3.9Zm-1.1-1.145a11.176,11.176,0,0,1-5.188,3.576A52.838,52.838,0,0,0,17.269,9.98,9.873,9.873,0,0,1,26.151,12.2Zm-10.77-1.554a63.161,63.161,0,0,1,3.67,5.725A36.922,36.922,0,0,1,9.9,17.577,9.935,9.935,0,0,1,15.381,10.646ZM9.69,19.6c0-.1,0-.2.005-.3a36.515,36.515,0,0,0,10.173-1.409c.283.555.554,1.118.8,1.68a15.333,15.333,0,0,0-8.436,6.65A9.859,9.859,0,0,1,9.69,19.6Zm3.823,7.809a13.923,13.923,0,0,1,7.831-6.2,41.147,41.147,0,0,1,2.112,7.507,9.879,9.879,0,0,1-9.943-1.3Zm11.607.4A42.724,42.724,0,0,0,23.2,20.752a14.529,14.529,0,0,1,6.166.423A9.916,9.916,0,0,1,25.12,27.81Z" transform="translate(-8 -8)"/></svg>