<svg xmlns="http://www.w3.org/2000/svg" width="40" height="40" viewBox="0 0 40 40"><path d="M28,8A20,20,0,1,0,48,28,20.023,20.023,0,0,0,28,8Zm13.223,9.223a17,17,0,0,1,3.858,10.642,39.922,39.922,0,0,0-11.9-.55c-.464-1.132-.9-2.128-1.5-3.356C38,21.38,40.863,17.71,41.223,17.223Zm-1.9-1.975c-.307.438-2.879,3.894-8.953,6.171a91.186,91.186,0,0,0-6.374-10A17.039,17.039,0,0,1,39.324,15.248ZM20.737,12.566a109,109,0,0,1,6.334,9.88,63.72,63.72,0,0,1-15.793,2.081A17.146,17.146,0,0,1,20.737,12.566Zm-9.82,15.46c0-.175,0-.349.009-.522a63.016,63.016,0,0,0,17.557-2.431c.489.957.956,1.929,1.385,2.9A26.461,26.461,0,0,0,15.309,39.448,17.015,17.015,0,0,1,10.917,28.026Zm6.6,13.477C19.3,37.855,24.142,33.146,31.029,30.8a71.01,71.01,0,0,1,3.644,12.955A17.048,17.048,0,0,1,17.514,41.5Zm20.031.685a73.732,73.732,0,0,0-3.319-12.18,25.074,25.074,0,0,1,10.641.73A17.113,17.113,0,0,1,37.545,42.188Z" transform="translate(-8 -8)"/></svg>