<svg xmlns="http://www.w3.org/2000/svg" width="40" height="40" viewBox="0 0 40 40"><path d="M13.379,40.208c0,.165-.185.3-.419.3-.266.025-.452-.108-.452-.3,0-.165.185-.3.419-.3C13.169,39.885,13.379,40.018,13.379,40.208Zm-2.508-.372c-.056.165.1.356.347.405a.374.374,0,0,0,.5-.165c.048-.165-.1-.356-.347-.43A.41.41,0,0,0,10.871,39.836Zm3.565-.141c-.234.058-.4.215-.371.405.024.165.234.273.476.215s.4-.215.371-.38S14.669,39.67,14.435,39.7ZM19.742,8C8.556,8,0,16.71,0,28.182A20.706,20.706,0,0,0,13.669,47.966c1.032.19,1.4-.463,1.4-1,0-.513-.024-3.342-.024-5.078,0,0-5.645,1.241-6.831-2.465,0,0-.919-2.407-2.242-3.027,0,0-1.847-1.3.129-1.274A4.24,4.24,0,0,1,9.21,37.255c1.766,3.193,4.726,2.275,5.879,1.729a4.643,4.643,0,0,1,1.29-2.787c-4.508-.513-9.056-1.183-9.056-9.14a6.351,6.351,0,0,1,1.9-4.872,8,8,0,0,1,.21-5.616C11.121,16.031,15,18.8,15,18.8a18.593,18.593,0,0,1,10.129,0s3.879-2.779,5.565-2.233a8,8,0,0,1,.21,5.616,6.5,6.5,0,0,1,2.081,4.872c0,7.982-4.75,8.619-9.258,9.14A4.959,4.959,0,0,1,25.1,40.034c0,2.787-.024,6.236-.024,6.915,0,.538.371,1.191,1.4,1C34.532,45.2,40,37.354,40,28.182A20.016,20.016,0,0,0,19.742,8ZM7.839,36.527c-.1.083-.081.273.056.43.129.132.315.19.419.083.1-.083.081-.273-.056-.43C8.129,36.478,7.944,36.42,7.839,36.527Zm-.871-.67c-.056.108.024.24.185.323a.236.236,0,0,0,.347-.058c.056-.108-.024-.24-.185-.323C7.153,35.75,7.024,35.775,6.968,35.857ZM9.581,38.8c-.129.108-.081.356.1.513.185.19.419.215.524.083.1-.108.056-.356-.1-.513C9.927,38.694,9.685,38.67,9.581,38.8Zm-.919-1.216c-.129.083-.129.3,0,.488s.347.273.452.19a.384.384,0,0,0,0-.513C9,37.561,8.79,37.478,8.661,37.586Z" transform="translate(0 -8)"/></svg>