<svg xmlns="http://www.w3.org/2000/svg" width="23.178" height="23.178" viewBox="0 0 23.178 23.178"><path d="M7.753,26.663c0,.1-.107.173-.243.173-.154.014-.262-.062-.262-.173s.107-.173.243-.173S7.753,26.553,7.753,26.663ZM6.3,26.447c-.033.1.061.206.2.235a.217.217,0,0,0,.29-.1c.028-.1-.061-.206-.2-.249A.237.237,0,0,0,6.3,26.447Zm2.065-.081c-.136.034-.229.125-.215.235s.136.158.276.125.229-.125.215-.22S8.5,26.351,8.365,26.366ZM11.439,8A11.351,11.351,0,0,0,0,19.694,12,12,0,0,0,7.921,31.159c.6.11.808-.268.808-.58s-.014-1.936-.014-2.943c0,0-3.271.719-3.958-1.428,0,0-.533-1.395-1.3-1.754,0,0-1.07-.752.075-.738a2.457,2.457,0,0,1,1.8,1.237,2.436,2.436,0,0,0,3.407,1,2.69,2.69,0,0,1,.748-1.615c-2.612-.3-5.248-.685-5.248-5.3a3.68,3.68,0,0,1,1.1-2.823,4.636,4.636,0,0,1,.121-3.254c.977-.312,3.224,1.294,3.224,1.294a10.774,10.774,0,0,1,5.869,0s2.248-1.61,3.224-1.294a4.634,4.634,0,0,1,.121,3.254,3.769,3.769,0,0,1,1.206,2.823c0,4.625-2.752,4.994-5.365,5.3a2.873,2.873,0,0,1,.794,2.224c0,1.615-.014,3.614-.014,4.007,0,.312.215.69.808.58a11.89,11.89,0,0,0,7.841-11.455A11.6,11.6,0,0,0,11.439,8Zm-6.9,16.53c-.061.048-.047.158.033.249s.182.11.243.048.047-.158-.033-.249S4.6,24.468,4.542,24.53Zm-.5-.388c-.033.062.014.139.107.187a.137.137,0,0,0,.2-.034c.033-.062-.014-.139-.107-.187C4.145,24.08,4.07,24.094,4.037,24.142Zm1.514,1.706c-.075.062-.047.206.061.3.107.11.243.125.3.048s.033-.206-.061-.3C5.752,25.786,5.612,25.771,5.552,25.848Zm-.533-.7c-.075.048-.075.173,0,.283s.2.158.262.11a.223.223,0,0,0,0-.3C5.215,25.129,5.094,25.081,5.019,25.144Z" transform="translate(0 -8)"/></svg>