<svg xmlns="http://www.w3.org/2000/svg" width="37.158" height="37.165" viewBox="0 0 37.158 37.165"><path d="M25.214,19.389C24.127,12.7,21.565,8,18.583,8s-5.545,4.7-6.631,11.389ZM11.389,26.583a46.965,46.965,0,0,0,.247,4.8H25.521a46.965,46.965,0,0,0,.247-4.8,46.966,46.966,0,0,0-.247-4.8H11.637A46.965,46.965,0,0,0,11.389,26.583Zm24.33-7.193A18.622,18.622,0,0,0,23.88,8.779c1.828,2.533,3.087,6.347,3.746,10.61ZM13.278,8.779A18.609,18.609,0,0,0,1.446,19.389H9.539c.652-4.263,1.911-8.077,3.739-10.61ZM36.521,21.787H27.926c.157,1.574.247,3.185.247,4.8s-.09,3.222-.247,4.8h8.587a18.422,18.422,0,0,0,.644-4.8,18.744,18.744,0,0,0-.637-4.8Zm-27.529,4.8c0-1.611.09-3.222.247-4.8H.644a18.166,18.166,0,0,0,0,9.591H9.231C9.081,29.8,8.992,28.194,8.992,26.583Zm2.96,7.193c1.086,6.691,3.649,11.389,6.631,11.389s5.545-4.7,6.631-11.389Zm11.936,10.61a18.64,18.64,0,0,0,11.839-10.61H27.634C26.975,38.039,25.716,41.853,23.888,44.386ZM1.446,33.776a18.622,18.622,0,0,0,11.839,10.61c-1.828-2.533-3.087-6.347-3.746-10.61H1.446Z" transform="translate(0 -8)" fill="#fff"/></svg>