<svg xmlns="http://www.w3.org/2000/svg" width="98.156" height="98.175" viewBox="0 0 98.156 98.175"><path d="M66.6,38.086C63.735,20.41,56.965,8,49.088,8S34.441,20.41,31.571,38.086Zm-36.519,19a124.063,124.063,0,0,0,.653,12.668H67.416a124.063,124.063,0,0,0,.653-12.668,124.065,124.065,0,0,0-.653-12.668H30.739A124.063,124.063,0,0,0,30.086,57.088Zm64.269-19A49.191,49.191,0,0,0,63.082,10.059c4.83,6.69,8.155,16.765,9.9,28.028ZM35.074,10.059A49.158,49.158,0,0,0,3.82,38.086H25.2c1.722-11.262,5.047-21.337,9.877-28.028Zm61.4,34.361H73.77c.416,4.157.653,8.412.653,12.668s-.238,8.511-.653,12.668H96.453a48.665,48.665,0,0,0,1.7-12.668A49.515,49.515,0,0,0,96.473,44.42ZM23.752,57.088c0-4.256.238-8.511.653-12.668H1.7a47.987,47.987,0,0,0,0,25.336H24.386C23.99,65.6,23.752,61.343,23.752,57.088Zm7.818,19c2.87,17.676,9.639,30.086,17.517,30.086S63.735,93.765,66.6,76.089ZM63.1,104.117A49.238,49.238,0,0,0,94.375,76.089H73C71.256,87.352,67.931,97.427,63.1,104.117ZM3.82,76.089a49.191,49.191,0,0,0,31.274,28.028c-4.83-6.69-8.155-16.765-9.9-28.028H3.82Z" transform="translate(0 -8)" fill="#fff"/></svg>