<svg xmlns="http://www.w3.org/2000/svg" width="597.901" height="539.636" viewBox="0 0 597.901 539.636"><g transform="translate(-21.324 17.902)"><path d="M30.647,333.172c-45.129-128.151,81.3-314.517,213.119-347.405,93.2-23.256,191.505,68.669,248.447,146.029C568.493,235.42,678.9,425.267,580.084,507.665,509.578,566.454,415.612,423.636,327.519,397.8c-68.657-20.132-142.606-16.4-211.893-34.232-29.135-7.5-74.988-2.019-84.981-30.394Z" transform="translate(0)" fill="#13bcff"/><g transform="translate(234.107 18.663)"><path d="M169.749,231.084l21.607,16.76,72.9,2.12-16.76-8.885-36.852-15.851-43.617-.4Z" transform="translate(-167.024 93.093)" fill="#002f56"/><path d="M181.443,227.879s-1.918,7.068,3.534,4.24S198.2,219.4,198.2,219.4l17.668-9.491s2.625-3.357-.4-2.549-9.188,2.953-9.188,2.953-5.856-1.514-8.279-.2-16.558,17.77-16.558,17.77Z" transform="translate(-160.536 84.994)" fill="#294755"/><path d="M277.31,206.015l17.42,2.856,15.136,14.279-3.712,8.282-58.827,6.854s-4.569,11.137-8,10.281S222.2,241.14,222.2,241.14l-7.71-10.852-10.852-5.711s-4,4.355-5.283,3.57-4.959,6.94-8.385,7.654-5.179-1.8-5.179-2.942,13.993-18.848,17.563-20.275,16.278-5.711,19.419-6.854,29.414,10.423,29.414,10.423,13.565,2.713,26.13-10.138Z" transform="translate(-158.846 84.265)" fill="#365f72"/><path d="M421.846,110.9s6.854-5.426,9.995-4.284,12.851,7.71,12.851,7.71,27.7,5.711,38.266,16.563a215.956,215.956,0,0,1,16.563,18.848s9.709,63.4,6.283,78.247-17.42,17.134-17.42,17.134l2.285,18.562s-8.282,32.269-12.851,40.836S443.834,368.2,435.552,361.06s-41.978-79.96-41.978-79.96l-7.71-1.142s-32.556,5.14-49.118,2.856-64.825-8-64.825-8,3.427-8.282-.286-10.566-14.85-9.995-22.274-11.423,17.42-12.851,17.42-12.851,8.567-13.136,13.993-18.848a36.333,36.333,0,0,0,7.425-11.137l2.285-1.713L291.624,199l6.283-6.711s2-14.136,2.713-16.278,14.136-25.987,14.421-27.272,13.422-14.706,18.99-15.564a141.707,141.707,0,0,0,14.279-3.427l8.139-.286Z" transform="translate(-129.753 38.595)" fill="#002f56"/><path d="M337.058,128.515s20.2.214,22.917-2.927-9.5,10.066-9.5,10.066-2.641,10.638-6.211,18.206-7,24.7-7.139,27.843-5,25.273-5,28.985-2.856,32.27-3,34.126-1.856,18.134-1.856,18.134l1.856,12.137s-20.885-1.3-32.126-2.427c-11.423-1.142-11.423-4.141-11.423-4.141L296.007,238.1l11.137-27.272,5.14-21.275,5.426-4.855-.571-4.426s3.57-8.71,7.425-13.85,4.284-15.992,4.284-15.992l-2.57-4.426,3.141-6.14,2.285-6.854,1.071-2.927Z" transform="translate(-112.436 47.18)" fill="#087aa7"/><path d="M307.29,146.09l11.994,1.428,1-4.569,2.142-1.285.143-7.568,5.544-2.344a24.935,24.935,0,0,0,.239-6.588c-.378-3.7-1.732-7.9-2.388-7.969-1.285-.143-18.673,28.894-18.673,28.894Z" transform="translate(-102.442 43.538)" fill="#004b89"/><path d="M312.386,120.685s17.991,21.7,13.993,28.843,21.7-.286,21.7-.286l27.129-22.274,7.853-13.708s-14.706-31.412-16.706-32.7S343.8,75.28,343.8,75.28l-13.422,3.141-19.562,32.27Z" transform="translate(-100.82 24.24)" fill="#508ca4" opacity="0.996"/><path d="M285.254,52.323a24.359,24.359,0,0,1,10.423-14.635c8.567-5.283,22.274-11.137,22.274-11.137s.857-1.571,4.426-.286.714,16.421,3.141,21.132,9.424,12.708,14.279,12.422,24.316-1.252,24.316-1.252l-9.181,41.8s-3.284,13.422-4.855,18.419-11.106,21.605-17.164,24.03-10.3,7.673-19.992,7.068-9.289-2.625-9.491-6.765-.1-12.318-.1-12.318-4.039-1.817-5.048-3.837a4.613,4.613,0,0,1,0-3.938s-3.736.909-4.543-1.514-1.313-6.765-1.918-8.986-8.784.909-9.188-2.423,1.514-11.712,1.514-11.712,6.563-13.327,4.745-16.558a24.828,24.828,0,0,0-5.149-5.957s-.818-17.529,1.509-23.557Z" transform="translate(-113.821 1.439)" fill="#417389" opacity="0.996"/><path d="M290.087,95.379s-15.707-3.57-15.564-8.853,3.427-14.279,3.427-14.279-8.139-5.711-7-8.424,7.282-9.424,7.282-9.424.428-16.992,9-23.132S313.789,8.994,313.789,8.423s21.419-2,23.987-.857,35.982-2.285,41.407,3.712,14.85,17.42,14.85,17.42,9.852,27.7,2.856,41.694A139.082,139.082,0,0,1,383.181,92.81l8.139,15.136,3,20.989-9.424-15.992s-15.884-38.985-18.562-41.837c-1.2-1.275-1.544-2.606-4.115.535s.545,8.46.545,8.46l1.285,5.854s-14.348,1.95-16.278-.143c-.724-2.336-.949-9.916-4.141-13.279-2.55-2.687-7.977-1.073-10.423-3.855-3.645-4.144-2.548-10.74-3.712-16.135-.981-4.545,1.226-11.275-2.758-13.673-6.281-3.781-17.838,4.412-21.087,6.248-4.747,2.682-13.6,10.389-14.028,14.958s-1.964,23.879-1.964,23.879l3.427,3.427s4.259,6.253,1.428,7.282a19.816,19.816,0,0,1-4.426.714Z" transform="translate(-119.223 -7.136)" fill="#051326"/></g><g transform="translate(457.489 18.937)"><path d="M328.29,7.385a35.327,35.327,0,0,0-6.652,1.055c-.738.517-2.653,1.571-1.008,1.658a8.649,8.649,0,0,1,3.305,1.259,26.647,26.647,0,0,1,7.638,8.334A138.576,138.576,0,0,1,339.225,36.2q5.872,8.249,11.743,16.5c.622-5.929,1.381-11.853,1.654-17.81-.42-4.008-2.289-7.683-4.009-11.267-2.489-4.753-5.188-9.5-8.906-13.414-2.958-2.94-7.526-3.011-11.418-2.821Z" transform="translate(-319.981 -7.323)" fill="#004b89"/><path d="M334.77,28.4s7.425,22.131,6.568,24.988,9.424.857,9.424.857-2.856-23.132-5-25.987-10.995.143-10.995.143Z" transform="translate(-313.171 1.746)" fill="#002f56"/><path d="M341.323,52.387c-5.884,2.468-11.6,7.737-13.125,13.933-2.053,8.35.327,19.374,6.966,24.837,5.214,4.291,14.006,4.322,20.193,1.615,5.138-2.248,8.953-7.808,10.4-13.226,1.745-6.539,1.716-14.236-2.928-20.092s-3.98-5.517-6.967-6.765a19.534,19.534,0,0,0-14.539-.3Z" transform="translate(-316.526 12.844)" fill="#002f56"/><ellipse cx="15.221" cy="17.291" rx="15.221" ry="17.291" transform="translate(18.5 69.079)" fill="#004b89"/><path d="M337.581,45.916s.1,11.844,1.047,12.36,11.388.044,12.3-1.373-.249-14.011-.278-14.444-12.111.489-12.619,1.2a4.676,4.676,0,0,0-.453,2.256Z" transform="translate(-311.878 8.803)" fill="#004b89"/></g><g transform="translate(53.673 150.681)"><path d="M329.68,148s46.12-45.12,44.835-46.12a19.616,19.616,0,0,0-4.569-2s6.568-4.141,9.138-1.428,7.139,12.28,7.139,12.28l-29.7,46.976s-5.569,3.427-10.995.143S336.82,148,336.82,148Z" transform="translate(88.301 -97.533)" fill="#004b89"/><path d="M418.955,229.36l40.552,81.1s-100.521-4.569-131.935-27.415-37.7-24.558-37.7-24.558-27.272,3.284-31.555-1.285-15.992-16.563-20.133-15.277c-1.563.485-5.951-1.093-6.988.311-1.71,2.315.419,7.828.419,7.828l-1.142,1.713s-2,1.285-2.856-.714-6.07-10.4-5.926-12.208c.084-1.053,7.17-6.016,7.925-6.925.376-.453.66-3.659-1.956-3.445-.959.078-5.826,4.8-5.826,4.8l-5.569,6s-.054,12.055-2.356,12.208c-2.142.143-4.712-9.567-4.712-9.567s.428-10.566,1.856-12.28-1.428-1.285-1.428-1.285l-2.142,4.141c1.09,7.023.206,10.806-2.142,15.277l-4.284-.857s-4.284-16.706-3-18.99,7.425-16.278,12.422-18.99,32.556-.571,37.981,2.285,40.408,18.419,48.261,17.848,33.016,3.037,38.669,4.854,29.683,2.423,29.683,2.423,39.982-2.221,46.847-4.644,7.024-2.347,7.024-2.347Z" transform="translate(27.592 -46.811)" fill="#417389"/><path d="M7.715.543c1.235-2.4,6.648,3.943,6.648,3.943S7.927,118.4,7.918,162.635c0,10.41,1.569,28.179,1.569,28.179s-6.354-10.821-7.6-16.858c-4.846-23.473,1.175-71.9,1.175-71.9S5.809,4.249,7.715.545Z" transform="matrix(0.966, 0.259, -0.259, 0.966, 49.386, 23.006)" fill="#294957" opacity="0.996"/></g><path d="M60.648,8.937C58.026-5.387,92.177-23.62,95.428-9.425c4.344,18.967,35.465,292.543,55.758,316,6.586,7.609-24.019,16.868-29.068,8.162-11.769-20.291-9.568-22.258-61.468-305.788Z" transform="translate(18.04 1.538)" fill="#417389" opacity="0.996"/><path d="M99.531,127.1l6.234,34.346L75.258,271.6s-2.57,16.563,13.422,16.278,45.12-.857,45.12-.857l34.269-1.713L166.355,301.3l-103.948-.571S50.126,297.3,48.7,285.879,99.53,127.1,99.53,127.1Z" transform="translate(12.591 66.762)" fill="#417389"/><g transform="matrix(0.996, -0.094, 0.094, 0.996, 185.688, 234.087)"><rect width="8.393" height="106.466" rx="1.272" transform="translate(1.868 26.424)" fill="#37c837" opacity="0.996"/><path d="M5.9.009A6.234,6.234,0,0,0,.025,6.674c-.012,16-.064,32.009.048,48.013A6.181,6.181,0,0,0,3.812,59.9a5.681,5.681,0,0,0,4.774-.135A6.222,6.222,0,0,0,12.1,54.172c.1-2.32-.041-4.643.022-6.965-.006-13.974.039-27.951-.076-41.923A6.172,6.172,0,0,0,5.9.009Z" transform="translate(0 0)" fill="#2ca02c" opacity="0.996"/><path d="M1.707.008A1.973,1.973,0,0,0,.08,2.482c0,12.342-.069,24.686.1,37.026a1.861,1.861,0,0,0,3.309.11c.513-1.023.089-2.186.216-3.271,0-11.711.059-23.423-.106-35.133A1.806,1.806,0,0,0,1.707.008Z" transform="translate(11.846 5.129)" fill="#37c837" opacity="0.996"/></g><path d="M165.23,231.362l24.535,22.213,76.329-2.322s-.606-3.938-2.625-4.039-71.383-1.514-71.383-1.514l-21.4-16.659Z" transform="translate(66.257 113.698)" fill="#001e37"/><g transform="translate(161.856 232.67)"><g transform="translate(71.666 0.775) rotate(8.652)"><rect width="8.393" height="106.466" rx="1.272" transform="translate(1.868 26.424)" fill="#3771c8" opacity="0.996"/><path d="M5.9.009A6.234,6.234,0,0,0,.025,6.674c-.012,16-.064,32.009.048,48.013A6.181,6.181,0,0,0,3.812,59.9a5.681,5.681,0,0,0,4.774-.135A6.222,6.222,0,0,0,12.1,54.172c.1-2.32-.041-4.643.022-6.965-.006-13.974.039-27.951-.076-41.923A6.172,6.172,0,0,0,5.9.009Z" transform="translate(0)" fill="#5f8dd3" opacity="0.996"/><path d="M1.707.008A1.973,1.973,0,0,0,.08,2.482c0,12.342-.069,24.686.1,37.026a1.861,1.861,0,0,0,3.309.11c.513-1.023.089-2.186.216-3.271,0-11.711.059-23.423-.106-35.133A1.806,1.806,0,0,0,1.707.008Z" transform="translate(11.846 5.129)" fill="#3771c8" opacity="0.996"/></g><g transform="matrix(0.999, 0.039, -0.039, 0.999, 48.026, 1.016)"><rect width="8.393" height="106.468" rx="1.272" transform="translate(1.868 26.424)" fill="#ff2a2a" opacity="0.996"/><path d="M5.9.009A6.235,6.235,0,0,0,.025,6.674c-.012,16-.064,32.01.048,48.014A6.181,6.181,0,0,0,3.812,59.9a5.681,5.681,0,0,0,4.774-.135A6.222,6.222,0,0,0,12.1,54.173c.1-2.32-.041-4.643.022-6.965-.006-13.974.039-27.951-.076-41.924A6.172,6.172,0,0,0,5.9.009Z" transform="translate(0)" fill="red" opacity="0.996"/><path d="M1.707.008A1.973,1.973,0,0,0,.08,2.482c0,12.343-.069,24.686.1,37.027a1.861,1.861,0,0,0,3.309.11c.513-1.023.089-2.186.216-3.272,0-11.712.059-23.423-.106-35.134A1.806,1.806,0,0,0,1.707.008Z" transform="translate(11.847 5.129)" fill="#ff2a2a" opacity="0.996"/></g><g transform="translate(0 2.534) rotate(-9.349)"><rect width="8.393" height="106.466" rx="1.272" transform="translate(1.868 26.424)" fill="#333" opacity="0.996"/><path d="M5.9.009A6.234,6.234,0,0,0,.025,6.674c-.012,16-.064,32.009.048,48.013A6.181,6.181,0,0,0,3.812,59.9a5.681,5.681,0,0,0,4.774-.135A6.222,6.222,0,0,0,12.1,54.172c.1-2.32-.041-4.643.022-6.965-.006-13.974.039-27.951-.076-41.924A6.172,6.172,0,0,0,5.9.009Z" fill="#1a1a1a" opacity="0.996"/><path d="M1.707.008A1.973,1.973,0,0,0,.08,2.482c0,12.342-.069,24.686.1,37.026a1.861,1.861,0,0,0,3.309.11c.513-1.023.089-2.186.216-3.271,0-11.711.059-23.423-.106-35.133A1.806,1.806,0,0,0,1.707.008Z" transform="translate(11.847 5.129)" fill="#333" opacity="0.996"/></g></g><path d="M121.17,200.19s23.482,4.753,35.387,4.855c13.609.117,40.538-4.855,40.538-4.855s-8.4,69.009-9.709,72.3c-1.363,3.432-54.4,4.073-58.506.857-2.244-1.758-7.71-73.16-7.71-73.16Z" transform="translate(45.971 100.414)" fill="#002f56" opacity="0.996"/><path d="M121.26,200.6l1.01,8.481s22.213,1.969,33.318,1.846c13.26-.147,39.78-2.654,39.78-2.654l1.414-8.481s-27.367,4.842-41.191,4.842c-11.522,0-34.33-4.034-34.33-4.034Z" transform="translate(46.013 100.233)" fill="#000f1b"/></g></svg>