<svg xmlns="http://www.w3.org/2000/svg" xmlns:xlink="http://www.w3.org/1999/xlink" width="92.996" height="60.525" viewBox="0 0 92.996 60.525"><defs><linearGradient id="a" x1=".432" x2=".925" y1=".598" y2=".306" gradientUnits="objectBoundingBox"><stop offset="0" stop-color="#116afc"/><stop offset="1" stop-color="#f3a1da"/></linearGradient><linearGradient id="b" x1="-1.732" x2="-1.214" y1="2.956" y2="2.289" gradientUnits="objectBoundingBox"><stop offset="0" stop-color="#2a70f8"/><stop offset="1" stop-color="#ff80e5"/></linearGradient><linearGradient id="c" x1=".669" x2="1.212" y1="1.55" y2=".901" xlink:href="#b"/></defs><g transform="translate(60.009 -57.137)"><rect width="15.019" height="25.911" fill="#f0f" stroke="#0ff" stroke-width=".756" opacity="0" transform="translate(-29.433 59.672)"/><rect width="56.939" height="38.124" fill="red" stroke="#0ff" stroke-width=".756" opacity="0" transform="translate(-29.433 59.672)"/><rect width="19.805" height="15.679" fill="red" stroke="#0ff" stroke-width=".756" opacity="0" rx="6.414" transform="translate(-50.558 57.527)"/><rect width="29.455" height="23.513" fill="red" stroke="#0ff" stroke-width="3.177" opacity="0" rx="11.757" transform="translate(-23.943 58.725)"/><g><path fill="url(#a)" stroke="#000" stroke-width="0" d="M-.179,124.141a10.272,10.272,0,0,1,2.918-.613,12,12,0,0,0,2.334.117s3.18,1.313,4.347.525a13.271,13.271,0,0,0,2.626-3.355s2.042-2.334,4.114-2.83a9.661,9.661,0,0,1,5.135.146c.992.379,3.326,1.984,3.5,2.6s1.663,1.955,2.246,3.822a13.806,13.806,0,0,1,.2,6.01c-.321.584-.525,2.947-2.188,4.726s-2.151,1.511-2.888,2.567c-.867,1.242-2.3,3.422-2.158,5.056,2.947,11.807-7.434,21.405-19.169,13-3.287-3.665-5.088-1.92-8.023.525-1.459,1.2-5.321,2.7-8.064,2.061a11.784,11.784,0,0,1-7.545-5.329c-5.91-9.733-.886-19.268,6.518-21.976,2.175-.8,5.59.3,6.9-.08a8.177,8.177,0,0,0,3.822-3.151,13.15,13.15,0,0,1,2.918-2.742ZM-56.342,163Z" transform="translate(-60.009 72.374) translate(65.511 -117.713)"/></g><g transform="translate(-15.735 69.96)"><path fill="red" stroke="#0ff" stroke-width=".756" d="M96.757,112.049c7.406,0,13.368.883,13.368,1.98v20.465c0,1.1-5.962,1.98-13.368,1.98s-13.368-.883-13.368-1.98V114.029C83.388,112.932,89.351,112.049,96.757,112.049Z" opacity="0" transform="translate(-83.388 -107.649)"/><ellipse cx="1.815" cy="2.063" fill="#f0f" stroke="#0ff" stroke-width="0" opacity="0" rx="1.815" ry="2.063" transform="translate(9.407 13.478)"/><ellipse cx="2.784" cy="2.908" fill="url(#b)" stroke="#0ff" stroke-width="0" rx="2.784" ry="2.908" transform="translate(20.043)"/><ellipse cx="2.66" cy="2.99" fill="url(#c)" stroke="#0ff" stroke-width="0" rx="2.66" ry="2.99" transform="translate(6.84 7.922)"/><ellipse cx="2.784" cy="2.908" fill="#f4a1da" stroke="#0ff" stroke-width="0" rx="2.784" ry="2.908" transform="translate(42.984 24.921)"/></g></g></svg>