<svg xmlns="http://www.w3.org/2000/svg" xmlns:xlink="http://www.w3.org/1999/xlink" width="40.153" height="27.036" viewBox="0 0 40.153 27.036"><defs><linearGradient id="a" x1="0.432" y1="0.598" x2="0.925" y2="0.306" gradientUnits="objectBoundingBox"><stop offset="0" stop-color="#116afc"/><stop offset="1" stop-color="#f3a1da"/></linearGradient><linearGradient id="b" x1="-1.732" y1="2.956" x2="-1.214" y2="2.289" gradientUnits="objectBoundingBox"><stop offset="0" stop-color="#2a70f8"/><stop offset="1" stop-color="#ff80e5"/></linearGradient><linearGradient id="c" x1="0.669" y1="1.55" x2="1.212" y2="0.901" xlink:href="#b"/></defs><g transform="translate(0 1.071)"><rect width="6.485" height="11.188" opacity="0" fill="#f0f" stroke="aqua" stroke-width="0.756" transform="translate(13.202 0.926)"/><rect width="24.585" height="16.461" opacity="0" fill="red" stroke="aqua" stroke-width="0.756" transform="translate(13.202 0.926)"/><rect width="8.551" height="6.77" rx="3.385" opacity="0" fill="red" stroke="aqua" stroke-width="0.756" transform="translate(4.081)"/><rect width="12.718" height="10.153" rx="5.076" opacity="0" fill="red" stroke="aqua" stroke-width="3.177" transform="translate(15.572 0.518)"/><g transform="translate(0 6.411)"><path d="M-37.3,120.489a4.435,4.435,0,0,1,1.26-.265,5.182,5.182,0,0,0,1.008.05s1.373.567,1.877.227a5.73,5.73,0,0,0,1.134-1.449,4.344,4.344,0,0,1,1.776-1.222,4.171,4.171,0,0,1,2.217.063,4.08,4.08,0,0,1,1.512,1.121,9.525,9.525,0,0,1,.97,1.65,5.961,5.961,0,0,1,.088,2.6,5.215,5.215,0,0,1-.945,2.041c-.718.768-.929.652-1.247,1.109a4.1,4.1,0,0,0-.932,2.183c1.272,5.1-3.21,9.242-8.277,5.615-1.419-1.582-2.2-.829-3.464.227a4.9,4.9,0,0,1-3.482.89,5.088,5.088,0,0,1-3.258-2.3c-2.552-4.2-.383-8.32,2.814-9.489.939-.343,2.413.129,2.98-.035a3.53,3.53,0,0,0,1.65-1.36,5.677,5.677,0,0,1,1.26-1.184Zm-24.25,16.779Z" transform="translate(65.511 -117.713)" stroke="#000" stroke-width="0" fill="url(#a)"/></g><g transform="translate(19.117 5.368)"><path d="M89.16,112.049c3.2,0,5.772.381,5.772.855v8.836c0,.474-2.574.855-5.772.855s-5.772-.381-5.772-.855V112.9C83.388,112.43,85.963,112.049,89.16,112.049Z" transform="translate(-83.388 -110.149)" fill="red" stroke="aqua" stroke-width="0.756" opacity="0"/><ellipse cx="0.784" cy="0.891" rx="0.784" ry="0.891" transform="translate(4.062 5.819)" fill="#f0f" stroke="aqua" stroke-width="0" opacity="0"/><ellipse cx="1.202" cy="1.256" rx="1.202" ry="1.256" transform="translate(8.654)" stroke="aqua" stroke-width="0" fill="url(#b)"/><ellipse cx="1.149" cy="1.291" rx="1.149" ry="1.291" transform="translate(2.953 3.42)" stroke="aqua" stroke-width="0" fill="url(#c)"/><ellipse cx="1.202" cy="1.256" rx="1.202" ry="1.256" transform="translate(18.559 10.76)" fill="#f4a1da" stroke="aqua" stroke-width="0"/></g></g></svg>