<svg xmlns="http://www.w3.org/2000/svg" width="645.81" height="796.447" viewBox="0 0 645.81 796.447"><g transform="translate(646.357 682.802) rotate(167)"><g transform="translate(29.998 132.841)"><path d="M68.206,251.148S375.983,408.4,366.576,416.461s-327.266,12.1-327.266,12.1l325.725-10.44L203.279,573.038,366.46,416.413c24.085-31.119,104.276-27.5,104.276-27.5-32.1,3.349-84.554,6.358-101.454,26.2-15.992,18.772.225,7.678-4.05,77.292l2.688-71.9L296.687,126.155l71.9,288.962s49.728-97.441,106.849-146.5" transform="translate(-39.309 -126.155)" fill="none" stroke="#9a5b00" stroke-width="0.197"/></g><g transform="translate(0.756 -0.845)"><rect width="500.779" height="701.783" fill="rgba(0,0,0,0)" stroke="#ffa4d8" stroke-width="0" opacity="0.41"/></g><g transform="translate(11.779 107.992)"><g transform="translate(21.042 21.023)" opacity="0.512"><path d="M336.371,183.965s19.444,20.026,17.764,38-1.008-2.184,4.7-6.552,10.752,14.616,13.1,18.816-3.864,13.776-3.36,15.792,7.392-7.728,7.392-7.728,9.912,11.76,9.408,26.208-.168-1.176-.168-1.176l1.848-.672s4.536,14.784,3.192,22.512-.336-.336-.336-.336,4.872,7.728,3.36,12.768.336.672.336.672.84,6.72-1.176,10.752.84-.5.84-.5-.672,49.392-4.368,59.808,3.528-9.576,6.888-18.144,6.72-22.512,8.4-23.856.5,3.024.5,3.024l8.232-15.288,1.176,4.536s10.248-17.3,18.48-25.7-.5,1.512-.5,1.512l14.952-13.272.84,4.2,17.136-19.152-1.512,4.368s10.92-8.9,13.272-9.408.336,5.376.336,5.376l10.92-9.744.168,39.144-4.536,5.208-2.352,10.752s-5.04,3.864-5.208,3.7-9.072,10.08-9.072,10.08L462.5,341.584l-6.216,5.544s3.528,7.224-1.512,9.744-10.416,5.544-10.416,5.544-7.224,9.912-9.576,12.1S408.4,393.664,408.4,393.664s41.5-16.464,42.672-15.288-2.016,4.872-2.016,4.872l20.664-4.536-.168,3.7s13.944-4.2,14.616-1.176-1.848,2.184-1.848,2.184l5.544.672v22.68s-7.9,8.736-18.816,7.728,1.008.84,1.008.84-15.624,9.576-25.7,7.728-.168.168-.168.168-16.968,9.744-31.08.168-.84-1.008-.84-1.008l-20.5.336s1.344,6.552-7.728,7.644,5.124-1.26,5.124-1.26S406.3,441.88,404.2,458.344s-32.508,67.2-32.508,67.2,8.148-2.1-.336-.168-11.592-60.816-7.644-66.948-10.828,29.532-19.143,38.323-14.731,14.968-14.731,14.968l-4.277,1.425-6.177,13.78-15.206,9.266.238-7.841L299.664,538.8s-6.89,6.177-14.255,6.653.238-.475.238-.475-3.089,11.167-23.521,8.791h0s-19.482,17.582-26.61,19.72-12.592,15.681-23.759,18.057,22.333-36.826,22.333-36.826l-4.514-3.326s5.465-8.553,11.167-11.879-.713-3.326-.713-3.326,9.741-13.543,17.582-17.344S255,520.035,255,520.035l-1.9-1.9a38.439,38.439,0,0,1,16.631-17.344c12.117-6.415-2.613-1.426-2.613-1.426s12.592-17.106,21.621-17.819-3.089-2.614-3.089-2.614,36.114-26.135,45.617-30.411-77.692,22.333-87.908,21.383,4.277-5.94,4.277-5.94l-24.947,6.89s-10.454,2.138-13.543,0,5.465-5.7,5.465-5.7-34.213,6.89-43,1.663,6.415-9.266,6.415-9.266-28.511,5.94-36.589,3.089,3.564-5.465,3.564-5.465-9.741,6.652-18.057,1.188,0-9.028,0-9.028-31.6,6.89-38.252,1.9,7.84-5.227,7.84-5.227-37.539,5.465-39.677,3.564,7.6-4.039,7.6-4.039-28.986-2.851-30.174-6.89,8.316-4.752,23.046-5.465,12.592,2.851,12.592,2.851,7.6-6.177,21.858-3.326-.475-.237-.475-.237-6.177-5.227-4.514-5.227,21.621-1.426,31.124.95-4.514-5.465-4.514-5.465,20.908-6.415,29.461-4.277-1.426-2.851-1.426-2.851l8.553-1.663,5.227,2.138s12.592-4.277,18.77-.713-7.128-5.7-7.128-5.7,20.67-4.989,29.936-2.613.95-2.376.95-2.376,24.234.475,28.511,3.089-4.039-4.514-4.039-4.514,19.72,1.425,21.858,4.039-1.9-4.277-1.9-4.277,60.585,15.918,65.337,12.117-58.922-10.454-61.536-15.443,4.277-3.564,4.277-3.564-25.422-1.663-24.947-4.989,6.415-2.613,6.415-2.613-19.482,0-21.145-3.8-8.553-9.028-8.553-9.028l6.652-2.376s-45.379-13.067-47.043-22.571,16.394-6.89,16.394-6.89-37.3-12.83-37.064-20.908,12.83-7.128,12.83-7.128l-28.273-16.156,7.365.475s-26.372-5.94-24.947-10.216,8.316-2.376,8.316-2.376-24-.713-23.046-6.177,4.989-3.326,4.989-3.326L72.053,257.737l35.163,6.89,10.929,4.514-.475-8.316S133.589,272.943,140,275.081s-.475-7.128-.475-7.128,18.77,6.653,22.333,10.929-.95-10.216-.95-10.216,21.621,7.84,24.947,11.4-.713-7.366-.713-7.366m0,0s11.761-.119,16.394,4.514-2.495-3.92.713-2.02,20.2,10.335,23.759,19.6,0-9.622,0-9.622,8.434-.119,15.562,3.089,9.147,9.741,9.147,7.009,1.307-2.97,1.307-2.97c1.188,2.495,19.839,21.383,19.839,21.383l.356-4.871s16.988,7.009,19.72,16.275.594-2.02.594-2.02,10.335,3.683,14.255,11.879,23.4,36.826,29.461,37.777.713.475.713.475c.238-2.851-24.353-42.291-24.353-42.291-1.188-4.989-5.346-12.473-5.346-12.473.356-1.069,5.227,1.9,5.227,1.9s-11.285-18.176-10.573-23.878,3.564-.594,3.564-.594l-4.158-11.4h2.257s3.683-1.663.713-6.652-6.771-23.284-5.227-31.718,0,.713,0,.713l5.821,1.9,1.069.475s-6.415-11.167-6.652-23.521,3.089-15.918,3.089-15.918l7.959,6.059s-5.94-17.106-4.4-24.353,3.326,1.188,3.326,1.188-5.465-12.949-4.752-16.988,4.158.95,4.158.95-2.613-5.94-5.583-11.048,1.307-2.376,1.307-2.376l-3.207-7.959a17.942,17.942,0,0,1,5.108,1.307c1.782.95-1.544-7.246-2.138-7.365s-.475-9.86-1.426-10.691,3.445,1.426,3.445,1.426-1.663-10.216,5.346-16.75,10.1,10.335,8.553,16.631-2.138,8.791-2.138,8.791,2.376-1.426,2.613-2.495,1.663-.713,1.663-.713l2.02,20.2s1.307.475,3.92-4.514,6.177,29.936,6.177,29.936l2.019-7.009" transform="translate(-34.177 -121.664)" fill="rgba(35,35,35,0.97)" stroke="#000" stroke-width="0"/></g><g transform="translate(0 0)" opacity="0.627"><path d="M336.371,183.965s19.444,20.026,17.764,38-1.008-2.184,4.7-6.552,10.752,14.616,13.1,18.816-3.864,13.776-3.36,15.792,7.392-7.728,7.392-7.728,9.912,11.76,9.408,26.208-.168-1.176-.168-1.176l1.848-.672s4.536,14.784,3.192,22.512-.336-.336-.336-.336,4.872,7.728,3.36,12.768.336.672.336.672.84,6.72-1.176,10.752.84-.5.84-.5-.672,49.392-4.368,59.808,3.528-9.576,6.888-18.144,6.72-22.512,8.4-23.856.5,3.024.5,3.024l8.232-15.288,1.176,4.536s10.248-17.3,18.48-25.7-.5,1.512-.5,1.512l14.952-13.272.84,4.2,17.136-19.152-1.512,4.368s10.92-8.9,13.272-9.408.336,5.376.336,5.376l10.92-9.744.168,39.144-4.536,5.208-2.352,10.752s-5.04,3.864-5.208,3.7-9.072,10.08-9.072,10.08L462.5,341.584l-6.216,5.544s3.528,7.224-1.512,9.744-10.416,5.544-10.416,5.544-7.224,9.912-9.576,12.1S408.4,393.664,408.4,393.664s41.5-16.464,42.672-15.288-2.016,4.872-2.016,4.872l20.664-4.536-.168,3.7s13.944-4.2,14.616-1.176-1.848,2.184-1.848,2.184l5.544.672v22.68s-7.9,8.736-18.816,7.728,1.008.84,1.008.84-15.624,9.576-25.7,7.728-.168.168-.168.168-16.968,9.744-31.08.168-.84-1.008-.84-1.008l-20.5.336s1.344,6.552-7.728,7.644,5.124-1.26,5.124-1.26S406.3,441.88,404.2,458.344s-32.508,67.2-32.508,67.2,8.148-2.1-.336-.168-11.592-60.816-7.644-66.948-10.828,29.532-19.143,38.323-14.731,14.968-14.731,14.968l-4.277,1.425-6.177,13.78-15.206,9.266.238-7.841L299.664,538.8s-6.89,6.177-14.255,6.653.238-.475.238-.475-3.089,11.167-23.521,8.791h0s-19.482,17.582-26.61,19.72-12.592,15.681-23.759,18.057,22.333-36.826,22.333-36.826l-4.514-3.326s5.465-8.553,11.167-11.879-.713-3.326-.713-3.326,9.741-13.543,17.582-17.344S255,520.035,255,520.035l-1.9-1.9a38.439,38.439,0,0,1,16.631-17.344c12.117-6.415-2.613-1.426-2.613-1.426s12.592-17.106,21.621-17.819-3.089-2.614-3.089-2.614,36.114-26.135,45.617-30.411-77.692,22.333-87.908,21.383,4.277-5.94,4.277-5.94l-24.947,6.89s-10.454,2.138-13.543,0,5.465-5.7,5.465-5.7-34.213,6.89-43,1.663,6.415-9.266,6.415-9.266-28.511,5.94-36.589,3.089,3.564-5.465,3.564-5.465-9.741,6.652-18.057,1.188,0-9.028,0-9.028-31.6,6.89-38.252,1.9,7.84-5.227,7.84-5.227-37.539,5.465-39.677,3.564,7.6-4.039,7.6-4.039-28.986-2.851-30.174-6.89,8.316-4.752,23.046-5.465,12.592,2.851,12.592,2.851,7.6-6.177,21.858-3.326-.475-.237-.475-.237-6.177-5.227-4.514-5.227,21.621-1.426,31.124.95-4.514-5.465-4.514-5.465,20.908-6.415,29.461-4.277-1.426-2.851-1.426-2.851l8.553-1.663,5.227,2.138s12.592-4.277,18.77-.713-7.128-5.7-7.128-5.7,20.67-4.989,29.936-2.613.95-2.376.95-2.376,24.234.475,28.511,3.089-4.039-4.514-4.039-4.514,19.72,1.425,21.858,4.039-1.9-4.277-1.9-4.277,60.585,15.918,65.337,12.117-58.922-10.454-61.536-15.443,4.277-3.564,4.277-3.564-25.422-1.663-24.947-4.989,6.415-2.613,6.415-2.613-19.482,0-21.145-3.8-8.553-9.028-8.553-9.028l6.652-2.376s-45.379-13.067-47.043-22.571,16.394-6.89,16.394-6.89-37.3-12.83-37.064-20.908,12.83-7.128,12.83-7.128l-28.273-16.156,7.365.475s-26.372-5.94-24.947-10.216,8.316-2.376,8.316-2.376-24-.713-23.046-6.177,4.989-3.326,4.989-3.326L72.053,257.737l35.163,6.89,10.929,4.514-.475-8.316S133.589,272.943,140,275.081s-.475-7.128-.475-7.128,18.77,6.653,22.333,10.929-.95-10.216-.95-10.216,21.621,7.84,24.947,11.4-.713-7.366-.713-7.366m0,0s11.761-.119,16.394,4.514-2.495-3.92.713-2.02,20.2,10.335,23.759,19.6,0-9.622,0-9.622,8.434-.119,15.562,3.089,9.147,9.741,9.147,7.009,1.307-2.97,1.307-2.97c1.188,2.495,19.839,21.383,19.839,21.383l.356-4.871s16.988,7.009,19.72,16.275.594-2.02.594-2.02,10.335,3.683,14.255,11.879,23.4,36.826,29.461,37.777.713.475.713.475c.238-2.851-24.353-42.291-24.353-42.291-1.188-4.989-5.346-12.473-5.346-12.473.356-1.069,5.227,1.9,5.227,1.9s-11.285-18.176-10.573-23.878,3.564-.594,3.564-.594l-4.158-11.4h2.257s3.683-1.663.713-6.652-6.771-23.284-5.227-31.718,0,.713,0,.713l5.821,1.9,1.069.475s-6.415-11.167-6.652-23.521,3.089-15.918,3.089-15.918l7.959,6.059s-5.94-17.106-4.4-24.353,3.326,1.188,3.326,1.188-5.465-12.949-4.752-16.988,4.158.95,4.158.95-2.613-5.94-5.583-11.048,1.307-2.376,1.307-2.376l-3.207-7.959a17.942,17.942,0,0,1,5.108,1.307c1.782.95-1.544-7.246-2.138-7.365s-.475-9.86-1.426-10.691,3.445,1.426,3.445,1.426-1.663-10.216,5.346-16.75,10.1,10.335,8.553,16.631-2.138,8.791-2.138,8.791,2.376-1.426,2.613-2.495,1.663-.713,1.663-.713l2.02,20.2s1.307.475,3.92-4.514,6.177,29.936,6.177,29.936l2.019-7.009" transform="translate(-34.177 -121.664)" fill="rgba(255,255,255,0.12)" stroke="#000" stroke-width="0"/></g><g transform="translate(16.896 13.267)"><path d="M336.371,183.965s19.444,20.026,17.764,38-1.008-2.184,4.7-6.552,10.752,14.616,13.1,18.816-3.864,13.776-3.36,15.792,7.392-7.728,7.392-7.728,9.912,11.76,9.408,26.208-.168-1.176-.168-1.176l1.848-.672s4.536,14.784,3.192,22.512-.336-.336-.336-.336,4.872,7.728,3.36,12.768.336.672.336.672.84,6.72-1.176,10.752.84-.5.84-.5-.672,49.392-4.368,59.808,3.528-9.576,6.888-18.144,6.72-22.512,8.4-23.856.5,3.024.5,3.024l8.232-15.288,1.176,4.536s10.248-17.3,18.48-25.7-.5,1.512-.5,1.512l14.952-13.272.84,4.2,17.136-19.152-1.512,4.368s10.92-8.9,13.272-9.408.336,5.376.336,5.376l10.92-9.744.168,39.144-4.536,5.208-2.352,10.752s-5.04,3.864-5.208,3.7-9.072,10.08-9.072,10.08L462.5,341.584l-6.216,5.544s3.528,7.224-1.512,9.744-10.416,5.544-10.416,5.544-7.224,9.912-9.576,12.1S408.4,393.664,408.4,393.664s41.5-16.464,42.672-15.288-2.016,4.872-2.016,4.872l20.664-4.536-.168,3.7s13.944-4.2,14.616-1.176-1.848,2.184-1.848,2.184l5.544.672v22.68s-7.9,8.736-18.816,7.728,1.008.84,1.008.84-15.624,9.576-25.7,7.728-.168.168-.168.168-16.968,9.744-31.08.168-.84-1.008-.84-1.008l-20.5.336s1.344,6.552-7.728,7.644,5.124-1.26,5.124-1.26S406.3,441.88,404.2,458.344s-32.508,67.2-32.508,67.2,8.148-2.1-.336-.168-11.592-60.816-7.644-66.948-10.828,29.532-19.143,38.323-14.731,14.968-14.731,14.968l-4.277,1.425-6.177,13.78-15.206,9.266.238-7.841L299.664,538.8s-6.89,6.177-14.255,6.653.238-.475.238-.475-3.089,11.167-23.521,8.791h0s-19.482,17.582-26.61,19.72-12.592,15.681-23.759,18.057,22.333-36.826,22.333-36.826l-4.514-3.326s5.465-8.553,11.167-11.879-.713-3.326-.713-3.326,9.741-13.543,17.582-17.344S255,520.035,255,520.035l-1.9-1.9a38.439,38.439,0,0,1,16.631-17.344c12.117-6.415-2.613-1.426-2.613-1.426s12.592-17.106,21.621-17.819-3.089-2.614-3.089-2.614,36.114-26.135,45.617-30.411-77.692,22.333-87.908,21.383,4.277-5.94,4.277-5.94l-24.947,6.89s-10.454,2.138-13.543,0,5.465-5.7,5.465-5.7-34.213,6.89-43,1.663,6.415-9.266,6.415-9.266-28.511,5.94-36.589,3.089,3.564-5.465,3.564-5.465-9.741,6.652-18.057,1.188,0-9.028,0-9.028-31.6,6.89-38.252,1.9,7.84-5.227,7.84-5.227-37.539,5.465-39.677,3.564,7.6-4.039,7.6-4.039-28.986-2.851-30.174-6.89,8.316-4.752,23.046-5.465,12.592,2.851,12.592,2.851,7.6-6.177,21.858-3.326-.475-.237-.475-.237-6.177-5.227-4.514-5.227,21.621-1.426,31.124.95-4.514-5.465-4.514-5.465,20.908-6.415,29.461-4.277-1.426-2.851-1.426-2.851l8.553-1.663,5.227,2.138s12.592-4.277,18.77-.713-7.128-5.7-7.128-5.7,20.67-4.989,29.936-2.613.95-2.376.95-2.376,24.234.475,28.511,3.089-4.039-4.514-4.039-4.514,19.72,1.425,21.858,4.039-1.9-4.277-1.9-4.277,60.585,15.918,65.337,12.117-58.922-10.454-61.536-15.443,4.277-3.564,4.277-3.564-25.422-1.663-24.947-4.989,6.415-2.613,6.415-2.613-19.482,0-21.145-3.8-8.553-9.028-8.553-9.028l6.652-2.376s-45.379-13.067-47.043-22.571,16.394-6.89,16.394-6.89-37.3-12.83-37.064-20.908,12.83-7.128,12.83-7.128l-28.273-16.156,7.365.475s-26.372-5.94-24.947-10.216,8.316-2.376,8.316-2.376-24-.713-23.046-6.177,4.989-3.326,4.989-3.326L72.053,257.737l35.163,6.89,10.929,4.514-.475-8.316S133.589,272.943,140,275.081s-.475-7.128-.475-7.128,18.77,6.653,22.333,10.929-.95-10.216-.95-10.216,21.621,7.84,24.947,11.4-.713-7.366-.713-7.366m0,0s11.761-.119,16.394,4.514-2.495-3.92.713-2.02,20.2,10.335,23.759,19.6,0-9.622,0-9.622,8.434-.119,15.562,3.089,9.147,9.741,9.147,7.009,1.307-2.97,1.307-2.97c1.188,2.495,19.839,21.383,19.839,21.383l.356-4.871s16.988,7.009,19.72,16.275.594-2.02.594-2.02,10.335,3.683,14.255,11.879,23.4,36.826,29.461,37.777.713.475.713.475c.238-2.851-24.353-42.291-24.353-42.291-1.188-4.989-5.346-12.473-5.346-12.473.356-1.069,5.227,1.9,5.227,1.9s-11.285-18.176-10.573-23.878,3.564-.594,3.564-.594l-4.158-11.4h2.257s3.683-1.663.713-6.652-6.771-23.284-5.227-31.718,0,.713,0,.713l5.821,1.9,1.069.475s-6.415-11.167-6.652-23.521,3.089-15.918,3.089-15.918l7.959,6.059s-5.94-17.106-4.4-24.353,3.326,1.188,3.326,1.188-5.465-12.949-4.752-16.988,4.158.95,4.158.95-2.613-5.94-5.583-11.048,1.307-2.376,1.307-2.376l-3.207-7.959a17.942,17.942,0,0,1,5.108,1.307c1.782.95-1.544-7.246-2.138-7.365s-.475-9.86-1.426-10.691,3.445,1.426,3.445,1.426-1.663-10.216,5.346-16.75,10.1,10.335,8.553,16.631-2.138,8.791-2.138,8.791,2.376-1.426,2.613-2.495,1.663-.713,1.663-.713l2.02,20.2s1.307.475,3.92-4.514,6.177,29.936,6.177,29.936l2.019-7.009" transform="translate(-34.177 -121.664)" stroke="#000" stroke-width="0"/></g></g></g></svg>