<svg xmlns="http://www.w3.org/2000/svg" width="164.398" height="206.177" viewBox="0 0 164.398 206.177"><g transform="translate(130.106 205.492) rotate(-169)"><g transform="translate(8.442 34.292)"><path d="M46.9,159.007s80.894,41.33,78.421,43.45-86.016,3.179-86.016,3.179l85.611-2.744L82.406,243.611l42.89-41.166c6.33-8.179,27.407-7.229,27.407-7.229-8.436.88-22.223,1.671-26.665,6.885-4.2,4.934.059,2.018-1.065,20.315l.706-18.9-18.722-77.362,18.9,75.949s13.07-25.611,28.083-38.5" transform="translate(-39.309 -126.155)" fill="none" stroke="#9a5b00" stroke-width="0.197"/></g><g transform="translate(0.756 -0.845)"><rect width="131.621" height="184.451" fill="rgba(0,0,0,0)" stroke="#ffa4d8" stroke-width="0" opacity="0.41"/></g><g transform="translate(3.653 27.761)"><g transform="translate(5.53 5.525)" opacity="0.512"><path d="M113.6,138.039s5.111,5.263,4.669,9.988-.265-.574,1.236-1.722,2.826,3.842,3.444,4.946-1.016,3.621-.883,4.151,1.943-2.031,1.943-2.031a11.366,11.366,0,0,1,2.473,6.888c-.132,3.8-.044-.309-.044-.309l.486-.177s1.192,3.886.839,5.917-.088-.088-.088-.088,1.281,2.031.883,3.356.088.177.088.177a6.075,6.075,0,0,1-.309,2.826c-.53,1.06.221-.132.221-.132s-.177,12.982-1.148,15.72.927-2.517,1.81-4.769,1.766-5.917,2.208-6.27.132.795.132.795l2.164-4.018.309,1.192a45.676,45.676,0,0,1,4.857-6.756c2.164-2.208-.132.4-.132.4l3.93-3.488.221,1.1,4.5-5.034-.4,1.148a24.224,24.224,0,0,1,3.488-2.473c.618-.132.088,1.413.088,1.413l2.87-2.561.044,10.288-1.192,1.369-.618,2.826a15.259,15.259,0,0,1-1.369.971c-.044-.044-2.384,2.649-2.384,2.649l-1.192,3.135-1.634,1.457s.927,1.9-.4,2.561-2.738,1.457-2.738,1.457-1.9,2.605-2.517,3.179-6.933,5.034-6.933,5.034,10.907-4.327,11.216-4.018-.53,1.281-.53,1.281l5.431-1.192-.044.971s3.665-1.1,3.842-.309-.486.574-.486.574l1.457.177V196.6a6.539,6.539,0,0,1-4.945,2.031c-2.87-.265.265.221.265.221s-4.107,2.517-6.756,2.031-.044.044-.044.044-4.46,2.561-8.169.044-.221-.265-.221-.265l-5.387.088s.353,1.722-2.031,2.009,1.347-.331,1.347-.331,4.5,3.356,3.952,7.683-8.544,17.662-8.544,17.662,2.142-.552-.088-.044-3.047-15.985-2.009-17.6-2.846,7.762-5.031,10.073-3.872,3.934-3.872,3.934l-1.124.375-1.624,3.622-4,2.435.062-2.061-1.249,2.748a7.374,7.374,0,0,1-3.747,1.749c-1.936.125.062-.125.062-.125s-.812,2.935-6.182,2.311h0s-5.121,4.621-6.994,5.183-3.31,4.121-6.245,4.746,5.87-9.679,5.87-9.679l-1.186-.874a11.467,11.467,0,0,1,2.935-3.122c1.5-.874-.187-.874-.187-.874s2.56-3.559,4.621-4.559-.687.312-.687.312l-.5-.5a10.1,10.1,0,0,1,4.371-4.559c3.185-1.686-.687-.375-.687-.375s3.31-4.5,5.683-4.683-.812-.687-.812-.687,9.492-6.869,11.99-7.993-20.42,5.87-23.105,5.62,1.124-1.561,1.124-1.561l-6.557,1.811s-2.748.562-3.559,0,1.436-1.5,1.436-1.5-8.992,1.811-11.3.437,1.686-2.435,1.686-2.435-7.494,1.561-9.617.812.937-1.436.937-1.436-2.56,1.748-4.746.312,0-2.373,0-2.373-8.305,1.811-10.054.5,2.061-1.374,2.061-1.374-9.866,1.436-10.429.937,2-1.062,2-1.062-7.618-.749-7.931-1.811,2.186-1.249,6.057-1.436,3.31.749,3.31.749,2-1.624,5.745-.874-.125-.062-.125-.062-1.624-1.374-1.186-1.374,5.683-.375,8.18.25S55,200.267,55,200.267s5.5-1.686,7.743-1.124-.375-.749-.375-.749l2.248-.437,1.374.562s3.31-1.124,4.933-.187-1.873-1.5-1.873-1.5,5.433-1.311,7.868-.687.25-.624.25-.624,6.37.125,7.494.812-1.062-1.186-1.062-1.186,5.183.375,5.745,1.062-.5-1.124-.5-1.124,15.924,4.184,17.173,3.185-15.487-2.748-16.174-4.059,1.124-.937,1.124-.937-6.682-.437-6.557-1.311,1.686-.687,1.686-.687-5.121,0-5.558-1A9.174,9.174,0,0,0,78.29,187.9l1.748-.624s-11.927-3.435-12.364-5.932,4.309-1.811,4.309-1.811-9.8-3.372-9.742-5.5,3.372-1.873,3.372-1.873l-7.431-4.246,1.936.125s-6.932-1.561-6.557-2.685,2.186-.624,2.186-.624-6.307-.187-6.057-1.624S51,162.237,51,162.237l-6.869-4.808,9.242,1.811,2.873,1.186-.125-2.186s4.184,3.185,5.87,3.747-.125-1.873-.125-1.873,4.933,1.749,5.87,2.873-.25-2.685-.25-2.685,5.683,2.061,6.557,3-.187-1.936-.187-1.936m0,0s3.091-.031,4.309,1.186-.656-1.03.187-.531,5.308,2.716,6.245,5.152,0-2.529,0-2.529a11.027,11.027,0,0,1,4.09.812c1.873.843,2.4,2.56,2.4,1.842s.343-.781.343-.781c.312.656,5.214,5.62,5.214,5.62l.094-1.28s4.465,1.842,5.183,4.278.156-.531.156-.531a7.31,7.31,0,0,1,3.747,3.122c1.03,2.154,6.151,9.679,7.743,9.929s.187.125.187.125c.062-.749-6.4-11.115-6.4-11.115a17.081,17.081,0,0,0-1.405-3.278c.094-.281,1.374.5,1.374.5s-2.966-4.777-2.779-6.276.937-.156.937-.156l-1.093-3h.593s.968-.437.187-1.748a18.234,18.234,0,0,1-1.374-8.337c.406-2.217,0,.187,0,.187l1.53.5.281.125A14.66,14.66,0,0,1,103.862,149c-.062-3.247.812-4.184.812-4.184l2.092,1.592s-1.561-4.5-1.155-6.4.874.312.874.312-1.436-3.4-1.249-4.465,1.093.25,1.093.25-.687-1.561-1.467-2.9.343-.624.343-.624l-.843-2.092a4.716,4.716,0,0,1,1.343.343c.468.25-.406-1.9-.562-1.936s-.125-2.592-.375-2.81.905.375.905.375a5.336,5.336,0,0,1,1.405-4.4c1.842-1.717,2.654,2.716,2.248,4.371s-.562,2.311-.562,2.311.624-.375.687-.656.437-.187.437-.187l.531,5.308s.343.125,1.03-1.186,1.624,7.868,1.624,7.868l.531-1.842" transform="translate(-34.177 -121.664)" fill="rgba(35,35,35,0.97)" stroke="#000" stroke-width="0"/></g><g transform="translate(0 0)" opacity="0.627"><path d="M113.6,138.039s5.111,5.263,4.669,9.988-.265-.574,1.236-1.722,2.826,3.842,3.444,4.946-1.016,3.621-.883,4.151,1.943-2.031,1.943-2.031a11.366,11.366,0,0,1,2.473,6.888c-.132,3.8-.044-.309-.044-.309l.486-.177s1.192,3.886.839,5.917-.088-.088-.088-.088,1.281,2.031.883,3.356.088.177.088.177a6.075,6.075,0,0,1-.309,2.826c-.53,1.06.221-.132.221-.132s-.177,12.982-1.148,15.72.927-2.517,1.81-4.769,1.766-5.917,2.208-6.27.132.795.132.795l2.164-4.018.309,1.192a45.676,45.676,0,0,1,4.857-6.756c2.164-2.208-.132.4-.132.4l3.93-3.488.221,1.1,4.5-5.034-.4,1.148a24.224,24.224,0,0,1,3.488-2.473c.618-.132.088,1.413.088,1.413l2.87-2.561.044,10.288-1.192,1.369-.618,2.826a15.259,15.259,0,0,1-1.369.971c-.044-.044-2.384,2.649-2.384,2.649l-1.192,3.135-1.634,1.457s.927,1.9-.4,2.561-2.738,1.457-2.738,1.457-1.9,2.605-2.517,3.179-6.933,5.034-6.933,5.034,10.907-4.327,11.216-4.018-.53,1.281-.53,1.281l5.431-1.192-.044.971s3.665-1.1,3.842-.309-.486.574-.486.574l1.457.177V196.6a6.539,6.539,0,0,1-4.945,2.031c-2.87-.265.265.221.265.221s-4.107,2.517-6.756,2.031-.044.044-.044.044-4.46,2.561-8.169.044-.221-.265-.221-.265l-5.387.088s.353,1.722-2.031,2.009,1.347-.331,1.347-.331,4.5,3.356,3.952,7.683-8.544,17.662-8.544,17.662,2.142-.552-.088-.044-3.047-15.985-2.009-17.6-2.846,7.762-5.031,10.073-3.872,3.934-3.872,3.934l-1.124.375-1.624,3.622-4,2.435.062-2.061-1.249,2.748a7.374,7.374,0,0,1-3.747,1.749c-1.936.125.062-.125.062-.125s-.812,2.935-6.182,2.311h0s-5.121,4.621-6.994,5.183-3.31,4.121-6.245,4.746,5.87-9.679,5.87-9.679l-1.186-.874a11.467,11.467,0,0,1,2.935-3.122c1.5-.874-.187-.874-.187-.874s2.56-3.559,4.621-4.559-.687.312-.687.312l-.5-.5a10.1,10.1,0,0,1,4.371-4.559c3.185-1.686-.687-.375-.687-.375s3.31-4.5,5.683-4.683-.812-.687-.812-.687,9.492-6.869,11.99-7.993-20.42,5.87-23.105,5.62,1.124-1.561,1.124-1.561l-6.557,1.811s-2.748.562-3.559,0,1.436-1.5,1.436-1.5-8.992,1.811-11.3.437,1.686-2.435,1.686-2.435-7.494,1.561-9.617.812.937-1.436.937-1.436-2.56,1.748-4.746.312,0-2.373,0-2.373-8.305,1.811-10.054.5,2.061-1.374,2.061-1.374-9.866,1.436-10.429.937,2-1.062,2-1.062-7.618-.749-7.931-1.811,2.186-1.249,6.057-1.436,3.31.749,3.31.749,2-1.624,5.745-.874-.125-.062-.125-.062-1.624-1.374-1.186-1.374,5.683-.375,8.18.25S55,200.267,55,200.267s5.5-1.686,7.743-1.124-.375-.749-.375-.749l2.248-.437,1.374.562s3.31-1.124,4.933-.187-1.873-1.5-1.873-1.5,5.433-1.311,7.868-.687.25-.624.25-.624,6.37.125,7.494.812-1.062-1.186-1.062-1.186,5.183.375,5.745,1.062-.5-1.124-.5-1.124,15.924,4.184,17.173,3.185-15.487-2.748-16.174-4.059,1.124-.937,1.124-.937-6.682-.437-6.557-1.311,1.686-.687,1.686-.687-5.121,0-5.558-1A9.174,9.174,0,0,0,78.29,187.9l1.748-.624s-11.927-3.435-12.364-5.932,4.309-1.811,4.309-1.811-9.8-3.372-9.742-5.5,3.372-1.873,3.372-1.873l-7.431-4.246,1.936.125s-6.932-1.561-6.557-2.685,2.186-.624,2.186-.624-6.307-.187-6.057-1.624S51,162.237,51,162.237l-6.869-4.808,9.242,1.811,2.873,1.186-.125-2.186s4.184,3.185,5.87,3.747-.125-1.873-.125-1.873,4.933,1.749,5.87,2.873-.25-2.685-.25-2.685,5.683,2.061,6.557,3-.187-1.936-.187-1.936m0,0s3.091-.031,4.309,1.186-.656-1.03.187-.531,5.308,2.716,6.245,5.152,0-2.529,0-2.529a11.027,11.027,0,0,1,4.09.812c1.873.843,2.4,2.56,2.4,1.842s.343-.781.343-.781c.312.656,5.214,5.62,5.214,5.62l.094-1.28s4.465,1.842,5.183,4.278.156-.531.156-.531a7.31,7.31,0,0,1,3.747,3.122c1.03,2.154,6.151,9.679,7.743,9.929s.187.125.187.125c.062-.749-6.4-11.115-6.4-11.115a17.081,17.081,0,0,0-1.405-3.278c.094-.281,1.374.5,1.374.5s-2.966-4.777-2.779-6.276.937-.156.937-.156l-1.093-3h.593s.968-.437.187-1.748a18.234,18.234,0,0,1-1.374-8.337c.406-2.217,0,.187,0,.187l1.53.5.281.125A14.66,14.66,0,0,1,103.862,149c-.062-3.247.812-4.184.812-4.184l2.092,1.592s-1.561-4.5-1.155-6.4.874.312.874.312-1.436-3.4-1.249-4.465,1.093.25,1.093.25-.687-1.561-1.467-2.9.343-.624.343-.624l-.843-2.092a4.716,4.716,0,0,1,1.343.343c.468.25-.406-1.9-.562-1.936s-.125-2.592-.375-2.81.905.375.905.375a5.336,5.336,0,0,1,1.405-4.4c1.842-1.717,2.654,2.716,2.248,4.371s-.562,2.311-.562,2.311.624-.375.687-.656.437-.187.437-.187l.531,5.308s.343.125,1.03-1.186,1.624,7.868,1.624,7.868l.531-1.842" transform="translate(-34.177 -121.664)" fill="rgba(255,255,255,0.12)" stroke="#000" stroke-width="0"/></g><g transform="translate(4.441 3.487)"><path d="M113.6,138.039s5.111,5.263,4.669,9.988-.265-.574,1.236-1.722,2.826,3.842,3.444,4.946-1.016,3.621-.883,4.151,1.943-2.031,1.943-2.031a11.366,11.366,0,0,1,2.473,6.888c-.132,3.8-.044-.309-.044-.309l.486-.177s1.192,3.886.839,5.917-.088-.088-.088-.088,1.281,2.031.883,3.356.088.177.088.177a6.075,6.075,0,0,1-.309,2.826c-.53,1.06.221-.132.221-.132s-.177,12.982-1.148,15.72.927-2.517,1.81-4.769,1.766-5.917,2.208-6.27.132.795.132.795l2.164-4.018.309,1.192a45.676,45.676,0,0,1,4.857-6.756c2.164-2.208-.132.4-.132.4l3.93-3.488.221,1.1,4.5-5.034-.4,1.148a24.224,24.224,0,0,1,3.488-2.473c.618-.132.088,1.413.088,1.413l2.87-2.561.044,10.288-1.192,1.369-.618,2.826a15.259,15.259,0,0,1-1.369.971c-.044-.044-2.384,2.649-2.384,2.649l-1.192,3.135-1.634,1.457s.927,1.9-.4,2.561-2.738,1.457-2.738,1.457-1.9,2.605-2.517,3.179-6.933,5.034-6.933,5.034,10.907-4.327,11.216-4.018-.53,1.281-.53,1.281l5.431-1.192-.044.971s3.665-1.1,3.842-.309-.486.574-.486.574l1.457.177V196.6a6.539,6.539,0,0,1-4.945,2.031c-2.87-.265.265.221.265.221s-4.107,2.517-6.756,2.031-.044.044-.044.044-4.46,2.561-8.169.044-.221-.265-.221-.265l-5.387.088s.353,1.722-2.031,2.009,1.347-.331,1.347-.331,4.5,3.356,3.952,7.683-8.544,17.662-8.544,17.662,2.142-.552-.088-.044-3.047-15.985-2.009-17.6-2.846,7.762-5.031,10.073-3.872,3.934-3.872,3.934l-1.124.375-1.624,3.622-4,2.435.062-2.061-1.249,2.748a7.374,7.374,0,0,1-3.747,1.749c-1.936.125.062-.125.062-.125s-.812,2.935-6.182,2.311h0s-5.121,4.621-6.994,5.183-3.31,4.121-6.245,4.746,5.87-9.679,5.87-9.679l-1.186-.874a11.467,11.467,0,0,1,2.935-3.122c1.5-.874-.187-.874-.187-.874s2.56-3.559,4.621-4.559-.687.312-.687.312l-.5-.5a10.1,10.1,0,0,1,4.371-4.559c3.185-1.686-.687-.375-.687-.375s3.31-4.5,5.683-4.683-.812-.687-.812-.687,9.492-6.869,11.99-7.993-20.42,5.87-23.105,5.62,1.124-1.561,1.124-1.561l-6.557,1.811s-2.748.562-3.559,0,1.436-1.5,1.436-1.5-8.992,1.811-11.3.437,1.686-2.435,1.686-2.435-7.494,1.561-9.617.812.937-1.436.937-1.436-2.56,1.748-4.746.312,0-2.373,0-2.373-8.305,1.811-10.054.5,2.061-1.374,2.061-1.374-9.866,1.436-10.429.937,2-1.062,2-1.062-7.618-.749-7.931-1.811,2.186-1.249,6.057-1.436,3.31.749,3.31.749,2-1.624,5.745-.874-.125-.062-.125-.062-1.624-1.374-1.186-1.374,5.683-.375,8.18.25S55,200.267,55,200.267s5.5-1.686,7.743-1.124-.375-.749-.375-.749l2.248-.437,1.374.562s3.31-1.124,4.933-.187-1.873-1.5-1.873-1.5,5.433-1.311,7.868-.687.25-.624.25-.624,6.37.125,7.494.812-1.062-1.186-1.062-1.186,5.183.375,5.745,1.062-.5-1.124-.5-1.124,15.924,4.184,17.173,3.185-15.487-2.748-16.174-4.059,1.124-.937,1.124-.937-6.682-.437-6.557-1.311,1.686-.687,1.686-.687-5.121,0-5.558-1A9.174,9.174,0,0,0,78.29,187.9l1.748-.624s-11.927-3.435-12.364-5.932,4.309-1.811,4.309-1.811-9.8-3.372-9.742-5.5,3.372-1.873,3.372-1.873l-7.431-4.246,1.936.125s-6.932-1.561-6.557-2.685,2.186-.624,2.186-.624-6.307-.187-6.057-1.624S51,162.237,51,162.237l-6.869-4.808,9.242,1.811,2.873,1.186-.125-2.186s4.184,3.185,5.87,3.747-.125-1.873-.125-1.873,4.933,1.749,5.87,2.873-.25-2.685-.25-2.685,5.683,2.061,6.557,3-.187-1.936-.187-1.936m0,0s3.091-.031,4.309,1.186-.656-1.03.187-.531,5.308,2.716,6.245,5.152,0-2.529,0-2.529a11.027,11.027,0,0,1,4.09.812c1.873.843,2.4,2.56,2.4,1.842s.343-.781.343-.781c.312.656,5.214,5.62,5.214,5.62l.094-1.28s4.465,1.842,5.183,4.278.156-.531.156-.531a7.31,7.31,0,0,1,3.747,3.122c1.03,2.154,6.151,9.679,7.743,9.929s.187.125.187.125c.062-.749-6.4-11.115-6.4-11.115a17.081,17.081,0,0,0-1.405-3.278c.094-.281,1.374.5,1.374.5s-2.966-4.777-2.779-6.276.937-.156.937-.156l-1.093-3h.593s.968-.437.187-1.748a18.234,18.234,0,0,1-1.374-8.337c.406-2.217,0,.187,0,.187l1.53.5.281.125A14.66,14.66,0,0,1,103.862,149c-.062-3.247.812-4.184.812-4.184l2.092,1.592s-1.561-4.5-1.155-6.4.874.312.874.312-1.436-3.4-1.249-4.465,1.093.25,1.093.25-.687-1.561-1.467-2.9.343-.624.343-.624l-.843-2.092a4.716,4.716,0,0,1,1.343.343c.468.25-.406-1.9-.562-1.936s-.125-2.592-.375-2.81.905.375.905.375a5.336,5.336,0,0,1,1.405-4.4c1.842-1.717,2.654,2.716,2.248,4.371s-.562,2.311-.562,2.311.624-.375.687-.656.437-.187.437-.187l.531,5.308s.343.125,1.03-1.186,1.624,7.868,1.624,7.868l.531-1.842" transform="translate(-34.177 -121.664)" stroke="#000" stroke-width="0"/></g></g></g></svg>