<svg xmlns="http://www.w3.org/2000/svg" width="185.471" height="72.681" viewBox="0 0 185.471 72.681"><path d="M0,56.776V2.739H19.635a23.914,23.914,0,0,1,9.474,1.714,13.88,13.88,0,0,1,6.165,4.87,12.776,12.776,0,0,1,2.169,7.421,13.474,13.474,0,0,1-1.675,6.811,11.944,11.944,0,0,1-4.719,4.6,13.132,13.132,0,0,1,6.394,5.061A14.521,14.521,0,0,1,39.728,41.4a13.666,13.666,0,0,1-2.437,8.143,15.852,15.852,0,0,1-6.849,5.327,26.2,26.2,0,0,1-10.427,1.9H0ZM10.96,12.1v12.4h7.458a9.225,9.225,0,0,0,5.747-1.559,5.46,5.46,0,0,0,2.016-4.6A5.577,5.577,0,0,0,24.164,13.7a9.066,9.066,0,0,0-5.747-1.6Zm0,35.314h8.523a10.424,10.424,0,0,0,6.584-1.827,6.285,6.285,0,0,0,2.322-5.253,6.282,6.282,0,0,0-2.322-5.249,10.436,10.436,0,0,0-6.584-1.827H10.96V47.414ZM46.5,56.776V0H57.155V56.776H46.5Zm38.51,1.141a21.234,21.234,0,0,1-8.294-1.6,20.018,20.018,0,0,1-11-11.188,22.45,22.45,0,0,1-1.559-8.447,21.691,21.691,0,0,1,1.6-8.41,20.928,20.928,0,0,1,4.451-6.735,20.2,20.2,0,0,1,6.7-4.49,21.682,21.682,0,0,1,8.409-1.6,21.2,21.2,0,0,1,8.3,1.6,20.123,20.123,0,0,1,11,11.149,22.163,22.163,0,0,1,1.559,8.41,21.977,21.977,0,0,1-1.6,8.447,20.822,20.822,0,0,1-4.453,6.774,20.2,20.2,0,0,1-6.7,4.49A21.691,21.691,0,0,1,85.01,57.917Zm.153-9.59a9.126,9.126,0,0,0,5.176-1.521,10.666,10.666,0,0,0,3.613-4.147,13,13,0,0,0,1.333-5.976,13.011,13.011,0,0,0-1.331-5.974,10.674,10.674,0,0,0-3.614-4.147,9.563,9.563,0,0,0-10.351,0,10.657,10.657,0,0,0-3.614,4.147,13.019,13.019,0,0,0-1.333,5.976,13.012,13.012,0,0,0,1.333,5.974A10.659,10.659,0,0,0,79.987,46.8a9.113,9.113,0,0,0,5.176,1.522Zm44.522,7.306a16.828,16.828,0,0,1-7.115-1.522,17.5,17.5,0,0,1-5.747-4.223,19.8,19.8,0,0,1-3.806-6.317,21.863,21.863,0,0,1-1.369-7.8,22.362,22.362,0,0,1,1.408-8.029,19.563,19.563,0,0,1,3.957-6.431,18.753,18.753,0,0,1,5.935-4.3,17.353,17.353,0,0,1,7.345-1.559,15.449,15.449,0,0,1,7,1.559,13.643,13.643,0,0,1,5.174,4.529l.229-4.947h9.819V51.98a23.108,23.108,0,0,1-1.484,8.449A18.574,18.574,0,0,1,140.3,71.2a22.552,22.552,0,0,1-8.335,1.484,21.835,21.835,0,0,1-8.066-1.408,19.294,19.294,0,0,1-6.241-3.919,18.5,18.5,0,0,1-4.186-5.861l10.2-2.51a10.049,10.049,0,0,0,3.539,3.463,10.4,10.4,0,0,0,10.045-.077,9.1,9.1,0,0,0,3.388-3.729,12.208,12.208,0,0,0,1.217-5.594V49.773a14.364,14.364,0,0,1-5.213,4.3A15.517,15.517,0,0,1,129.685,55.633Zm2.588-9.437a8.937,8.937,0,0,0,4.984-1.408,10.241,10.241,0,0,0,3.463-3.8,11.271,11.271,0,0,0,1.294-5.441A11.273,11.273,0,0,0,140.72,30.1a10.241,10.241,0,0,0-3.463-3.8,9.527,9.527,0,0,0-9.97,0,10.241,10.241,0,0,0-3.463,3.8,11.273,11.273,0,0,0-1.294,5.443,11.276,11.276,0,0,0,1.294,5.441,10.241,10.241,0,0,0,3.465,3.8A8.932,8.932,0,0,0,132.273,46.2Zm28.767,10.58V16.589h9.819l.38,6.09a11.782,11.782,0,0,1,4.11-4.91,10.767,10.767,0,0,1,6.088-1.712,12.241,12.241,0,0,1,2.131.19,11.733,11.733,0,0,1,1.9.5l-1.143,10.5a8.038,8.038,0,0,0-1.712-.418,13.814,13.814,0,0,0-1.788-.114,8.51,8.51,0,0,0-6.774,2.7q-2.358,2.7-2.359,7.649V56.774H161.041Z" fill="rgba(86,191,241,0.63)"/></svg>