<svg xmlns="http://www.w3.org/2000/svg" width="116.663" height="45.717" viewBox="0 0 116.663 45.717"><path d="M0,35.713V1.723H12.351A15.042,15.042,0,0,1,18.31,2.8a8.73,8.73,0,0,1,3.878,3.063,8.036,8.036,0,0,1,1.365,4.668A8.475,8.475,0,0,1,22.5,14.816a7.513,7.513,0,0,1-2.968,2.9A8.26,8.26,0,0,1,23.553,20.9a9.134,9.134,0,0,1,1.436,5.147,8.6,8.6,0,0,1-1.533,5.122,9.971,9.971,0,0,1-4.308,3.351,16.483,16.483,0,0,1-6.559,1.2H0Zm6.894-28.1v7.8h4.691a5.8,5.8,0,0,0,3.615-.981,3.434,3.434,0,0,0,1.268-2.9A3.508,3.508,0,0,0,15.2,8.617a5.7,5.7,0,0,0-3.615-1.005Zm0,22.213h5.361A6.557,6.557,0,0,0,16.4,28.675a3.953,3.953,0,0,0,1.461-3.3,3.952,3.952,0,0,0-1.461-3.3,6.564,6.564,0,0,0-4.141-1.149H6.894v8.9Zm22.355,5.889V0h6.7V35.713h-6.7Zm24.223.718a13.357,13.357,0,0,1-5.217-1.005,12.592,12.592,0,0,1-6.918-7.037,14.121,14.121,0,0,1-.981-5.313,13.644,13.644,0,0,1,1.005-5.29,13.164,13.164,0,0,1,2.8-4.236,12.707,12.707,0,0,1,4.213-2.824,13.638,13.638,0,0,1,5.289-1.005,13.337,13.337,0,0,1,5.218,1.005A12.657,12.657,0,0,1,65.8,17.736a13.941,13.941,0,0,1,.981,5.29,13.824,13.824,0,0,1-1.005,5.313,13.1,13.1,0,0,1-2.8,4.261,12.707,12.707,0,0,1-4.212,2.824A13.644,13.644,0,0,1,53.472,36.43Zm.1-6.032a5.74,5.74,0,0,0,3.256-.956A6.709,6.709,0,0,0,59.1,26.833a8.175,8.175,0,0,0,.838-3.759,8.184,8.184,0,0,0-.837-3.758,6.714,6.714,0,0,0-2.274-2.609,6.016,6.016,0,0,0-6.511,0,6.7,6.7,0,0,0-2.274,2.609,8.189,8.189,0,0,0-.838,3.759,8.184,8.184,0,0,0,.838,3.758,6.7,6.7,0,0,0,2.274,2.609,5.732,5.732,0,0,0,3.256.958Zm28,4.6a10.585,10.585,0,0,1-4.475-.958,11,11,0,0,1-3.615-2.656,12.456,12.456,0,0,1-2.394-3.973,13.752,13.752,0,0,1-.861-4.908,14.066,14.066,0,0,1,.886-5.05A12.306,12.306,0,0,1,73.6,13.4a11.8,11.8,0,0,1,3.733-2.7,10.915,10.915,0,0,1,4.62-.981,9.718,9.718,0,0,1,4.4.981,8.582,8.582,0,0,1,3.254,2.849l.144-3.112h6.176V32.7A14.535,14.535,0,0,1,95,38.01a11.683,11.683,0,0,1-6.75,6.773,14.186,14.186,0,0,1-5.243.933,13.734,13.734,0,0,1-5.073-.886,12.137,12.137,0,0,1-3.926-2.465,11.635,11.635,0,0,1-2.633-3.687L77.791,37.1a6.321,6.321,0,0,0,2.226,2.178,6.54,6.54,0,0,0,6.319-.049,5.726,5.726,0,0,0,2.131-2.345,7.679,7.679,0,0,0,.765-3.519V31.308a9.035,9.035,0,0,1-3.279,2.7A9.761,9.761,0,0,1,81.573,34.994ZM83.2,29.058a5.621,5.621,0,0,0,3.135-.886,6.441,6.441,0,0,0,2.178-2.393,7.09,7.09,0,0,0,.814-3.423,7.091,7.091,0,0,0-.814-3.424,6.442,6.442,0,0,0-2.178-2.393,5.993,5.993,0,0,0-6.271,0,6.442,6.442,0,0,0-2.178,2.393,7.091,7.091,0,0,0-.814,3.424,7.093,7.093,0,0,0,.814,3.423,6.441,6.441,0,0,0,2.18,2.393A5.619,5.619,0,0,0,83.2,29.058ZM101.3,35.713V10.434h6.176l.239,3.831a7.411,7.411,0,0,1,2.585-3.089,6.773,6.773,0,0,1,3.829-1.077,7.7,7.7,0,0,1,1.34.119,7.38,7.38,0,0,1,1.2.312l-.719,6.606a5.056,5.056,0,0,0-1.077-.263,8.689,8.689,0,0,0-1.125-.072,5.353,5.353,0,0,0-4.261,1.7A7.087,7.087,0,0,0,108,23.313v12.4h-6.7Z" fill="rgba(86,191,241,0.63)"/></svg>