<svg xmlns="http://www.w3.org/2000/svg" xmlns:xlink="http://www.w3.org/1999/xlink" width="2251.157" height="1093.097" viewBox="0 0 2251.157 1093.097"><defs><clipPath id="a"><rect width="2251.157" height="1093.097" transform="translate(0)" fill="#ff822d"/></clipPath></defs><g transform="translate(81.437)"><g transform="translate(-81.437)"><path d="M176.93,279.692s36.565-1.747,37.094-18.152-3.266-36.113-3.266-36.113V213.784L232.984,224.9l92.081,29.635,99.489-22.755,7.409,12.965s-4.725,45.994,1.1,54.463,117.3,24.578,117.3,24.578l-28.928,17.857-58.723-3.4-83.664-9.089Z" transform="translate(856.592 641.396)" fill="#ff822d"/><path d="M200.851,191.794s8.467-39.16,58.211-50.8,94.2-22.226,127.007-1.058,83.612,62.443,88.9,84.672,7.2,121.4,7.95,131.879-8.232,61.367-8.232,61.367-8.981,42.658-18.336,55.383-18.336,34.426-18.336,34.426L425.67,528.615S393.3,572.4,379.456,575.766s-44.154,9.542-61.367.187-37.046-28.065-37.046-28.065L249.05,519.636s-17.286-18.573-23.762-29.374c-6.2-10.347-9.518-22.3-14.091-33.336-5.1-12.321-17.9-41.13-17.9-41.13l-5.239-25.633L184.875,369.4l-6.361-20.019-3.742-29.187V290.253s-.748-33.3,4.116-38.355,1.8-10.264,8.238-31.48c2.967-9.773,13.725-28.619,13.725-28.619Z" transform="translate(849.992 383.396)" fill="#f95"/><g transform="translate(0)" clip-path="url(#a)"><path d="M738.949,1000.041a104.677,104.677,0,0,0,11.226-29.936l3.368-16.839s1.5-22.452,14.968-29.936,11.226-9.729,11.226-9.729,16.839-15.342,16.839-20.207,15.716-23.2,31.432-24.323,40.786,16.09,46.4,18.71,4.865,2.994,4.865,2.994,14.22-5.239,30.684-18.71,46.4,10.852,46.4,10.852,18.336,25.82,46.4,43.406,28.439,41.162,28.439,41.162l1.871,30.684,8.981,40.038,36.671,7.858,16.839-9.355,9.4-42.83,5.292-37.044s23.814,3.175,34.4-3.7,60.063-13.23,60.063-13.23l42.866-3.969s29.37,1.323,39.954,4.5,39.16,3.7,39.16,3.7,41.014,5.027,53.183-2.117,68.532-31.487,77.528-45.246,39.425-33.869,39.425-33.869,21.528-23.7,30.693-36.779c55.2-78.756,60.871-203.059,145.175-249.345,152.472-83.712,113.45-237.636,51.395-330.105-207.179-308.7-510.387-466.264-1084.9-258.8C435.621,61.39,57.081,66.378,85.843,415.056,93.554,508.589-1.618,553.1,68.783,751.973,211.686,958.34,342.061,827.637,469.924,887.4c37.024,17.307,68.576,44.662,104.593,63.975,21.64,11.6,52.571,19.1,66.788,31.069s97.665,17.587,97.665,17.587Z" transform="translate(283.601 -339.814)" stroke="#000" stroke-width="0.265"/></g><path d="M254.08,137.411s.847,17.334,1.123,26.007c.291,9.165-1.771,18.635.561,27.5A26.268,26.268,0,0,0,261,200.65c2.413,2.947,5.173,6.114,8.794,7.3,4.87,1.592,15.342-.935,15.342-.935l12.536-2.245s-7.322-9.788-6.736-15.342c.847-8.017-.936-26.381-.936-26.381l-2.245-20.207-2.245-7.671s-10.477-4.116-19.271-1.5-12.161,3.742-12.161,3.742Z" transform="translate(1088.058 398.417)" fill="#0e218e"/><path d="M155.39,153.361a42.2,42.2,0,0,1,19.458-5.987C185.7,147,193.184,147,193.184,147l2.619,32.555,1.5,17.213-8.606,5.239s-15.716,5.239-19.832,2.994-12.349-35.549-13.471-51.639Z" transform="translate(791.967 441.03)" fill="#0d1e82"/><path d="M320.93,294.117s1.892-18.481,8.4-23.813c11.394-9.33,14.708-14.708,14.708-14.708s-8.4-3.5-2.8-11.206,29.416-25.214,29.416-25.214,23.813,4.2,35.72,12.607,14.708,6.3,14.708,6.3,4.9,18.911,5.6,28.716S456.8,294.818,456.8,294.818l8.4,14.708-4.9,6.3-22.412,18.21L311.824,310.226Z" transform="translate(1261.301 657.572)" fill="#f95"/><path d="M336.749,228.56l8.275,1.732-5.966,5.773s-5.773,25.017-1.155,29.251c1.264,13.424-16.18,2.642-19.821,2.5l-3.945-1.058s.77-14.722,4.522-21.072,18.089-17.127,18.089-17.127Z" transform="translate(1268.242 685.727)" fill="#ff6904"/><path d="M231.223,387.691c-4.608-21.285,2.342-44.694,11.975-64.227,29.777-60.379,100.321-92.517,134.987-150.228,29.438-49.007,52.219-152.4,58.783-161.112,7.292-.269,5.734,87.041,2.721,102.873-1.5,7.876-98.121,138.371-156.216,200.846-15.51,16.68-30.126,36.5-34.835,58.783-3.173,15.016,19.782,40.25,5.443,45.722-12.415,4.738-20.049-19.671-22.861-32.658Z" transform="translate(1015.11 36.371)" fill="#1a1a1a"/><path d="M211.086,424.8s-7.076-43-16.329-49.531-6.532-55.519-6.532-55.519-7.076-87.089,8.164-115.39,29.392-69.672,29.392-69.672,13.063-120.834,1.633-129S232.858,4.6,232.858,4.6s34.835,46.81,34.835,72.936S281.3,180.409,263.34,209.259s-38.645,59.875-29.392,75.112,59.327,56.063,59.327,56.063,14.7,37.012,11.43,54.975-2.721,28.3-2.721,28.3Z" transform="translate(885.559 5.264)" fill="#1a1a1a"/></g><g transform="translate(305.367 420.415)"><g transform="translate(0 193.786)"><path d="M197.419,188.057l10.007-11.931v-8.082l24.247-3.849,3.464,10.392-5,12.7,1.155,32.33,5,20.4-1.155,11.546H212.429l-7.7-31.945L195.494,210l-4.234-17.7Z" transform="translate(342.562 -142.75)" fill="#f95"/><path d="M360.662,222.8c5.213-2.344,8.411-3.534,13.482-4.163,3.517-.437,41.71-.321,58.339,4.117,23.08,6.159,46.85,15.45,61.975,35.666s21.053,60.579,18.71,77.764-2.808,24.056-11.694,21.049,4.746-19.641,4.678-31.865.055-26.163-6.431-40.634-16-30.242-34.2-41.806-55.351-17.285-73.084-18.417-26.549,2.01-31.023,3.719-12.5-.142-.748-5.426Z" transform="translate(832.472 20.079)" stroke="#000" stroke-width="0.265"/><path d="M580.112,392.391s51.327,11.174,64.423,20.9,69.228,49.395,85.692,54.259,55.383,11.6,55.383,11.6l165.769,32.929,69.028,7.316s44.45-4.763,48.951-10.055,51.863,6.086,51.863,6.086,62.179,13.494,75.94,34.133,18.522,38.631,18.522,38.631,10.584-52.391,21.7-76.732,39.181-12.287,39.181-12.287L1374.6,506.1s31.058,13.471,35.175,20.955,13.845,22.826,12.349,29.562-21.7,33.3-21.7,33.3L1386.2,627.711,57.812,627.336s.269-38.083,9.265-54.755S131.9,493.465,131.9,493.465l53.715-61.123s94.989-88.641,115.1-97.109,101.077-18.522,101.077-18.522,68.384-72.56,81.856-80.792,35.923-17.213,35.923-17.213-5.239-33.678,7.484-40.414,44.9-19.458,44.9-19.458l31.432,29.187,22.452,94.3,2.994,64.363Z" transform="translate(-57.812 -158.834)" fill="#d00000"/><path d="M63.339,438.07s100.069-96.989,122.39-110.846S300.423,254.1,300.423,254.1l79.284-55.423s-76.976,6.158-98.529,18.474-111.614,94.681-140.867,122.39-76.976,98.529-76.976,98.529Z" transform="translate(-41.241 -39.305)" fill="#5a0000"/></g><path d="M242.89,241.561s20.639,39.954,26.46,43.922,16.14,20.374,28.047,19.58,30.958.794,40.218-6.615,24.608-24.608,25.4-28.577-37.308-9.79-58.739-11.907-61.387-16.4-61.387-16.4Z" transform="translate(497.461 283.147)" stroke="#000" stroke-width="0.265" opacity="0.835"/><g transform="translate(564.495 6.96)"><path d="M224.562,306.021l13.778-40.134s14.052-24.792,22.188-36.464c10.2-14.628,20.183-29.775,33.257-41.9,18.425-17.091,34.887-30.358,62.4-42.31,40.754-17.7,70.292-12.409,121.858,1.523,31.054,8.39,57.015,31.089,80.84,52.707,15.056,13.663,35.985,39.16,38.1,47.627s14.946,12.137,14.946,16.09l10.584-12.171-2.432-7.158-10.268-8.189-26.46-34.927s-31.267-41.358-52.391-55.567c-24.328-16.362-52.851-28.853-82.024-31.752C406.725,109.2,361,115.2,323.525,135.09c-40.442,21.462-70.416,60.5-95.253,98.961-12.368,19.152-25.4,59.271-25.4,63.5s-2.911,10.385-2.911,10.385l1.786,9,2.712,2.051,4.233,1.786,4.167.728,9.592-4.564,2.447-7.144Z" transform="translate(-195.834 -112.13)" fill="#03071e"/><ellipse cx="14.713" cy="17.165" rx="14.713" ry="17.165" transform="translate(400.036 125.084)" fill="#03071e"/><ellipse cx="17.208" cy="17.959" rx="17.208" ry="17.959" transform="translate(0 179.333)" fill="#03071e"/></g><g transform="translate(247.873)"><ellipse cx="12.974" cy="13.54" rx="12.974" ry="13.54" transform="translate(320.856 190.711)" fill="#0d1e82"/><ellipse cx="11.651" cy="13.593" rx="11.651" ry="13.593" transform="translate(721.16 135.616)" fill="#0d1e82"/><path d="M378.436,110.43c-20.339.754-41.042,2-60.463,8.54-24.943,9.092-46.482,25.27-66.651,42.158-15.628,13.568-27.86,30.386-41.174,46.094-2.317,2.036,2.774,2.965,3.984,4.475,11.431,7.54,32.766,23.149,34.294,22.62,1.1-.382,14.156-29.152,26.363-39.548,14.246-11.44,28.728-22.735,44.466-32.074,10.712-6.265,22.293-11.925,34.386-13.81,14.192-2.19,28.685-1.682,42.822-.42,19.381,1.926,38.67,5.822,57.731,10.518,14.284,4.037,27.857,11.813,36.939,23.762a9.519,9.519,0,0,0,12.18,1.461c6.939-4.039,11.855-10.654,17-16.658q2.458-3.094,4.915-6.187c-19.947-25.048-50.075-40.858-81.5-45.678a344.562,344.562,0,0,0-65.283-5.253Z" transform="translate(149.564 -110.39)" fill="#0b196d"/><path d="M144.2,390.273l12.7-39.16,45.51-44.45,68.8-38.1,49.743-41.278,9.525-10.584,5.292,17.993-17.993,23.284v44.45L313.538,318.3l-6.35-39.16,5.292,129.123-11.642,34.927V456.95l-160.876,1.058Z" transform="translate(-59.22 208.558)" fill="#5a0000"/><path d="M288.238,287.615s8.467-4.763,18.522-11.113,34.927-17.463,47.626-29.635,34.927-22.755,35.985-30.164c-23.794,63.779-29.269,9.116-39.69,59.007,0,4.5,3.44,18.257,3.7,21.168s-16.934-7.673-22.226-6.086-20.374,3.44-16.934,13.494,16.14,27.253,15.082,37.837-50.539,56.623-62.179,65.091c-10.674-1.738-34.458,53.223-63.775,50.891-15.424-1.227-79.432,6.008-84.208-3.264-4.564-8.859,34.316-21.113,59.259-45.106,24.224-23.3,34.342-58.419,42.686-62.851,7.082-3.763,20.632-21.691,31.538-32.658,15.17-15.255,34.611-26.612,34.611-26.612Z" transform="translate(-119.777 208.572)" fill="#250000"/><path d="M203.15,158.232c-6.412,3.754-13.307,6.684-19.421,11.037-1.719,1.454-4.67,4.3-2.112,6.315,2.427,1.181,5.413.1,8-.183,4.029-1.072,8.027-2.539,11.909-3.888,4.4,3.7,8.319,8.109,12.56,12.051,3.14,3.278,6.822,6.252,9.63,9.715,2.254,10.578,5.054,21.089,6.861,31.732.053,10.215-.547,20.717,2.29,30.63a47.277,47.277,0,0,1,4.483,13.081c2.574,10.656,4.65,21.5,4.6,32.5.786,16.9,1.386,33.929,4.609,50.575.59,3.525,2.6,7.956,6.683,8.007,3.9-.978,7.116-3.856,9.733-6.773,1.825-3.446.227-7.108.549-10.7-.745-16.981-1.044-34.008-2.173-50.955-3.234-17.516-6.419-35.049-10.941-52.287-3.813-15.821-7.506-31.669-11.2-47.519q-17.337-17.044-34.674-34.088l-1.383.75Z" transform="translate(62.756 30.898)" fill="#960000"/></g></g><g transform="translate(867.202 587.343)"><path d="M162.686,220.582c6.561,9.139,12.869,18.543,19.587,27.517,11.065,7.368,21.9,15.113,33.107,22.25q27.666,15.778,55.335,31.551c11.495.448,23.027.562,34.5,1.222q86.212,16.584,172.417,33.194c23.09.654,46.182,1.555,69.272,2.056,15.959-1.183,32.091-2.1,47.65-6.059,4.038-.93,8.252-3.309,9-7.756.973-4.205-1.937-8.179-5.445-10.18-15.732,5.667-31.842,11.449-48.595,13.753-8.137.906-16.163-1.487-24.2-2.383-68.772-11.033-137.535-23.114-205.995-35.794-16.241-2.879-32.11-6.429-48.191-9.885-2.855-.92-5.986-.215-8.789-.685-32.242-20.881-64.691-41.438-97.145-61.983-1.452-.371-5.809-3.506-5.419-2.124l2.919,5.307Z" transform="translate(-143.607 57.48)" fill="#960000"/><path d="M163.045,181.984l14.032-14.594,6.548-4.865,5.239,5.613-2.058,3.368s-10.757,4.711-13.284,9.542c-3.642,6.964-.979,15.738-.374,23.574.653,8.454,3.742,23.949,4.3,25.071s3.143,10.93,4.252,16.278c.617,2.973,2.059,7.847,3.256,11.651a18.954,18.954,0,0,1,.724,9.3l5.64,9.474a13.452,13.452,0,0,1-8.82,3.062c-5.239-.187-7.914-13.578-10.477-20.955-7.028-20.218-15.716-52.575-13.1-62.863s4.116-13.658,4.116-13.658Z" transform="translate(-147.485 -99.732)" fill="#cf1757"/><path d="M168.43,161.545l17.4-2.619s2.077,3.014,2.948,4.619c2.048,3.771,6.065,7.49,5.33,11.717-1.6,9.2-16.086,11.4-19.523,20.084-4.071,10.286.58,33.18.58,33.18l7.3,27.691,9.355,28.626s.016,7.879-2.806,9.729c-3.63,2.379-9.582,1.1-12.91-1.684-16.65-13.942-17.268-40.53-19.645-62.115-1.494-13.566-.948-27.9,3.555-40.786,2.271-6.5,11.413-17.213,11.413-17.213Z" transform="translate(-155.71 -110.534)" fill="#370617"/><path d="M281.256,156.817l-16.126-2.064-6.03-6.092s-2.808,1.91-3.63,3.332c-1.138,1.97-1.488,6.661-1.488,6.661l2.89,2.688s12.035,1.288,15.366,5.6c5.434,7.042.249,18.775,2.487,26.568,3.96,13.786,9.513,19.034,9.276,20.266s.2,11.5.169,17.246c-.043,7.3-.471,21.894-.471,21.894l0,11.077s1.456,1.729,6.45.136,3.85-15.217,4.435-23c1.707-22.722,2.535-59.1-2.763-68.3s-5-12.041-5-12.041Z" transform="translate(139.125 -141.329)" fill="#cf1757"/><path d="M264.928,176.635l-.935,28.439-2.806,20.394-1.123,8.232,1.871,6.361,3.555,2.994-1.31,6.361,1.871,3.368L265.3,267l2.619,46.4,1.684,8.794s5.493,23.825,10.665,34.8c4.682,9.936,10.586,19.537,18.148,27.5,8.322,8.766,17.457,18.6,29.188,21.516,16.828,4.183,32.368,11.226,51.451-7.671s58.375-43.034,58.375-43.034l37.233-14.032-.749-5.426s-27.316,8.42-38.168,15.155-20.394,10.477-28.252,17.774-20.577,17.869-32.181,24.884c-33.967,20.534-39.12,8.1-55.755-.187-12.563-6.258-25.82-25.071-32.929-41.722a148.438,148.438,0,0,1-9.355-29.562s-.127-14.718-.187-22.078c-.13-15.966-.375-47.9-.375-47.9l3.368-1.5-.748-7.671,3.555-3.555.187-6.548s7.11-33.865,5.613-49.955-23.762-6.361-23.762-6.361Z" transform="translate(157.372 -66.142)"/><path d="M252.2,152.795s-4.233,9.525-4.233,15.876,6.88,124.363,6.88,124.363l2.646,38.631s17.463,16.4,30.693-4.233,10.054-80.436,10.054-80.436l-3.7-83.612s-12.171-12.7-22.755-12.7A95.7,95.7,0,0,0,252.2,152.8Z" transform="translate(121.063 -135.266)" fill="#370617"/><path d="M259.52,159.45s7.591,5.175,8.253,9.365c1.969,12.447-1.588,97.9-1.588,97.9L260.364,277.3Z" transform="translate(155.74 -108.96)" fill="#370617"/><path d="M262.273,151.624c27.539,24.816,4.14,111.878,4.14,111.878l-4.234,71.512a6.711,6.711,0,0,1-4.233-.072c-3.6-1.287-8.359-109.2-9.843-156.116-.458-14.489.473-15.622.473-15.622s.416-7.637,3.3-9.806c2.651-2,7.935-4,10.4-1.777Z" transform="translate(121.106 -135.375)" fill="#eb4a82"/><path d="M267.76,152.71l2.179,100.5s-.107,79.064-4.16,86.065c-2.143,3.7-15.095,2.525-14.362-2.224,1.569-10.167,4.9-83.84,4.9-83.84L251.961,151.1s5.5-1.431,8.272-1.135c2.659.285,7.526,2.747,7.526,2.747Z" transform="translate(131.339 -137.542)" fill="#870f38"/><path d="M256.08,151.8s8.347,12.8,11.113,11.642c5.258-2.2,10.265,3.156,12.7,7.409,10.032,17.517-.153,60.559-.153,60.559s-2.173,26.314.416,31.226c2.693,5.11,6.332,6.84,10.395,6.462,4.127-.384,7.712-4.362,9.168-8.4s.935-26.942.749-30.31,1.009-32.867-.187-43.034c-1.123-9.542-1.922-18.529-7.484-27.877-3.556-5.976-10.392-10.431-17.213-11.787-6.516-1.3-15.047-1.91-19.5,4.111h0Z" transform="translate(145.42 -146.828)" fill="#370617"/></g><path d="M266.241,177.405l5.613-1.5,15.716-1.5s1.5,49.767-2.245,56.879-12.348,10.852-12.348,10.852l-9.729-4.116-3.368-7.11L264,221.936Z" transform="translate(1024.021 523.271)" fill="none"/><path d="M262.211,190.782l-.748,5.987,2.619,73.716,8.232.374.748-68.48,1.5-3.742,1.5-7.858Z" transform="translate(1028.771 572.378)" fill="none"/><g transform="translate(889.729 644.272)"><path d="M190.3,166.228s9.3-6.512,14.163-2.77c1.446,1.112-2.136,1.1-.055,3.234,4.921,5.049,10.437,12.49,10.963,20.117.748,10.852,5.239,40.038,5.987,53.883s7.858,34.426,7.858,34.426,1.871,14.594,3.742,28.813,1.5,24.323,4.865,29.561-20.955,11.6-29.562,3.742-24.139-47.618-32.462-72.876c-4.927-14.954-7.279-30.438-10.2-46.118-2.016-10.836-6.417-22.453-2.994-32.929,1.785-5.464,3.875-6.925,11.4-12.937,5.1-4.075,14.023-9.018,16.29-6.146Z" transform="translate(-161.342 -157.345)" fill="#370617"/><path d="M170.294,166.452c-5.167,7.092-.374,11.226,2.619,26.194s7.11,36.672,7.858,38.168,20.581,66.231,23.2,72.22,7.484,24.323,10.852,27.316-1.348,6.507.767,6.323c7.329-.634-.484-14.713-1.141-22.04-1.405-15.656-3.348-31.279-5.987-46.774-2.109-12.384-5.953-24.441-7.858-36.858-2.308-15.047-4.3-45.466-4.3-45.466s-3.727-18.68-11.226-22.265c-4.547-2.174-11.813-.893-14.781,3.181Z" transform="translate(-141.34 -157.57)" fill="#eb4a82"/><path d="M165.72,169.942l-.187,18.148,6.361,30.871,9.916,33.3,12.723,35.549L205.2,319.62l7.671,14.594s.946,3.036,2.256,3.39c3.6.971,9.712-2.734,10.035-4.921.261-1.769-6.118-11.566-6.118-11.566l-12.723-36.3-17.961-60.247-8.794-37.233-.748-24.788s-9.587-5.778-12.568,5.4Z" transform="translate(-148.767 -161.06)" fill="#870f38"/></g><path d="M242.8,168.47s3.44,14.818,5.821,15.347-26.195,3.44-26.195,3.44l2.381-7.144Z" transform="translate(911.655 505.445)" fill="none"/><path d="M199.73,184.266c7.3.3,14.212,1.278,14.212,1.278l1.309-2.433s-2.8-3.181-5.05-6.175c-1.27-1.694-4.637-3.388-7.727-4.81l.048.1q.054.117.106.236t.1.237q.049.119.1.24t.087.242q.043.122.083.246t.074.246q.037.124.07.248t.062.25q.03.126.056.253t.05.252q.023.127.043.254t.036.254q.018.128.032.256t.024.256q.01.129.016.258t.012.256q0,.129,0,.258,0,.374-.028.748t-.085.744q-.055.37-.138.736t-.194.721q-.11.358-.246.707t-.3.686q-.162.337-.349.662t-.4.635q-.211.309-.444.6t-.488.569q-.255.274-.529.529-.259.239-.533.459Z" transform="translate(843.56 516.411)" fill="none"/><g transform="translate(1485.073 873.168)"><path d="M323.641,259.2a11.406,11.406,0,0,0,8.468,1.539c14.038-2.76,23.856-15.824,36.179-23.093,4.747-2.8,16.935-4.619,16.935-4.619S356.53,216.716,351.353,218.4c-6.478,2.111-33.1,31.56-33.1,31.56s2.469,7.191,5.388,9.237Z" transform="translate(-285.919 -218.281)" fill="#df5b00"/><path d="M319.364,269.667c-.259-6.868,2.1-11.09,7.7-16.693s46.486-35.666,53.491-30.763,20.049,7.651,22.851,17.456a32.966,32.966,0,0,1-.7,18.911s-18.21-17.51-25.214-16.809-21.712,16.809-22.412,23.813-9.1,22.412-6.3,24.514-21.011,6.3-21.011,6.3-5.308-2.138-7-14.708c-.857-6.348-1.249-7.991-1.4-12.023Z" transform="translate(-282.643 -208.106)" fill="#ff7817"/><path d="M310.17,253.285s9.237-9.237,17.32-9.237,48.494,5.773,48.494,5.773l65.815,7.313,26.557,11.546,14.626,16.934,5.773,18.859V306.4l7.313-9.622s-7.313-30.021-23.478-36.948a204.709,204.709,0,0,1-25.4-12.7l-98.913-5.773s-26.557-12.7-38.1,11.931Z" transform="translate(-310.17 -158.882)" fill="#960000"/></g><path d="M226.73,162.213l5.171,4.355s11.43-6.8,13.607-12.791,7.62-16.329,5.171-22.588-11.158-8.709-11.158-8.709l-6.26-4.082,3.266,8.437s3.81,4.9,1.9,13.88-11.7,21.5-11.7,21.5Z" transform="translate(924.565 355.214)" fill="#1a1a1a"/></g></svg>