<svg xmlns="http://www.w3.org/2000/svg" width="37" height="37" viewBox="0 0 37 37"><path d="M1.85,16.188H3.7V30.063H1.85a1.683,1.683,0,0,1-1.309-.677A2.632,2.632,0,0,1,0,27.75V18.5a2.632,2.632,0,0,1,.541-1.636,1.683,1.683,0,0,1,1.309-.677Zm29.6-3.469V32.375c0,2.553-1.657,4.622-3.7,4.625H9.25c-2.043,0-3.7-2.072-3.7-4.625V12.719c0-3.193,2.07-5.782,4.625-5.781H16.65V2.312A2.12,2.12,0,0,1,18.5,0a2.12,2.12,0,0,1,1.85,2.313V6.938h6.475C29.38,6.936,31.451,9.525,31.45,12.719ZM15.262,18.5a2.65,2.65,0,0,0-2.313-2.891A2.65,2.65,0,0,0,10.637,18.5a2.65,2.65,0,0,0,2.312,2.891A2.65,2.65,0,0,0,15.262,18.5ZM14.8,27.75H11.1v2.313h3.7Zm5.55,0h-3.7v2.313h3.7Zm6.012-9.25a2.65,2.65,0,0,0-2.312-2.891A2.65,2.65,0,0,0,21.737,18.5a2.65,2.65,0,0,0,2.313,2.891A2.65,2.65,0,0,0,26.362,18.5ZM25.9,27.75H22.2v2.313h3.7ZM37,18.5v9.25a2.632,2.632,0,0,1-.541,1.636,1.683,1.683,0,0,1-1.309.677H33.3V16.188h1.85a1.683,1.683,0,0,1,1.309.677A2.632,2.632,0,0,1,37,18.5Z" transform="translate(0)" fill="#e8f3fc"/></svg>