<svg xmlns="http://www.w3.org/2000/svg" width="128.684" height="97.701" viewBox="0 0 128.684 97.701"><path d="M6.434,42.744h6.434V79.382H6.434A6.606,6.606,0,0,1,1.882,77.6,5.945,5.945,0,0,1,0,73.276V48.85a5.945,5.945,0,0,1,1.882-4.32,6.606,6.606,0,0,1,4.552-1.786Zm102.947-9.159v51.9c-.007,6.742-5.764,12.206-12.868,12.213H32.171c-7.1-.007-12.861-5.471-12.868-12.213v-51.9c0-8.432,7.2-15.269,16.085-15.266h22.52V6.106a6.443,6.443,0,0,1,12.868,0V18.319H93.3C102.181,18.316,109.384,25.153,109.381,33.585ZM53.082,48.85a8.054,8.054,0,1,0-8.043,7.633,7.846,7.846,0,0,0,8.043-7.633ZM51.473,73.276H38.605v6.106H51.473Zm19.3,0H57.908v6.106H70.776ZM91.687,48.85a8.054,8.054,0,1,0-8.043,7.633,7.846,7.846,0,0,0,8.043-7.633ZM90.079,73.276H77.21v6.106H90.079ZM128.684,48.85V73.276A5.945,5.945,0,0,1,126.8,77.6a6.606,6.606,0,0,1-4.552,1.786h-6.434V42.744h6.434a6.606,6.606,0,0,1,4.552,1.786,5.945,5.945,0,0,1,1.882,4.32Z" fill="#e8f3fc"/></svg>