<svg xmlns="http://www.w3.org/2000/svg" width="23.178" height="23.178" viewBox="0 0 23.178 23.178"><path d="M19.707,35.368A11.489,11.489,0,0,0,1.63,49.228L0,55.178l6.089-1.6a11.451,11.451,0,0,0,5.489,1.4h.005a11.413,11.413,0,0,0,8.123-19.608ZM11.584,53.041a9.529,9.529,0,0,1-4.863-1.33L6.374,51.5l-3.611.947.962-3.523L3.5,48.566a9.565,9.565,0,1,1,17.741-5.075A9.653,9.653,0,0,1,11.584,53.041Zm5.236-7.15c-.285-.145-1.7-.838-1.961-.931s-.455-.145-.647.145-.74.931-.911,1.128-.336.217-.621.072a7.812,7.812,0,0,1-3.906-3.415c-.295-.507.295-.471.843-1.568a.532.532,0,0,0-.026-.5c-.072-.145-.647-1.557-.885-2.132-.233-.559-.471-.481-.647-.491s-.357-.01-.548-.01a1.063,1.063,0,0,0-.766.357,3.225,3.225,0,0,0-1,2.4,5.622,5.622,0,0,0,1.169,2.97,12.824,12.824,0,0,0,4.9,4.336c1.821.786,2.535.854,3.446.719A2.939,2.939,0,0,0,17.2,47.6a2.4,2.4,0,0,0,.166-1.366C17.3,46.1,17.1,46.031,16.82,45.891Z" transform="translate(0 -32)"/></svg>