<svg xmlns="http://www.w3.org/2000/svg" width="40" height="40" viewBox="0 0 40 40"><path d="M34.009,37.813a19.828,19.828,0,0,0-31.2,23.92L0,72l10.509-2.759a19.761,19.761,0,0,0,9.473,2.411h.009A19.7,19.7,0,0,0,34.009,37.813Zm-14.018,30.5A16.446,16.446,0,0,1,11.6,66.018l-.6-.357L4.768,67.295l1.661-6.08-.393-.625A16.507,16.507,0,1,1,36.652,51.83,16.659,16.659,0,0,1,19.991,68.313Zm9.036-12.339c-.491-.25-2.929-1.446-3.384-1.607s-.786-.25-1.116.25-1.277,1.607-1.571,1.946-.58.375-1.071.125c-2.911-1.455-4.821-2.6-6.741-5.893-.509-.875.509-.812,1.455-2.705a.918.918,0,0,0-.045-.866c-.125-.25-1.116-2.687-1.527-3.679-.4-.964-.812-.83-1.116-.848-.286-.018-.616-.018-.946-.018a1.835,1.835,0,0,0-1.321.616,5.565,5.565,0,0,0-1.732,4.134,9.7,9.7,0,0,0,2.018,5.125c.25.33,3.491,5.33,8.464,7.482,3.143,1.357,4.375,1.473,5.946,1.241.955-.143,2.929-1.2,3.339-2.357a4.142,4.142,0,0,0,.286-2.357C29.848,56.339,29.518,56.214,29.027,55.973Z" transform="translate(0 -32)"/></svg>